<svg xmlns="http://www.w3.org/2000/svg" viewBox="0 0 1280 720" preserveAspectRatio="xMidYMid slice"><defs><linearGradient id="s" x1="0" y1="0" x2="0" y2="1"><stop offset="0" stop-color="#0b1a3a"/><stop offset=".75" stop-color="#2e7fe0"/><stop offset="1" stop-color="#6ba3ef"/></linearGradient><radialGradient id="g"><stop offset="0" stop-color="#a9c8ff" stop-opacity=".95"/><stop offset="1" stop-color="#a9c8ff" stop-opacity="0"/></radialGradient><radialGradient id="v" cx=".5" cy=".5" r=".75"><stop offset=".6" stop-color="#000" stop-opacity="0"/><stop offset="1" stop-color="#000" stop-opacity=".45"/></radialGradient></defs><rect width="1280" height="720" fill="url(#s)"/><circle cx="806" cy="113" r="1.2" fill="#fff" opacity="0.45"/><circle cx="534" cy="57" r="1.1" fill="#fff" opacity="0.48"/><circle cx="943" cy="255" r="2.2" fill="#fff" opacity="0.75"/><circle cx="313" cy="355" r="1.1" fill="#fff" opacity="0.36"/><circle cx="721" cy="304" r="1.2" fill="#fff" opacity="0.26"/><circle cx="85" cy="52" r="1.6" fill="#fff" opacity="0.47"/><circle cx="127" cy="201" r="0.4" fill="#fff" opacity="0.53"/><circle cx="1097" cy="35" r="2.2" fill="#fff" opacity="0.79"/><circle cx="64" cy="253" r="1.8" fill="#fff" opacity="0.87"/><circle cx="11" cy="299" r="1.9" fill="#fff" opacity="0.34"/><circle cx="995" cy="114" r="1.6" fill="#fff" opacity="0.87"/><circle cx="1201" cy="325" r="1.6" fill="#fff" opacity="0.24"/><circle cx="515" cy="15" r="1.0" fill="#fff" opacity="0.60"/><circle cx="495" cy="71" r="1.2" fill="#fff" opacity="0.86"/><circle cx="1001" cy="20" r="1.5" fill="#fff" opacity="0.89"/><circle cx="517" cy="101" r="1.4" fill="#fff" opacity="0.25"/><circle cx="128" cy="327" r="1.3" fill="#fff" opacity="0.82"/><circle cx="639" cy="213" r="1.0" fill="#fff" opacity="0.78"/><circle cx="562" cy="58" r="0.4" fill="#fff" opacity="0.36"/><circle cx="1264" cy="212" r="2.0" fill="#fff" opacity="0.55"/><circle cx="668" cy="300" r="1.3" fill="#fff" opacity="0.71"/><circle cx="938" cy="352" r="0.5" fill="#fff" opacity="0.78"/><circle cx="1195" cy="277" r="0.8" fill="#fff" opacity="0.73"/><circle cx="626" cy="283" r="1.6" fill="#fff" opacity="0.64"/><circle cx="814" cy="28" r="1.6" fill="#fff" opacity="0.74"/><circle cx="728" cy="205" r="1.5" fill="#fff" opacity="0.56"/><circle cx="875" cy="353" r="1.8" fill="#fff" opacity="0.25"/><circle cx="526" cy="186" r="1.0" fill="#fff" opacity="0.47"/><circle cx="803" cy="37" r="0.9" fill="#fff" opacity="0.60"/><circle cx="995" cy="88" r="0.7" fill="#fff" opacity="0.55"/><circle cx="1190" cy="184" r="1.9" fill="#fff" opacity="0.34"/><circle cx="617" cy="273" r="1.0" fill="#fff" opacity="0.71"/><circle cx="435" cy="237" r="1.2" fill="#fff" opacity="0.70"/><circle cx="258" cy="214" r="1.8" fill="#fff" opacity="0.73"/><circle cx="708" cy="202" r="1.6" fill="#fff" opacity="0.62"/><circle cx="834" cy="60" r="0.7" fill="#fff" opacity="0.90"/><circle cx="42" cy="282" r="1.5" fill="#fff" opacity="0.76"/><circle cx="65" cy="60" r="1.1" fill="#fff" opacity="0.75"/><circle cx="37" cy="210" r="1.7" fill="#fff" opacity="0.84"/><circle cx="417" cy="3" r="0.7" fill="#fff" opacity="0.40"/><circle cx="428" cy="333" r="0.7" fill="#fff" opacity="0.46"/><circle cx="436" cy="42" r="1.4" fill="#fff" opacity="0.61"/><circle cx="356" cy="259" r="1.5" fill="#fff" opacity="0.88"/><circle cx="467" cy="60" r="2.2" fill="#fff" opacity="0.72"/><circle cx="421" cy="108" r="1.1" fill="#fff" opacity="0.30"/><circle cx="415" cy="28" r="1.3" fill="#fff" opacity="0.59"/><circle cx="1143" cy="4" r="0.9" fill="#fff" opacity="0.45"/><circle cx="251" cy="197" r="1.4" fill="#fff" opacity="0.33"/><circle cx="449" cy="111" r="2.1" fill="#fff" opacity="0.40"/><circle cx="189" cy="273" r="1.5" fill="#fff" opacity="0.73"/><circle cx="614" cy="300" r="1.2" fill="#fff" opacity="0.31"/><circle cx="41" cy="265" r="0.9" fill="#fff" opacity="0.36"/><circle cx="802" cy="323" r="2.1" fill="#fff" opacity="0.54"/><circle cx="592" cy="64" r="1.2" fill="#fff" opacity="0.72"/><circle cx="352" cy="342" r="0.8" fill="#fff" opacity="0.30"/><circle cx="487" cy="73" r="0.6" fill="#fff" opacity="0.60"/><circle cx="814" cy="304" r="1.1" fill="#fff" opacity="0.57"/><circle cx="1279" cy="33" r="0.8" fill="#fff" opacity="0.57"/><circle cx="290" cy="65" r="2.1" fill="#fff" opacity="0.77"/><circle cx="1027" cy="0" r="1.8" fill="#fff" opacity="0.36"/><circle cx="1260" cy="162" r="1.2" fill="#fff" opacity="0.70"/><circle cx="1273" cy="199" r="2.1" fill="#fff" opacity="0.64"/><circle cx="153" cy="326" r="2.0" fill="#fff" opacity="0.59"/><circle cx="1264" cy="263" r="1.3" fill="#fff" opacity="0.42"/><circle cx="492" cy="244" r="0.7" fill="#fff" opacity="0.27"/><circle cx="392" cy="324" r="2.0" fill="#fff" opacity="0.58"/><circle cx="557" cy="56" r="0.9" fill="#fff" opacity="0.82"/><circle cx="906" cy="51" r="0.7" fill="#fff" opacity="0.31"/><circle cx="764" cy="44" r="1.7" fill="#fff" opacity="0.65"/><circle cx="484" cy="202" r="1.1" fill="#fff" opacity="0.26"/><circle cx="785" cy="277" r="225" fill="url(#g)"/><circle cx="785" cy="277" r="75" fill="#a9c8ff"/><rect x="-20" y="545" width="77" height="195" fill="#1e5195"/><rect x="58" y="351" width="98" height="389" fill="#1e5195"/><rect x="162" y="493" width="92" height="247" fill="#1e5195"/><rect x="262" y="361" width="90" height="379" fill="#1e5195"/><rect x="355" y="529" width="63" height="211" fill="#1e5195"/><rect x="422" y="467" width="80" height="273" fill="#1e5195"/><rect x="506" y="457" width="74" height="283" fill="#1e5195"/><rect x="581" y="457" width="98" height="283" fill="#1e5195"/><rect x="681" y="455" width="43" height="285" fill="#1e5195"/><rect x="728" y="411" width="87" height="329" fill="#1e5195"/><rect x="823" y="528" width="57" height="212" fill="#1e5195"/><rect x="882" y="528" width="79" height="212" fill="#1e5195"/><rect x="962" y="472" width="102" height="268" fill="#1e5195"/><rect x="1071" y="384" width="65" height="356" fill="#1e5195"/><rect x="1138" y="435" width="85" height="305" fill="#1e5195"/><rect x="1228" y="378" width="73" height="362" fill="#1e5195"/><rect x="-20" y="560" width="91" height="150" fill="#15386b"/><rect x="73" y="547" width="68" height="163" fill="#15386b"/><rect x="149" y="461" width="91" height="249" fill="#15386b"/><rect x="244" y="516" width="108" height="194" fill="#15386b"/><rect x="358" y="410" width="62" height="300" fill="#15386b"/><rect x="422" y="518" width="98" height="192" fill="#15386b"/><rect x="520" y="478" width="44" height="232" fill="#15386b"/><rect x="570" y="485" width="41" height="225" fill="#15386b"/><rect x="614" y="439" width="47" height="271" fill="#15386b"/><rect x="665" y="519" width="88" height="191" fill="#15386b"/><rect x="753" y="543" width="86" height="167" fill="#15386b"/><rect x="847" y="539" width="46" height="171" fill="#15386b"/><rect x="899" y="463" width="59" height="247" fill="#15386b"/><rect x="958" y="488" width="44" height="222" fill="#15386b"/><rect x="1006" y="414" width="66" height="296" fill="#15386b"/><rect x="1077" y="511" width="68" height="199" fill="#15386b"/><rect x="1151" y="367" width="92" height="343" fill="#15386b"/><rect x="1251" y="514" width="71" height="196" fill="#15386b"/><rect x="-20" y="567" width="44" height="113" fill="#0c1f42"/><rect x="-12" y="610" width="6" height="8" fill="#a9c8ff" opacity=".85"/><rect x="10" y="581" width="6" height="8" fill="#a9c8ff" opacity=".85"/><rect x="9" y="580" width="6" height="8" fill="#a9c8ff" opacity=".85"/><rect x="-14" y="581" width="6" height="8" fill="#a9c8ff" opacity=".85"/><rect x="7" y="583" width="6" height="8" fill="#a9c8ff" opacity=".85"/><rect x="24" y="528" width="101" height="152" fill="#0c1f42"/><rect x="49" y="607" width="6" height="8" fill="#a9c8ff" opacity=".85"/><rect x="36" y="567" width="6" height="8" fill="#a9c8ff" opacity=".85"/><rect x="107" y="554" width="6" height="8" fill="#a9c8ff" opacity=".85"/><rect x="46" y="582" width="6" height="8" fill="#a9c8ff" opacity=".85"/><rect x="63" y="567" width="6" height="8" fill="#a9c8ff" opacity=".85"/><rect x="43" y="548" width="6" height="8" fill="#a9c8ff" opacity=".85"/><rect x="40" y="578" width="6" height="8" fill="#a9c8ff" opacity=".85"/><rect x="97" y="545" width="6" height="8" fill="#a9c8ff" opacity=".85"/><rect x="53" y="550" width="6" height="8" fill="#a9c8ff" opacity=".85"/><rect x="132" y="514" width="93" height="166" fill="#0c1f42"/><rect x="140" y="535" width="6" height="8" fill="#a9c8ff" opacity=".85"/><rect x="141" y="589" width="6" height="8" fill="#a9c8ff" opacity=".85"/><rect x="145" y="557" width="6" height="8" fill="#a9c8ff" opacity=".85"/><rect x="184" y="565" width="6" height="8" fill="#a9c8ff" opacity=".85"/><rect x="228" y="480" width="51" height="200" fill="#0c1f42"/><rect x="248" y="511" width="6" height="8" fill="#a9c8ff" opacity=".85"/><rect x="253" y="565" width="6" height="8" fill="#a9c8ff" opacity=".85"/><rect x="234" y="607" width="6" height="8" fill="#a9c8ff" opacity=".85"/><rect x="243" y="540" width="6" height="8" fill="#a9c8ff" opacity=".85"/><rect x="239" y="528" width="6" height="8" fill="#a9c8ff" opacity=".85"/><rect x="257" y="555" width="6" height="8" fill="#a9c8ff" opacity=".85"/><rect x="248" y="530" width="6" height="8" fill="#a9c8ff" opacity=".85"/><rect x="280" y="568" width="47" height="112" fill="#0c1f42"/><rect x="304" y="607" width="6" height="8" fill="#a9c8ff" opacity=".85"/><rect x="305" y="587" width="6" height="8" fill="#a9c8ff" opacity=".85"/><rect x="295" y="595" width="6" height="8" fill="#a9c8ff" opacity=".85"/><rect x="311" y="578" width="6" height="8" fill="#a9c8ff" opacity=".85"/><rect x="288" y="579" width="6" height="8" fill="#a9c8ff" opacity=".85"/><rect x="297" y="606" width="6" height="8" fill="#a9c8ff" opacity=".85"/><rect x="305" y="589" width="6" height="8" fill="#a9c8ff" opacity=".85"/><rect x="329" y="371" width="55" height="309" fill="#0c1f42"/><rect x="335" y="470" width="6" height="8" fill="#a9c8ff" opacity=".85"/><rect x="353" y="452" width="6" height="8" fill="#a9c8ff" opacity=".85"/><rect x="340" y="469" width="6" height="8" fill="#a9c8ff" opacity=".85"/><rect x="350" y="427" width="6" height="8" fill="#a9c8ff" opacity=".85"/><rect x="349" y="402" width="6" height="8" fill="#a9c8ff" opacity=".85"/><rect x="370" y="487" width="6" height="8" fill="#a9c8ff" opacity=".85"/><rect x="367" y="458" width="6" height="8" fill="#a9c8ff" opacity=".85"/><rect x="391" y="372" width="56" height="308" fill="#0c1f42"/><rect x="398" y="441" width="6" height="8" fill="#a9c8ff" opacity=".85"/><rect x="420" y="480" width="6" height="8" fill="#a9c8ff" opacity=".85"/><rect x="411" y="555" width="6" height="8" fill="#a9c8ff" opacity=".85"/><rect x="453" y="417" width="57" height="263" fill="#0c1f42"/><rect x="476" y="516" width="6" height="8" fill="#a9c8ff" opacity=".85"/><rect x="468" y="456" width="6" height="8" fill="#a9c8ff" opacity=".85"/><rect x="478" y="475" width="6" height="8" fill="#a9c8ff" opacity=".85"/><rect x="487" y="573" width="6" height="8" fill="#a9c8ff" opacity=".85"/><rect x="482" y="560" width="6" height="8" fill="#a9c8ff" opacity=".85"/><rect x="478" y="452" width="6" height="8" fill="#a9c8ff" opacity=".85"/><rect x="494" y="512" width="6" height="8" fill="#a9c8ff" opacity=".85"/><rect x="466" y="556" width="6" height="8" fill="#a9c8ff" opacity=".85"/><rect x="490" y="595" width="6" height="8" fill="#a9c8ff" opacity=".85"/><rect x="510" y="396" width="86" height="284" fill="#0c1f42"/><rect x="516" y="536" width="6" height="8" fill="#a9c8ff" opacity=".85"/><rect x="552" y="456" width="6" height="8" fill="#a9c8ff" opacity=".85"/><rect x="570" y="434" width="6" height="8" fill="#a9c8ff" opacity=".85"/><rect x="551" y="478" width="6" height="8" fill="#a9c8ff" opacity=".85"/><rect x="602" y="402" width="100" height="278" fill="#0c1f42"/><rect x="619" y="574" width="6" height="8" fill="#a9c8ff" opacity=".85"/><rect x="633" y="570" width="6" height="8" fill="#a9c8ff" opacity=".85"/><rect x="617" y="462" width="6" height="8" fill="#a9c8ff" opacity=".85"/><rect x="629" y="593" width="6" height="8" fill="#a9c8ff" opacity=".85"/><rect x="640" y="609" width="6" height="8" fill="#a9c8ff" opacity=".85"/><rect x="610" y="438" width="6" height="8" fill="#a9c8ff" opacity=".85"/><rect x="703" y="545" width="62" height="135" fill="#0c1f42"/><rect x="728" y="595" width="6" height="8" fill="#a9c8ff" opacity=".85"/><rect x="745" y="577" width="6" height="8" fill="#a9c8ff" opacity=".85"/><rect x="729" y="592" width="6" height="8" fill="#a9c8ff" opacity=".85"/><rect x="715" y="573" width="6" height="8" fill="#a9c8ff" opacity=".85"/><rect x="771" y="444" width="71" height="236" fill="#0c1f42"/><rect x="779" y="587" width="6" height="8" fill="#a9c8ff" opacity=".85"/><rect x="828" y="580" width="6" height="8" fill="#a9c8ff" opacity=".85"/><rect x="806" y="546" width="6" height="8" fill="#a9c8ff" opacity=".85"/><rect x="844" y="452" width="47" height="228" fill="#0c1f42"/><rect x="861" y="605" width="6" height="8" fill="#a9c8ff" opacity=".85"/><rect x="852" y="516" width="6" height="8" fill="#a9c8ff" opacity=".85"/><rect x="874" y="531" width="6" height="8" fill="#a9c8ff" opacity=".85"/><rect x="877" y="474" width="6" height="8" fill="#a9c8ff" opacity=".85"/><rect x="867" y="530" width="6" height="8" fill="#a9c8ff" opacity=".85"/><rect x="894" y="410" width="64" height="270" fill="#0c1f42"/><rect x="930" y="473" width="6" height="8" fill="#a9c8ff" opacity=".85"/><rect x="910" y="608" width="6" height="8" fill="#a9c8ff" opacity=".85"/><rect x="941" y="473" width="6" height="8" fill="#a9c8ff" opacity=".85"/><rect x="909" y="445" width="6" height="8" fill="#a9c8ff" opacity=".85"/><rect x="918" y="441" width="6" height="8" fill="#a9c8ff" opacity=".85"/><rect x="905" y="601" width="6" height="8" fill="#a9c8ff" opacity=".85"/><rect x="941" y="576" width="6" height="8" fill="#a9c8ff" opacity=".85"/><rect x="966" y="403" width="52" height="277" fill="#0c1f42"/><rect x="994" y="446" width="6" height="8" fill="#a9c8ff" opacity=".85"/><rect x="1004" y="517" width="6" height="8" fill="#a9c8ff" opacity=".85"/><rect x="974" y="571" width="6" height="8" fill="#a9c8ff" opacity=".85"/><rect x="998" y="521" width="6" height="8" fill="#a9c8ff" opacity=".85"/><rect x="987" y="574" width="6" height="8" fill="#a9c8ff" opacity=".85"/><rect x="978" y="607" width="6" height="8" fill="#a9c8ff" opacity=".85"/><rect x="997" y="553" width="6" height="8" fill="#a9c8ff" opacity=".85"/><rect x="1020" y="453" width="77" height="227" fill="#0c1f42"/><rect x="1073" y="490" width="6" height="8" fill="#a9c8ff" opacity=".85"/><rect x="1038" y="603" width="6" height="8" fill="#a9c8ff" opacity=".85"/><rect x="1076" y="532" width="6" height="8" fill="#a9c8ff" opacity=".85"/><rect x="1103" y="515" width="59" height="165" fill="#0c1f42"/><rect x="1110" y="607" width="6" height="8" fill="#a9c8ff" opacity=".85"/><rect x="1142" y="553" width="6" height="8" fill="#a9c8ff" opacity=".85"/><rect x="1144" y="557" width="6" height="8" fill="#a9c8ff" opacity=".85"/><rect x="1141" y="535" width="6" height="8" fill="#a9c8ff" opacity=".85"/><rect x="1141" y="582" width="6" height="8" fill="#a9c8ff" opacity=".85"/><rect x="1165" y="468" width="44" height="212" fill="#0c1f42"/><rect x="1172" y="494" width="6" height="8" fill="#a9c8ff" opacity=".85"/><rect x="1195" y="502" width="6" height="8" fill="#a9c8ff" opacity=".85"/><rect x="1176" y="605" width="6" height="8" fill="#a9c8ff" opacity=".85"/><rect x="1183" y="514" width="6" height="8" fill="#a9c8ff" opacity=".85"/><rect x="1191" y="605" width="6" height="8" fill="#a9c8ff" opacity=".85"/><rect x="1194" y="557" width="6" height="8" fill="#a9c8ff" opacity=".85"/><rect x="1192" y="590" width="6" height="8" fill="#a9c8ff" opacity=".85"/><rect x="1215" y="428" width="87" height="252" fill="#0c1f42"/><rect x="1260" y="475" width="6" height="8" fill="#a9c8ff" opacity=".85"/><rect x="1273" y="583" width="6" height="8" fill="#a9c8ff" opacity=".85"/><rect x="1261" y="547" width="6" height="8" fill="#a9c8ff" opacity=".85"/><rect x="1281" y="594" width="6" height="8" fill="#a9c8ff" opacity=".85"/><rect x="1261" y="572" width="6" height="8" fill="#a9c8ff" opacity=".85"/><rect x="1256" y="610" width="6" height="8" fill="#a9c8ff" opacity=".85"/><rect width="1280" height="720" fill="url(#v)"/></svg>