<svg xmlns="http://www.w3.org/2000/svg" viewBox="0 0 1280 720" preserveAspectRatio="xMidYMid slice" xmlns:c2pa="http://c2pa.org/manifest"><metadata><c2pa:manifest>AAAWgmp1bWIAAAAeanVtZGMycGEAEQAQgAAAqgA4m3EDYzJwYQAAABZcanVtYgAAAEdqdW1kYzJtYQARABCAAACqADibcQN1cm46YzJwYTo1ZjMwNDVhYi02MWViLTQwOWEtYjdkNy01NDA5YmViYmNiMTgAAAADl2p1bWIAAAApanVtZGMyYXMAEQAQgAAAqgA4m3EDYzJwYS5hc3NlcnRpb25zAAAAALxqdW1iAAAARGp1bWRjYm9yABEAEIAAAKoAOJtxE2MycGEuaW5ncmVkaWVudC52MwAAAAAYYzJzaEUlV2FjE9wxDn6QciQhdcEAAABwY2JvcqNpZGM6Zm9ybWF0bWltYWdlL3N2Zyt4bWxqaW5zdGFuY2VJRHgseG1wOmlpZDo2ODVhMDg0MC00NGZhLTQ4YTYtYWRkZC1kMWFkNWYzNjA3OGFscmVsYXRpb25zaGlwaHBhcmVudE9mAAAB4mp1bWIAAABBanVtZGNib3IAEQAQgAAAqgA4m3ETYzJwYS5hY3Rpb25zLnYyAAAAABhjMnNoILT+hkyaFmf45l2HHkDXEQAAAZljYm9yomdhY3Rpb25zgqJmYWN0aW9ua2MycGEub3BlbmVkanBhcmFtZXRlcnOha2luZ3JlZGllbnRzgaJjdXJseC1zZWxmI2p1bWJmPWMycGEuYXNzZXJ0aW9ucy9jMnBhLmluZ3JlZGllbnQudjNkaGFzaFggXCXDX+64aTPboCDbEl1mMgSCHInGjawebLVjq8pGa4GkZmFjdGlvbngdY29tLmFudGhyb3BpYy5jbGF1ZGUucHJvdmlkZWRqcGFyYW1ldGVyc6F4H2NvbS5hbnRocm9waWMub3JpZ2luLWNvbmZpZGVuY2VndW5rbm93bmtkZXNjcmlwdGlvbnhmQ2xhdWRlIHByb3ZpZGVkIHRoaXMgZmlsZSBhdCB0aGUgcmVxdWVzdCBvZiBhIHVzZXIgYW5kIG1heSBoYXZlIGNyZWF0ZWQgb3IgbW9kaWZpZWQgdGhlIGZpbGUgY29udGVudHMubXNvZnR3YXJlQWdlbnShZG5hbWVmQ2xhdWRlcmFsbEFjdGlvbnNJbmNsdWRlZPUAAADIanVtYgAAAEBqdW1kY2JvcgARABCAAACqADibcRNjMnBhLmhhc2guZGF0YQAAAAAYYzJzaCQWUmL/kIIw7LgK/22i0vUAAACAY2JvcqVjYWxnZnNoYTI1NmNwYWRNAAAAAAAAAAAAAAAAAGRoYXNoWCAmj9q2/8CV0cjfZwbn64aVYFa3YwtmH129Jpi6FVmGeGRuYW1lbmp1bWJmIG1hbmlmZXN0amV4Y2x1c2lvbnOBomVzdGFydBijZmxlbmd0aBkeBAAAAj5qdW1iAAAAJ2p1bWRjMmNsABEAEIAAAKoAOJtxA2MycGEuY2xhaW0udjIAAAACD2Nib3KlY2FsZ2ZzaGEyNTZpc2lnbmF0dXJleE1zZWxmI2p1bWJmPS9jMnBhL3VybjpjMnBhOjVmMzA0NWFiLTYxZWItNDA5YS1iN2Q3LTU0MDliZWJiY2IxOC9jMnBhLnNpZ25hdHVyZWppbnN0YW5jZUlEeCx4bXA6aWlkOjExMjZmNWVhLWZlMmUtNDVmMS05MmUzLTVkMTc5OWI5MjY4OXJjcmVhdGVkX2Fzc2VydGlvbnODomN1cmx4LXNlbGYjanVtYmY9YzJwYS5hc3NlcnRpb25zL2MycGEuaW5ncmVkaWVudC52M2RoYXNoWCBcJcNf7rhpM9ugINsSXWYyBIIcicaNrB5stWOrykZrgaJjdXJseCpzZWxmI2p1bWJmPWMycGEuYXNzZXJ0aW9ucy9jMnBhLmFjdGlvbnMudjJkaGFzaFggP9Gs4q15kho38gHNuCeJhZB4xpYv8DX3QaXMOtiSu76iY3VybHgpc2VsZiNqdW1iZj1jMnBhLmFzc2VydGlvbnMvYzJwYS5oYXNoLmRhdGFkaGFzaFggYsI+vaIea34iwXPAoC13qS42L6Ew4EMLCjMz0KrOw9d0Y2xhaW1fZ2VuZXJhdG9yX2luZm+jZG5hbWVvQW50aHJvcGljIEZpbGVzZ3ZlcnNpb25lMS4wLjBrc3BlY1ZlcnNpb25lMi40LjAAABA4anVtYgAAAChqdW1kYzJjcwARABCAAACqADibcQNjMnBhLnNpZ25hdHVyZQAAABAIY2JvctKEWQISogEmGCFZAgowggIGMIIBjaADAgECAhRA5aAK7sI50L64g/oGQgU9Z1UTADAKBggqhkjOPQQDAzBJMRcwFQYDVQQKEw5BbnRocm9waWMsIFBCQzEuMCwGA1UEAxMlQW50aHJvcGljIENvbnRlbnQgQ3JlZGVudGlhbHMgUm9vdCBDQTAeFw0yNjA4MDcxODQzNTZaFw0yODA4MDYxOTQzNTZaMEQxFzAVBgNVBAoTDkFudGhyb3BpYywgUEJDMSkwJwYDVQQDEyBBbnRocm9waWMgQ2xhdWRlIENvbnRlbnQgU2lnbmluZzBZMBMGByqGSM49AgEGCCqGSM49AwEHA0IABJh6CmvLUBgFFNU0vUKlOVtE6djd17L5SuwX0LemFisBM3dkd/3cyjxFA3Qo5S46fX0/ihY0VZ7mfb9KF703t5OjWDBWMA4GA1UdDwEB/wQEAwIHgDAVBgNVHSUEDjAMBgorBgEEAYPoXgIBMAwGA1UdEwEB/wQCMAAwHwYDVR0jBBgwFoAUzlHiBIFOZFsj+OPEz5o+nMHXXMIwCgYIKoZIzj0EAwMDZwAwZAIwMXMdFJ4BetLLVY7ORuE9noqbbAZOZn/aArXyTwFAZfKrPzxF2vPoJNf1+UCdg1XGAjBwX1zd9WGqYkqmL5SFqw1QySjr1zJfpJM9+1rdDwSPLMOPOjKuiXjoU/pUUeG9RwmhY3BhZFkNngAAAAAAAAAAAAAAAAAAAAAAAAAAAAAAAAAAAAAAAAAAAAAAAAAAAAAAAAAAAAAAAAAAAAAAAAAAAAAAAAAAAAAAAAAAAAAAAAAAAAAAAAAAAAAAAAAAAAAAAAAAAAAAAAAAAAAAAAAAAAAAAAAAAAAAAAAAAAAAAAAAAAAAAAAAAAAAAAAAAAAAAAAAAAAAAAAAAAAAAAAAAAAAAAAAAAAAAAAAAAAAAAAAAAAAAAAAAAAAAAAAAAAAAAAAAAAAAAAAAAAAAAAAAAAAAAAAAAAAAAAAAAAAAAAAAAAAAAAAAAAAAAAAAAAAAAAAAAAAAAAAAAAAAAAAAAAAAAAAAAAAAAAAAAAAAAAAAAAAAAAAAAAAAAAAAAAAAAAAAAAAAAAAAAAAAAAAAAAAAAAAAAAAAAAAAAAAAAAAAAAAAAAAAAAAAAAAAAAAAAAAAAAAAAAAAAAAAAAAAAAAAAAAAAAAAAAAAAAAAAAAAAAAAAAAAAAAAAAAAAAAAAAAAAAAAAAAAAAAAAAAAAAAAAAAAAAAAAAAAAAAAAAAAAAAAAAAAAAAAAAAAAAAAAAAAAAAAAAAAAAAAAAAAAAAAAAAAAAAAAAAAAAAAAAAAAAAAAAAAAAAAAAAAAAAAAAAAAAAAAAAAAAAAAAAAAAAAAAAAAAAAAAAAAAAAAAAAAAAAAAAAAAAAAAAAAAAAAAAAAAAAAAAAAAAAAAAAAAAAAAAAAAAAAAAAAAAAAAAAAAAAAAAAAAAAAAAAAAAAAAAAAAAAAAAAAAAAAAAAAAAAAAAAAAAAAAAAAAAAAAAAAAAAAAAAAAAAAAAAAAAAAAAAAAAAAAAAAAAAAAAAAAAAAAAAAAAAAAAAAAAAAAAAAAAAAAAAAAAAAAAAAAAAAAAAAAAAAAAAAAAAAAAAAAAAAAAAAAAAAAAAAAAAAAAAAAAAAAAAAAAAAAAAAAAAAAAAAAAAAAAAAAAAAAAAAAAAAAAAAAAAAAAAAAAAAAAAAAAAAAAAAAAAAAAAAAAAAAAAAAAAAAAAAAAAAAAAAAAAAAAAAAAAAAAAAAAAAAAAAAAAAAAAAAAAAAAAAAAAAAAAAAAAAAAAAAAAAAAAAAAAAAAAAAAAAAAAAAAAAAAAAAAAAAAAAAAAAAAAAAAAAAAAAAAAAAAAAAAAAAAAAAAAAAAAAAAAAAAAAAAAAAAAAAAAAAAAAAAAAAAAAAAAAAAAAAAAAAAAAAAAAAAAAAAAAAAAAAAAAAAAAAAAAAAAAAAAAAAAAAAAAAAAAAAAAAAAAAAAAAAAAAAAAAAAAAAAAAAAAAAAAAAAAAAAAAAAAAAAAAAAAAAAAAAAAAAAAAAAAAAAAAAAAAAAAAAAAAAAAAAAAAAAAAAAAAAAAAAAAAAAAAAAAAAAAAAAAAAAAAAAAAAAAAAAAAAAAAAAAAAAAAAAAAAAAAAAAAAAAAAAAAAAAAAAAAAAAAAAAAAAAAAAAAAAAAAAAAAAAAAAAAAAAAAAAAAAAAAAAAAAAAAAAAAAAAAAAAAAAAAAAAAAAAAAAAAAAAAAAAAAAAAAAAAAAAAAAAAAAAAAAAAAAAAAAAAAAAAAAAAAAAAAAAAAAAAAAAAAAAAAAAAAAAAAAAAAAAAAAAAAAAAAAAAAAAAAAAAAAAAAAAAAAAAAAAAAAAAAAAAAAAAAAAAAAAAAAAAAAAAAAAAAAAAAAAAAAAAAAAAAAAAAAAAAAAAAAAAAAAAAAAAAAAAAAAAAAAAAAAAAAAAAAAAAAAAAAAAAAAAAAAAAAAAAAAAAAAAAAAAAAAAAAAAAAAAAAAAAAAAAAAAAAAAAAAAAAAAAAAAAAAAAAAAAAAAAAAAAAAAAAAAAAAAAAAAAAAAAAAAAAAAAAAAAAAAAAAAAAAAAAAAAAAAAAAAAAAAAAAAAAAAAAAAAAAAAAAAAAAAAAAAAAAAAAAAAAAAAAAAAAAAAAAAAAAAAAAAAAAAAAAAAAAAAAAAAAAAAAAAAAAAAAAAAAAAAAAAAAAAAAAAAAAAAAAAAAAAAAAAAAAAAAAAAAAAAAAAAAAAAAAAAAAAAAAAAAAAAAAAAAAAAAAAAAAAAAAAAAAAAAAAAAAAAAAAAAAAAAAAAAAAAAAAAAAAAAAAAAAAAAAAAAAAAAAAAAAAAAAAAAAAAAAAAAAAAAAAAAAAAAAAAAAAAAAAAAAAAAAAAAAAAAAAAAAAAAAAAAAAAAAAAAAAAAAAAAAAAAAAAAAAAAAAAAAAAAAAAAAAAAAAAAAAAAAAAAAAAAAAAAAAAAAAAAAAAAAAAAAAAAAAAAAAAAAAAAAAAAAAAAAAAAAAAAAAAAAAAAAAAAAAAAAAAAAAAAAAAAAAAAAAAAAAAAAAAAAAAAAAAAAAAAAAAAAAAAAAAAAAAAAAAAAAAAAAAAAAAAAAAAAAAAAAAAAAAAAAAAAAAAAAAAAAAAAAAAAAAAAAAAAAAAAAAAAAAAAAAAAAAAAAAAAAAAAAAAAAAAAAAAAAAAAAAAAAAAAAAAAAAAAAAAAAAAAAAAAAAAAAAAAAAAAAAAAAAAAAAAAAAAAAAAAAAAAAAAAAAAAAAAAAAAAAAAAAAAAAAAAAAAAAAAAAAAAAAAAAAAAAAAAAAAAAAAAAAAAAAAAAAAAAAAAAAAAAAAAAAAAAAAAAAAAAAAAAAAAAAAAAAAAAAAAAAAAAAAAAAAAAAAAAAAAAAAAAAAAAAAAAAAAAAAAAAAAAAAAAAAAAAAAAAAAAAAAAAAAAAAAAAAAAAAAAAAAAAAAAAAAAAAAAAAAAAAAAAAAAAAAAAAAAAAAAAAAAAAAAAAAAAAAAAAAAAAAAAAAAAAAAAAAAAAAAAAAAAAAAAAAAAAAAAAAAAAAAAAAAAAAAAAAAAAAAAAAAAAAAAAAAAAAAAAAAAAAAAAAAAAAAAAAAAAAAAAAAAAAAAAAAAAAAAAAAAAAAAAAAAAAAAAAAAAAAAAAAAAAAAAAAAAAAAAAAAAAAAAAAAAAAAAAAAAAAAAAAAAAAAAAAAAAAAAAAAAAAAAAAAAAAAAAAAAAAAAAAAAAAAAAAAAAAAAAAAAAAAAAAAAAAAAAAAAAAAAAAAAAAAAAAAAAAAAAAAAAAAAAAAAAAAAAAAAAAAAAAAAAAAAAAAAAAAAAAAAAAAAAAAAAAAAAAAAAAAAAAAAAAAAAAAAAAAAAAAAAAAAAAAAAAAAAAAAAAAAAAAAAAAAAAAAAAAAAAAAAAAAAAAAAAAAAAAAAAAAAAAAAAAAAAAAAAAAAAAAAAAAAAAAAAAAAAAAAAAAAAAAAAAAAAAAAAAAAAAAAAAAAAAAAAAAAAAAAAAAAAAAAAAAAAAAAAAAAAAAAAAAAAAAAAAAAAAAAAAAAAAAAAAAAAAAAAAAAAAAAAAAAAAAAAAAAAAAAAAAAAAAAAAAAAAAAAAAAAAAAAAAAAAAAAAAAAAAAAAAAAAAAAAAAAAAAAAAAAAAAAAAAAAAAAAAAAAAAAAAAAAAAAAAAAAAAAAAAAAAAAAAAAAAAAAAAAAAAAAAAAAAAAAAAAAAAAAAAAAAAAAAAAAAAAAAAAAAAAAAAAAAAAAAAAAAAAAAAAAAAAAAAAAAAAAAAAAAAAAAAAAAAAAAAAAAAAAAAAAAAAAAAAAAAAAAAAAAAAAAAAAAAAAAAAAAAAAAAAAAAAAAAAAAAAAAAAAAAAAAAAAAAAAAAAAAAAAAAAAAAAAAAAAAAAAAAAAAAAAAAAAAAAAAAAAAAAAAAAAAAAAAAAAAAAAAAAAAAAAAAAAAAAAAAAAAAAAAAAAAAAAAAAAAAAAAAAAAAAAAAAAAAAAAAAAAAAAAAAAAAAAAAAAAAAAAAAAAAAAAAAAAAAAAAAAAAAAAAAAAAAAAAAAAAAAAAAAAAAAAAAAAAAAAAAAAAAAAAAAAAAAAAAAAAAAAAAAAAAAAAAAAAAAAAAAAAAAAAAAAAAAAAAAAAAAAAAAAAAAAAAAAAAAAAAAAAAAAAAAAAAAAAAAAAAAAAAAAAAAAAAAAAAAAAAAAAAAAAAAAAAAAAAAAAAAAAAAAAAAAAAAAAAAAAAAAAAAAAAAAAAAAAAAAAAAAAAAAAAAAAAAAAAAAAAAAAAAAAAAAAAAAAAAAAAAAAAAAAAAAAAAAAAAAAAAAAAAAAAAAAAAAAAAAAAAAAAAAAAAAAAAAAAAAAAAAAAAAAAAAAAAAAAAAAAAAAAAAAAAAAAAAAAAAAAAAAAAAAAAAAAAAAAAAAAAAAAAAAAAAAAAAAAAAAAAAAAAAAAAAAAAAAAAAAAAAAAAAAAAAAAAAAAAAAAAAAAAAAAAAAAAAAAAAAAAAAAAAAAAAAAAAAAAAAAAAAAAAAAAAAAAAAAAAAAAAAAAAAAAAAAAAAAAAAAAAAAAAAAAAAAAAAAAAAAAAAAAAAAAAAAAAAAAAAAAAAAAAAAAAAAAAAAAAAAAAAAAAAAAAAAAAAAAAAAAAAAAAAAAAAAAAAAAAAAAAAAAAAAAAAAAAAAAAAAAAAAAAAAAAAAAAAAAAAAAAAAAAAAAAAAAAAAAAAAAAAAAAAAAAAAAAAAAAAAAAAAAAAAAAAAAAAAAAAAAAAAAAAAAAAAAAAAAAAAAAAAAAAAAAAAAAAAAAAAAAAAAAAAAAAAAAAAAAAAAAAAAAAAAAAAAAAAAAAAAAAAAPZYQAQ/JTmzU72JO2GTd69Yc1+VbTtOKDTpCw521lCsFbbzLSeFUzlRWKxT72sNmSjrNa2N/FF7JofmbwPIwNzFPFI=</c2pa:manifest></metadata><defs><linearGradient id="s" x1="0" y1="0" x2="0" y2="1"><stop offset="0" stop-color="#2b0a1a"/><stop offset=".75" stop-color="#e5384f"/><stop offset="1" stop-color="#f2755d"/></linearGradient><radialGradient id="g"><stop offset="0" stop-color="#ffb36b" stop-opacity=".95"/><stop offset="1" stop-color="#ffb36b" stop-opacity="0"/></radialGradient><radialGradient id="v" cx=".5" cy=".5" r=".75"><stop offset=".6" stop-color="#000" stop-opacity="0"/><stop offset="1" stop-color="#000" stop-opacity=".45"/></radialGradient></defs><rect width="1280" height="720" fill="url(#s)"/><circle cx="957" cy="179" r="1.9" fill="#fff" opacity="0.50"/><circle cx="1050" cy="121" r="0.7" fill="#fff" opacity="0.36"/><circle cx="505" cy="269" r="1.0" fill="#fff" opacity="0.87"/><circle cx="1124" cy="43" r="0.9" fill="#fff" opacity="0.48"/><circle cx="133" cy="123" r="1.4" fill="#fff" opacity="0.78"/><circle cx="759" cy="231" r="2.1" fill="#fff" opacity="0.21"/><circle cx="1184" cy="244" r="1.2" fill="#fff" opacity="0.24"/><circle cx="1014" cy="43" r="1.8" fill="#fff" opacity="0.86"/><circle cx="1098" cy="278" r="2.1" fill="#fff" opacity="0.82"/><circle cx="46" cy="179" r="1.5" fill="#fff" opacity="0.77"/><circle cx="751" cy="24" r="1.2" fill="#fff" opacity="0.36"/><circle cx="111" cy="359" r="1.3" fill="#fff" opacity="0.83"/><circle cx="681" cy="138" r="1.3" fill="#fff" opacity="0.55"/><circle cx="773" cy="220" r="1.0" fill="#fff" opacity="0.73"/><circle cx="1089" cy="302" r="1.5" fill="#fff" opacity="0.60"/><circle cx="904" cy="150" r="0.7" fill="#fff" opacity="0.73"/><circle cx="501" cy="324" r="1.9" fill="#fff" opacity="0.56"/><circle cx="370" cy="261" r="1.8" fill="#fff" opacity="0.84"/><circle cx="740" cy="43" r="1.9" fill="#fff" opacity="0.86"/><circle cx="1058" cy="237" r="1.8" fill="#fff" opacity="0.81"/><circle cx="978" cy="348" r="0.7" fill="#fff" opacity="0.75"/><circle cx="1274" cy="184" r="1.5" fill="#fff" opacity="0.45"/><circle cx="1212" cy="338" r="1.7" fill="#fff" opacity="0.80"/><circle cx="1232" cy="26" r="1.7" fill="#fff" opacity="0.50"/><circle cx="1115" cy="37" r="1.1" fill="#fff" opacity="0.50"/><circle cx="173" cy="101" r="0.9" fill="#fff" opacity="0.48"/><circle cx="810" cy="41" r="1.9" fill="#fff" opacity="0.22"/><circle cx="757" cy="257" r="1.1" fill="#fff" opacity="0.22"/><circle cx="282" cy="351" r="2.1" fill="#fff" opacity="0.36"/><circle cx="64" cy="164" r="0.9" fill="#fff" opacity="0.72"/><circle cx="829" cy="160" r="0.8" fill="#fff" opacity="0.50"/><circle cx="364" cy="198" r="1.0" fill="#fff" opacity="0.54"/><circle cx="692" cy="27" r="0.6" fill="#fff" opacity="0.67"/><circle cx="1200" cy="20" r="1.5" fill="#fff" opacity="0.30"/><circle cx="605" cy="230" r="1.0" fill="#fff" opacity="0.77"/><circle cx="717" cy="34" r="0.8" fill="#fff" opacity="0.75"/><circle cx="647" cy="15" r="1.7" fill="#fff" opacity="0.26"/><circle cx="786" cy="360" r="1.7" fill="#fff" opacity="0.80"/><circle cx="810" cy="96" r="1.0" fill="#fff" opacity="0.42"/><circle cx="666" cy="287" r="2.2" fill="#fff" opacity="0.26"/><circle cx="1046" cy="197" r="1.9" fill="#fff" opacity="0.79"/><circle cx="990" cy="10" r="1.5" fill="#fff" opacity="0.22"/><circle cx="518" cy="185" r="2.1" fill="#fff" opacity="0.39"/><circle cx="621" cy="341" r="0.6" fill="#fff" opacity="0.58"/><circle cx="84" cy="50" r="0.9" fill="#fff" opacity="0.69"/><circle cx="454" cy="109" r="1.4" fill="#fff" opacity="0.76"/><circle cx="1080" cy="176" r="0.6" fill="#fff" opacity="0.24"/><circle cx="1167" cy="238" r="0.9" fill="#fff" opacity="0.38"/><circle cx="484" cy="353" r="1.5" fill="#fff" opacity="0.43"/><circle cx="970" cy="301" r="1.1" fill="#fff" opacity="0.87"/><circle cx="44" cy="315" r="0.8" fill="#fff" opacity="0.46"/><circle cx="1277" cy="153" r="1.1" fill="#fff" opacity="0.23"/><circle cx="1110" cy="141" r="1.7" fill="#fff" opacity="0.24"/><circle cx="1036" cy="42" r="0.8" fill="#fff" opacity="0.45"/><circle cx="2" cy="188" r="0.6" fill="#fff" opacity="0.56"/><circle cx="1095" cy="340" r="2.0" fill="#fff" opacity="0.29"/><circle cx="572" cy="282" r="1.6" fill="#fff" opacity="0.25"/><circle cx="888" cy="246" r="1.1" fill="#fff" opacity="0.79"/><circle cx="206" cy="86" r="0.9" fill="#fff" opacity="0.39"/><circle cx="761" cy="56" r="1.2" fill="#fff" opacity="0.54"/><circle cx="818" cy="213" r="0.7" fill="#fff" opacity="0.65"/><circle cx="592" cy="232" r="0.6" fill="#fff" opacity="0.85"/><circle cx="1118" cy="120" r="0.9" fill="#fff" opacity="0.55"/><circle cx="66" cy="225" r="1.4" fill="#fff" opacity="0.84"/><circle cx="853" cy="76" r="1.6" fill="#fff" opacity="0.89"/><circle cx="736" cy="243" r="2.1" fill="#fff" opacity="0.22"/><circle cx="510" cy="260" r="1.4" fill="#fff" opacity="0.63"/><circle cx="1257" cy="14" r="1.9" fill="#fff" opacity="0.87"/><circle cx="224" cy="193" r="0.9" fill="#fff" opacity="0.81"/><circle cx="932" cy="258" r="1.8" fill="#fff" opacity="0.35"/><circle cx="855" cy="170" r="165" fill="url(#g)"/><circle cx="855" cy="170" r="55" fill="#ffb36b"/><polygon points="0,720 0,189 138,235 255,279 379,209 483,261 572,303 679,259 739,254 859,307 947,298 1069,313 1199,266 1308,204 1280,720" fill="#a3273c"/><polygon points="0,720 0,316 137,316 205,389 327,349 415,322 493,344 592,334 713,356 779,340 849,385 974,420 1090,412 1219,429 1329,307 1280,720" fill="#7e1e31"/><polygon points="0,720 0,464 117,476 210,506 360,451 450,529 591,526 737,479 810,522 923,515 1004,476 1152,430 1216,489 1280,720" fill="#591527"/><polygon points="0,720 0,626 68,604 182,620 309,561 422,591 566,605 644,603 794,596 862,563 980,586 1126,604 1273,614 1280,720" fill="#340c1c"/><rect width="1280" height="720" fill="url(#v)"/></svg>