<svg xmlns="http://www.w3.org/2000/svg" viewBox="0 0 1280 720" preserveAspectRatio="xMidYMid slice"><defs><linearGradient id="s" x1="0" y1="0" x2="0" y2="1"><stop offset="0" stop-color="#120a2a"/><stop offset=".75" stop-color="#6f4ff0"/><stop offset="1" stop-color="#7d97f7"/></linearGradient><radialGradient id="g"><stop offset="0" stop-color="#8be0ff" stop-opacity=".95"/><stop offset="1" stop-color="#8be0ff" stop-opacity="0"/></radialGradient><radialGradient id="v" cx=".5" cy=".5" r=".75"><stop offset=".6" stop-color="#000" stop-opacity="0"/><stop offset="1" stop-color="#000" stop-opacity=".45"/></radialGradient></defs><rect width="1280" height="720" fill="url(#s)"/><circle cx="621" cy="248" r="1.0" fill="#fff" opacity="0.24"/><circle cx="1190" cy="245" r="1.6" fill="#fff" opacity="0.53"/><circle cx="844" cy="318" r="1.2" fill="#fff" opacity="0.86"/><circle cx="379" cy="229" r="1.8" fill="#fff" opacity="0.25"/><circle cx="1140" cy="2" r="1.3" fill="#fff" opacity="0.89"/><circle cx="1180" cy="21" r="0.8" fill="#fff" opacity="0.61"/><circle cx="219" cy="84" r="2.2" fill="#fff" opacity="0.78"/><circle cx="1255" cy="171" r="0.8" fill="#fff" opacity="0.66"/><circle cx="199" cy="287" r="2.0" fill="#fff" opacity="0.46"/><circle cx="567" cy="225" r="1.0" fill="#fff" opacity="0.68"/><circle cx="1274" cy="339" r="1.7" fill="#fff" opacity="0.31"/><circle cx="518" cy="72" r="1.0" fill="#fff" opacity="0.88"/><circle cx="34" cy="328" r="1.6" fill="#fff" opacity="0.44"/><circle cx="790" cy="350" r="1.6" fill="#fff" opacity="0.62"/><circle cx="623" cy="338" r="0.5" fill="#fff" opacity="0.33"/><circle cx="1057" cy="212" r="1.5" fill="#fff" opacity="0.52"/><circle cx="1171" cy="286" r="1.8" fill="#fff" opacity="0.46"/><circle cx="1030" cy="338" r="1.0" fill="#fff" opacity="0.73"/><circle cx="722" cy="238" r="1.3" fill="#fff" opacity="0.60"/><circle cx="793" cy="72" r="0.6" fill="#fff" opacity="0.61"/><circle cx="797" cy="165" r="0.9" fill="#fff" opacity="0.64"/><circle cx="231" cy="8" r="1.6" fill="#fff" opacity="0.74"/><circle cx="820" cy="237" r="0.8" fill="#fff" opacity="0.62"/><circle cx="916" cy="34" r="1.7" fill="#fff" opacity="0.35"/><circle cx="1011" cy="307" r="1.2" fill="#fff" opacity="0.59"/><circle cx="944" cy="9" r="0.9" fill="#fff" opacity="0.49"/><circle cx="1093" cy="1" r="2.1" fill="#fff" opacity="0.62"/><circle cx="16" cy="94" r="2.1" fill="#fff" opacity="0.76"/><circle cx="847" cy="35" r="2.2" fill="#fff" opacity="0.70"/><circle cx="21" cy="253" r="1.9" fill="#fff" opacity="0.74"/><circle cx="972" cy="118" r="1.8" fill="#fff" opacity="0.34"/><circle cx="590" cy="86" r="1.5" fill="#fff" opacity="0.56"/><circle cx="1197" cy="139" r="1.5" fill="#fff" opacity="0.33"/><circle cx="288" cy="176" r="1.4" fill="#fff" opacity="0.26"/><circle cx="218" cy="128" r="1.5" fill="#fff" opacity="0.30"/><circle cx="1031" cy="58" r="0.5" fill="#fff" opacity="0.33"/><circle cx="304" cy="151" r="0.9" fill="#fff" opacity="0.32"/><circle cx="66" cy="307" r="1.3" fill="#fff" opacity="0.86"/><circle cx="721" cy="45" r="1.5" fill="#fff" opacity="0.68"/><circle cx="182" cy="206" r="1.0" fill="#fff" opacity="0.79"/><circle cx="675" cy="55" r="2.1" fill="#fff" opacity="0.23"/><circle cx="87" cy="325" r="1.3" fill="#fff" opacity="0.44"/><circle cx="554" cy="197" r="0.5" fill="#fff" opacity="0.83"/><circle cx="677" cy="148" r="0.8" fill="#fff" opacity="0.61"/><circle cx="217" cy="341" r="1.8" fill="#fff" opacity="0.39"/><circle cx="411" cy="89" r="0.9" fill="#fff" opacity="0.72"/><circle cx="689" cy="112" r="1.5" fill="#fff" opacity="0.31"/><circle cx="991" cy="107" r="1.2" fill="#fff" opacity="0.25"/><circle cx="477" cy="103" r="1.7" fill="#fff" opacity="0.28"/><circle cx="577" cy="59" r="0.8" fill="#fff" opacity="0.42"/><circle cx="755" cy="165" r="0.8" fill="#fff" opacity="0.38"/><circle cx="1165" cy="359" r="0.8" fill="#fff" opacity="0.69"/><circle cx="1144" cy="28" r="1.8" fill="#fff" opacity="0.42"/><circle cx="1263" cy="201" r="2.0" fill="#fff" opacity="0.84"/><circle cx="178" cy="92" r="2.1" fill="#fff" opacity="0.29"/><circle cx="689" cy="316" r="1.0" fill="#fff" opacity="0.83"/><circle cx="511" cy="353" r="1.9" fill="#fff" opacity="0.75"/><circle cx="558" cy="90" r="0.9" fill="#fff" opacity="0.22"/><circle cx="27" cy="356" r="1.4" fill="#fff" opacity="0.70"/><circle cx="444" cy="210" r="0.4" fill="#fff" opacity="0.52"/><circle cx="193" cy="242" r="0.9" fill="#fff" opacity="0.74"/><circle cx="317" cy="67" r="1.3" fill="#fff" opacity="0.48"/><circle cx="323" cy="78" r="2.1" fill="#fff" opacity="0.44"/><circle cx="333" cy="179" r="1.1" fill="#fff" opacity="0.81"/><circle cx="1234" cy="249" r="2.0" fill="#fff" opacity="0.54"/><circle cx="385" cy="354" r="1.0" fill="#fff" opacity="0.75"/><circle cx="500" cy="52" r="1.2" fill="#fff" opacity="0.31"/><circle cx="357" cy="72" r="0.5" fill="#fff" opacity="0.67"/><circle cx="178" cy="79" r="0.4" fill="#fff" opacity="0.77"/><circle cx="137" cy="46" r="1.4" fill="#fff" opacity="0.27"/><circle cx="720" cy="277" r="240" fill="url(#g)"/><circle cx="720" cy="277" r="80" fill="#8be0ff"/><polygon points="0,720 0,245 109,273 198,287 334,212 419,248 531,236 680,314 775,313 866,316 936,268 1009,201 1084,329 1161,182 1248,293 1280,720" fill="#4e36aa"/><polygon points="0,720 0,352 83,309 151,331 240,313 381,335 505,390 601,358 729,313 836,412 982,319 1055,400 1152,398 1274,316 1280,720" fill="#3b2983"/><polygon points="0,720 0,503 82,466 155,439 261,483 374,488 440,462 549,491 683,436 798,520 940,437 1076,440 1181,515 1276,478 1280,720" fill="#291b5b"/><polygon points="0,720 0,629 147,607 210,615 319,578 420,583 546,595 692,561 829,621 973,599 1042,581 1111,603 1246,607 1280,720" fill="#160d33"/><rect width="1280" height="720" fill="url(#v)"/></svg>