<svg xmlns="http://www.w3.org/2000/svg" viewBox="0 0 1280 720" preserveAspectRatio="xMidYMid slice" xmlns:c2pa="http://c2pa.org/manifest"><metadata><c2pa:manifest>AAAWgmp1bWIAAAAeanVtZGMycGEAEQAQgAAAqgA4m3EDYzJwYQAAABZcanVtYgAAAEdqdW1kYzJtYQARABCAAACqADibcQN1cm46YzJwYToxMTA4OWQ5OS1mODAwLTQ1MGUtOTdjYy1mZjFkNzRmODg0MjEAAAADl2p1bWIAAAApanVtZGMyYXMAEQAQgAAAqgA4m3EDYzJwYS5hc3NlcnRpb25zAAAAALxqdW1iAAAARGp1bWRjYm9yABEAEIAAAKoAOJtxE2MycGEuaW5ncmVkaWVudC52MwAAAAAYYzJzaP8DkLtX2A58nTcZITZIigUAAABwY2JvcqNpZGM6Zm9ybWF0bWltYWdlL3N2Zyt4bWxqaW5zdGFuY2VJRHgseG1wOmlpZDowNDc5ZTBhNy01NjhlLTQxZWMtOTAzNi0xODI4OTlhNzk2YjlscmVsYXRpb25zaGlwaHBhcmVudE9mAAAB4mp1bWIAAABBanVtZGNib3IAEQAQgAAAqgA4m3ETYzJwYS5hY3Rpb25zLnYyAAAAABhjMnNoF4kOJ4kOse/ntbft5w5p5AAAAZljYm9yomdhY3Rpb25zgqJmYWN0aW9ua2MycGEub3BlbmVkanBhcmFtZXRlcnOha2luZ3JlZGllbnRzgaJjdXJseC1zZWxmI2p1bWJmPWMycGEuYXNzZXJ0aW9ucy9jMnBhLmluZ3JlZGllbnQudjNkaGFzaFggx6g8Fp31q3NfJYxW6VfwUJEIQSi/PWlZYyN/Tn4hW++kZmFjdGlvbngdY29tLmFudGhyb3BpYy5jbGF1ZGUucHJvdmlkZWRqcGFyYW1ldGVyc6F4H2NvbS5hbnRocm9waWMub3JpZ2luLWNvbmZpZGVuY2VndW5rbm93bmtkZXNjcmlwdGlvbnhmQ2xhdWRlIHByb3ZpZGVkIHRoaXMgZmlsZSBhdCB0aGUgcmVxdWVzdCBvZiBhIHVzZXIgYW5kIG1heSBoYXZlIGNyZWF0ZWQgb3IgbW9kaWZpZWQgdGhlIGZpbGUgY29udGVudHMubXNvZnR3YXJlQWdlbnShZG5hbWVmQ2xhdWRlcmFsbEFjdGlvbnNJbmNsdWRlZPUAAADIanVtYgAAAEBqdW1kY2JvcgARABCAAACqADibcRNjMnBhLmhhc2guZGF0YQAAAAAYYzJzaN6ljMge21ffUXr65qQ4AVIAAACAY2JvcqVjYWxnZnNoYTI1NmNwYWRNAAAAAAAAAAAAAAAAAGRoYXNoWCCJoyUzxAzEtwthz31jjzhRcSRHwHKQBKncMZK5ualczWRuYW1lbmp1bWJmIG1hbmlmZXN0amV4Y2x1c2lvbnOBomVzdGFydBijZmxlbmd0aBkeBAAAAj5qdW1iAAAAJ2p1bWRjMmNsABEAEIAAAKoAOJtxA2MycGEuY2xhaW0udjIAAAACD2Nib3KlY2FsZ2ZzaGEyNTZpc2lnbmF0dXJleE1zZWxmI2p1bWJmPS9jMnBhL3VybjpjMnBhOjExMDg5ZDk5LWY4MDAtNDUwZS05N2NjLWZmMWQ3NGY4ODQyMS9jMnBhLnNpZ25hdHVyZWppbnN0YW5jZUlEeCx4bXA6aWlkOjg2OTM1Nzg4LTEwZjYtNGIwYS1iNDU5LWRiOTI2MGQ5YjliNXJjcmVhdGVkX2Fzc2VydGlvbnODomN1cmx4LXNlbGYjanVtYmY9YzJwYS5hc3NlcnRpb25zL2MycGEuaW5ncmVkaWVudC52M2RoYXNoWCDHqDwWnfWrc18ljFbpV/BQkQhBKL89aVljI39OfiFb76JjdXJseCpzZWxmI2p1bWJmPWMycGEuYXNzZXJ0aW9ucy9jMnBhLmFjdGlvbnMudjJkaGFzaFggqYFhmFuGkJRzX2Sl77+Ps1d2VHZU3lA0PVS6dDqxYuyiY3VybHgpc2VsZiNqdW1iZj1jMnBhLmFzc2VydGlvbnMvYzJwYS5oYXNoLmRhdGFkaGFzaFggjk/dQfDQ4/Rpw5bdgE0yk5WbSb35Uzt6q+lzPr8aGw50Y2xhaW1fZ2VuZXJhdG9yX2luZm+jZG5hbWVvQW50aHJvcGljIEZpbGVzZ3ZlcnNpb25lMS4wLjBrc3BlY1ZlcnNpb25lMi40LjAAABA4anVtYgAAAChqdW1kYzJjcwARABCAAACqADibcQNjMnBhLnNpZ25hdHVyZQAAABAIY2JvctKEWQISogEmGCFZAgowggIGMIIBjaADAgECAhRA5aAK7sI50L64g/oGQgU9Z1UTADAKBggqhkjOPQQDAzBJMRcwFQYDVQQKEw5BbnRocm9waWMsIFBCQzEuMCwGA1UEAxMlQW50aHJvcGljIENvbnRlbnQgQ3JlZGVudGlhbHMgUm9vdCBDQTAeFw0yNjA4MDcxODQzNTZaFw0yODA4MDYxOTQzNTZaMEQxFzAVBgNVBAoTDkFudGhyb3BpYywgUEJDMSkwJwYDVQQDEyBBbnRocm9waWMgQ2xhdWRlIENvbnRlbnQgU2lnbmluZzBZMBMGByqGSM49AgEGCCqGSM49AwEHA0IABJh6CmvLUBgFFNU0vUKlOVtE6djd17L5SuwX0LemFisBM3dkd/3cyjxFA3Qo5S46fX0/ihY0VZ7mfb9KF703t5OjWDBWMA4GA1UdDwEB/wQEAwIHgDAVBgNVHSUEDjAMBgorBgEEAYPoXgIBMAwGA1UdEwEB/wQCMAAwHwYDVR0jBBgwFoAUzlHiBIFOZFsj+OPEz5o+nMHXXMIwCgYIKoZIzj0EAwMDZwAwZAIwMXMdFJ4BetLLVY7ORuE9noqbbAZOZn/aArXyTwFAZfKrPzxF2vPoJNf1+UCdg1XGAjBwX1zd9WGqYkqmL5SFqw1QySjr1zJfpJM9+1rdDwSPLMOPOjKuiXjoU/pUUeG9RwmhY3BhZFkNngAAAAAAAAAAAAAAAAAAAAAAAAAAAAAAAAAAAAAAAAAAAAAAAAAAAAAAAAAAAAAAAAAAAAAAAAAAAAAAAAAAAAAAAAAAAAAAAAAAAAAAAAAAAAAAAAAAAAAAAAAAAAAAAAAAAAAAAAAAAAAAAAAAAAAAAAAAAAAAAAAAAAAAAAAAAAAAAAAAAAAAAAAAAAAAAAAAAAAAAAAAAAAAAAAAAAAAAAAAAAAAAAAAAAAAAAAAAAAAAAAAAAAAAAAAAAAAAAAAAAAAAAAAAAAAAAAAAAAAAAAAAAAAAAAAAAAAAAAAAAAAAAAAAAAAAAAAAAAAAAAAAAAAAAAAAAAAAAAAAAAAAAAAAAAAAAAAAAAAAAAAAAAAAAAAAAAAAAAAAAAAAAAAAAAAAAAAAAAAAAAAAAAAAAAAAAAAAAAAAAAAAAAAAAAAAAAAAAAAAAAAAAAAAAAAAAAAAAAAAAAAAAAAAAAAAAAAAAAAAAAAAAAAAAAAAAAAAAAAAAAAAAAAAAAAAAAAAAAAAAAAAAAAAAAAAAAAAAAAAAAAAAAAAAAAAAAAAAAAAAAAAAAAAAAAAAAAAAAAAAAAAAAAAAAAAAAAAAAAAAAAAAAAAAAAAAAAAAAAAAAAAAAAAAAAAAAAAAAAAAAAAAAAAAAAAAAAAAAAAAAAAAAAAAAAAAAAAAAAAAAAAAAAAAAAAAAAAAAAAAAAAAAAAAAAAAAAAAAAAAAAAAAAAAAAAAAAAAAAAAAAAAAAAAAAAAAAAAAAAAAAAAAAAAAAAAAAAAAAAAAAAAAAAAAAAAAAAAAAAAAAAAAAAAAAAAAAAAAAAAAAAAAAAAAAAAAAAAAAAAAAAAAAAAAAAAAAAAAAAAAAAAAAAAAAAAAAAAAAAAAAAAAAAAAAAAAAAAAAAAAAAAAAAAAAAAAAAAAAAAAAAAAAAAAAAAAAAAAAAAAAAAAAAAAAAAAAAAAAAAAAAAAAAAAAAAAAAAAAAAAAAAAAAAAAAAAAAAAAAAAAAAAAAAAAAAAAAAAAAAAAAAAAAAAAAAAAAAAAAAAAAAAAAAAAAAAAAAAAAAAAAAAAAAAAAAAAAAAAAAAAAAAAAAAAAAAAAAAAAAAAAAAAAAAAAAAAAAAAAAAAAAAAAAAAAAAAAAAAAAAAAAAAAAAAAAAAAAAAAAAAAAAAAAAAAAAAAAAAAAAAAAAAAAAAAAAAAAAAAAAAAAAAAAAAAAAAAAAAAAAAAAAAAAAAAAAAAAAAAAAAAAAAAAAAAAAAAAAAAAAAAAAAAAAAAAAAAAAAAAAAAAAAAAAAAAAAAAAAAAAAAAAAAAAAAAAAAAAAAAAAAAAAAAAAAAAAAAAAAAAAAAAAAAAAAAAAAAAAAAAAAAAAAAAAAAAAAAAAAAAAAAAAAAAAAAAAAAAAAAAAAAAAAAAAAAAAAAAAAAAAAAAAAAAAAAAAAAAAAAAAAAAAAAAAAAAAAAAAAAAAAAAAAAAAAAAAAAAAAAAAAAAAAAAAAAAAAAAAAAAAAAAAAAAAAAAAAAAAAAAAAAAAAAAAAAAAAAAAAAAAAAAAAAAAAAAAAAAAAAAAAAAAAAAAAAAAAAAAAAAAAAAAAAAAAAAAAAAAAAAAAAAAAAAAAAAAAAAAAAAAAAAAAAAAAAAAAAAAAAAAAAAAAAAAAAAAAAAAAAAAAAAAAAAAAAAAAAAAAAAAAAAAAAAAAAAAAAAAAAAAAAAAAAAAAAAAAAAAAAAAAAAAAAAAAAAAAAAAAAAAAAAAAAAAAAAAAAAAAAAAAAAAAAAAAAAAAAAAAAAAAAAAAAAAAAAAAAAAAAAAAAAAAAAAAAAAAAAAAAAAAAAAAAAAAAAAAAAAAAAAAAAAAAAAAAAAAAAAAAAAAAAAAAAAAAAAAAAAAAAAAAAAAAAAAAAAAAAAAAAAAAAAAAAAAAAAAAAAAAAAAAAAAAAAAAAAAAAAAAAAAAAAAAAAAAAAAAAAAAAAAAAAAAAAAAAAAAAAAAAAAAAAAAAAAAAAAAAAAAAAAAAAAAAAAAAAAAAAAAAAAAAAAAAAAAAAAAAAAAAAAAAAAAAAAAAAAAAAAAAAAAAAAAAAAAAAAAAAAAAAAAAAAAAAAAAAAAAAAAAAAAAAAAAAAAAAAAAAAAAAAAAAAAAAAAAAAAAAAAAAAAAAAAAAAAAAAAAAAAAAAAAAAAAAAAAAAAAAAAAAAAAAAAAAAAAAAAAAAAAAAAAAAAAAAAAAAAAAAAAAAAAAAAAAAAAAAAAAAAAAAAAAAAAAAAAAAAAAAAAAAAAAAAAAAAAAAAAAAAAAAAAAAAAAAAAAAAAAAAAAAAAAAAAAAAAAAAAAAAAAAAAAAAAAAAAAAAAAAAAAAAAAAAAAAAAAAAAAAAAAAAAAAAAAAAAAAAAAAAAAAAAAAAAAAAAAAAAAAAAAAAAAAAAAAAAAAAAAAAAAAAAAAAAAAAAAAAAAAAAAAAAAAAAAAAAAAAAAAAAAAAAAAAAAAAAAAAAAAAAAAAAAAAAAAAAAAAAAAAAAAAAAAAAAAAAAAAAAAAAAAAAAAAAAAAAAAAAAAAAAAAAAAAAAAAAAAAAAAAAAAAAAAAAAAAAAAAAAAAAAAAAAAAAAAAAAAAAAAAAAAAAAAAAAAAAAAAAAAAAAAAAAAAAAAAAAAAAAAAAAAAAAAAAAAAAAAAAAAAAAAAAAAAAAAAAAAAAAAAAAAAAAAAAAAAAAAAAAAAAAAAAAAAAAAAAAAAAAAAAAAAAAAAAAAAAAAAAAAAAAAAAAAAAAAAAAAAAAAAAAAAAAAAAAAAAAAAAAAAAAAAAAAAAAAAAAAAAAAAAAAAAAAAAAAAAAAAAAAAAAAAAAAAAAAAAAAAAAAAAAAAAAAAAAAAAAAAAAAAAAAAAAAAAAAAAAAAAAAAAAAAAAAAAAAAAAAAAAAAAAAAAAAAAAAAAAAAAAAAAAAAAAAAAAAAAAAAAAAAAAAAAAAAAAAAAAAAAAAAAAAAAAAAAAAAAAAAAAAAAAAAAAAAAAAAAAAAAAAAAAAAAAAAAAAAAAAAAAAAAAAAAAAAAAAAAAAAAAAAAAAAAAAAAAAAAAAAAAAAAAAAAAAAAAAAAAAAAAAAAAAAAAAAAAAAAAAAAAAAAAAAAAAAAAAAAAAAAAAAAAAAAAAAAAAAAAAAAAAAAAAAAAAAAAAAAAAAAAAAAAAAAAAAAAAAAAAAAAAAAAAAAAAAAAAAAAAAAAAAAAAAAAAAAAAAAAAAAAAAAAAAAAAAAAAAAAAAAAAAAAAAAAAAAAAAAAAAAAAAAAAAAAAAAAAAAAAAAAAAAAAAAAAAAAAAAAAAAAAAAAAAAAAAAAAAAAAAAAAAAAAAAAAAAAAAAAAAAAAAAAAAAAAAAAAAAAAAAAAAAAAAAAAAAAAAAAAAAAAAAAAAAAAAAAAAAAAAAAAAAAAAAAAAAAAAAAAAAAAAAAAAAAAAAAAAAAAAAAAAAAAAAAAAAAAAAAAAAAAAAAAAAAAAAAAAAAAAAAAAAAAAAAAAAAAAAAAAAAAAAAAAAAAAAAAAAAAAAAAAAAAAAAAAAAAAAAAAAAAAAAAAAAAAAAAAAAAAAAAAAAAAAAAAAAAAAAAAAAAAAAAAAAAAAAAAAAAAAAAAAAAAAAAAAAAAAAAAAAAAAAAAAAAAAAAAAAAAAAAAAAAAAAAAAAAAAAAAAAAAAAAAAAAAAAAAAAAAAAAAAAAAAAAAAAAAAAAAAAAAAAAAAAAAAAAAAAAAAAAAAAAAAAAAAAAAAAAAAAAAAAAAAAAAAAAAAAAAAAAAAAAAAAAAAAAAAAAAAAAAAAAAAAAAAAAAAAAAAAAAAAAAAAAAAAAAAAAAAAAAAAAAAAAAAAAAAAAAAAAAAAAAAAAAAAAAAAAAAAAAAAAAAAAAAAAAAAAAAAAAAAAAAAAAAAAAAAAAAAAAAAAAAAAAAAAAAAAAAAAAAAAAAAAAAAAAAAAAAAAAAAAAAAAAAAAAAAAAAAAAAAAAAAAAAAAAAAAAAAAAAAAAAAAAAAAAAAAAAAAAAAAAAAAAAAAAAAAAAAAAAAAAAAAAAAAAAAAAAAAAAAAAAAAAAAAAAAAAAAAAAAAAAAAAAAAAAAAAAAAAAAAAAAAAAAAAAAAAAAAAAAAAAAAAAAAAAAAAAAAAAAAAAAAAAAAAAAAAAAAAAAAAAAAAAAAAAAAAAAAAAAAAAAAAAAAAAAAAAAAAAAAAAAAAAAAAAAAAAAAAAAAAAAAAAAAAAAAAAAAAAAAAAAAAAAAAAAAAAAAAAAAAAAAAAAAAAAAAAAAAAAAAAAAAAAAAAAAAAAAAAAAAAAAAAAAAAAAAAAAAAAAAAAAAAAAAAAAAAAAAAAAAAAAAAAAAAAAAAAAAAAAAAAAAAAAAAAAAAAAAAAAAAAAAAAAAAAAAAAAAAAAAAAAAAAAAAAAAAAAAAAAAAAAAAAAAAAAAAAAAAAAAAAAAAAAAAAAAAAAAAAAAAAAAAAAAAAAAAAAAAAAAAAAAAAAAAAAAAAAAAAAAAAAAAAAAAAAAAAAAAAAAAAAAAAAAAAAAAAAAAAAAAAAAAAAAAAAAAAAAAAAAAAAAAAAAAAAAAAAAAAAAAAAAAAAAAAAAAAAAAAAAAAAAAAAAAAAAAAAAAAAAAAAAAAAAAAAAAAAAAAAAAAAAAAAAAAAAAAAAAAAAAAAPZYQHoLTzRUTO2RXy/kPZY6n6A/gf0lVCYeZWCzC4T+61S5mNSrABLw/f6KFnS++sk6cFUwVSTpWu5VbW6CVPObl1o=</c2pa:manifest></metadata><defs><linearGradient id="s" x1="0" y1="0" x2="0" y2="1"><stop offset="0" stop-color="#0b1a3a"/><stop offset=".75" stop-color="#2e7fe0"/><stop offset="1" stop-color="#6ba3ef"/></linearGradient><radialGradient id="g"><stop offset="0" stop-color="#a9c8ff" stop-opacity=".95"/><stop offset="1" stop-color="#a9c8ff" stop-opacity="0"/></radialGradient><radialGradient id="v" cx=".5" cy=".5" r=".75"><stop offset=".6" stop-color="#000" stop-opacity="0"/><stop offset="1" stop-color="#000" stop-opacity=".45"/></radialGradient></defs><rect width="1280" height="720" fill="url(#s)"/><circle cx="119" cy="274" r="1.6" fill="#fff" opacity="0.22"/><circle cx="352" cy="231" r="1.6" fill="#fff" opacity="0.79"/><circle cx="1132" cy="185" r="0.4" fill="#fff" opacity="0.76"/><circle cx="1120" cy="198" r="2.2" fill="#fff" opacity="0.69"/><circle cx="434" cy="285" r="1.9" fill="#fff" opacity="0.59"/><circle cx="1007" cy="268" r="0.6" fill="#fff" opacity="0.73"/><circle cx="1076" cy="302" r="1.0" fill="#fff" opacity="0.29"/><circle cx="1141" cy="32" r="2.0" fill="#fff" opacity="0.66"/><circle cx="391" cy="73" r="1.9" fill="#fff" opacity="0.62"/><circle cx="1087" cy="58" r="0.7" fill="#fff" opacity="0.50"/><circle cx="603" cy="46" r="1.9" fill="#fff" opacity="0.40"/><circle cx="372" cy="235" r="1.3" fill="#fff" opacity="0.41"/><circle cx="1066" cy="338" r="1.2" fill="#fff" opacity="0.62"/><circle cx="500" cy="159" r="1.6" fill="#fff" opacity="0.47"/><circle cx="646" cy="271" r="1.9" fill="#fff" opacity="0.52"/><circle cx="590" cy="39" r="1.0" fill="#fff" opacity="0.79"/><circle cx="382" cy="197" r="1.8" fill="#fff" opacity="0.51"/><circle cx="965" cy="201" r="1.4" fill="#fff" opacity="0.65"/><circle cx="470" cy="130" r="1.0" fill="#fff" opacity="0.44"/><circle cx="525" cy="178" r="1.1" fill="#fff" opacity="0.66"/><circle cx="464" cy="6" r="1.9" fill="#fff" opacity="0.56"/><circle cx="305" cy="199" r="1.0" fill="#fff" opacity="0.66"/><circle cx="298" cy="163" r="1.4" fill="#fff" opacity="0.73"/><circle cx="1194" cy="77" r="1.1" fill="#fff" opacity="0.36"/><circle cx="853" cy="66" r="0.8" fill="#fff" opacity="0.64"/><circle cx="338" cy="323" r="1.4" fill="#fff" opacity="0.56"/><circle cx="835" cy="324" r="1.2" fill="#fff" opacity="0.69"/><circle cx="378" cy="173" r="2.1" fill="#fff" opacity="0.23"/><circle cx="493" cy="95" r="1.4" fill="#fff" opacity="0.54"/><circle cx="490" cy="330" r="2.2" fill="#fff" opacity="0.84"/><circle cx="1280" cy="348" r="2.0" fill="#fff" opacity="0.69"/><circle cx="1171" cy="137" r="1.1" fill="#fff" opacity="0.33"/><circle cx="486" cy="252" r="0.9" fill="#fff" opacity="0.41"/><circle cx="325" cy="117" r="2.0" fill="#fff" opacity="0.76"/><circle cx="486" cy="27" r="1.1" fill="#fff" opacity="0.84"/><circle cx="611" cy="332" r="1.6" fill="#fff" opacity="0.68"/><circle cx="31" cy="290" r="0.7" fill="#fff" opacity="0.63"/><circle cx="33" cy="264" r="2.2" fill="#fff" opacity="0.82"/><circle cx="672" cy="217" r="1.4" fill="#fff" opacity="0.31"/><circle cx="177" cy="89" r="1.2" fill="#fff" opacity="0.60"/><circle cx="818" cy="89" r="0.5" fill="#fff" opacity="0.48"/><circle cx="656" cy="51" r="1.5" fill="#fff" opacity="0.72"/><circle cx="1130" cy="46" r="1.6" fill="#fff" opacity="0.63"/><circle cx="334" cy="322" r="1.3" fill="#fff" opacity="0.58"/><circle cx="913" cy="261" r="0.9" fill="#fff" opacity="0.73"/><circle cx="738" cy="341" r="1.0" fill="#fff" opacity="0.45"/><circle cx="1203" cy="35" r="2.1" fill="#fff" opacity="0.49"/><circle cx="911" cy="331" r="2.0" fill="#fff" opacity="0.87"/><circle cx="306" cy="172" r="0.8" fill="#fff" opacity="0.72"/><circle cx="151" cy="299" r="1.1" fill="#fff" opacity="0.38"/><circle cx="1171" cy="235" r="0.5" fill="#fff" opacity="0.44"/><circle cx="257" cy="303" r="1.8" fill="#fff" opacity="0.71"/><circle cx="268" cy="169" r="0.4" fill="#fff" opacity="0.24"/><circle cx="616" cy="55" r="0.5" fill="#fff" opacity="0.86"/><circle cx="911" cy="125" r="1.6" fill="#fff" opacity="0.37"/><circle cx="348" cy="228" r="1.4" fill="#fff" opacity="0.60"/><circle cx="485" cy="104" r="1.8" fill="#fff" opacity="0.47"/><circle cx="485" cy="171" r="1.5" fill="#fff" opacity="0.64"/><circle cx="747" cy="62" r="1.9" fill="#fff" opacity="0.30"/><circle cx="441" cy="176" r="1.4" fill="#fff" opacity="0.33"/><circle cx="223" cy="160" r="1.3" fill="#fff" opacity="0.76"/><circle cx="704" cy="58" r="1.0" fill="#fff" opacity="0.88"/><circle cx="275" cy="312" r="0.4" fill="#fff" opacity="0.75"/><circle cx="572" cy="202" r="1.9" fill="#fff" opacity="0.48"/><circle cx="246" cy="177" r="1.1" fill="#fff" opacity="0.82"/><circle cx="481" cy="323" r="1.8" fill="#fff" opacity="0.65"/><circle cx="630" cy="114" r="2.0" fill="#fff" opacity="0.44"/><circle cx="717" cy="175" r="0.5" fill="#fff" opacity="0.38"/><circle cx="1049" cy="166" r="1.3" fill="#fff" opacity="0.22"/><circle cx="1139" cy="34" r="1.7" fill="#fff" opacity="0.47"/><circle cx="372" cy="200" r="276" fill="url(#g)"/><circle cx="372" cy="200" r="92" fill="#a9c8ff"/><rect x="-20" y="479" width="51" height="261" fill="#1e5195"/><rect x="36" y="541" width="44" height="199" fill="#1e5195"/><rect x="83" y="553" width="98" height="187" fill="#1e5195"/><rect x="189" y="543" width="47" height="197" fill="#1e5195"/><rect x="243" y="536" width="62" height="204" fill="#1e5195"/><rect x="311" y="494" width="47" height="246" fill="#1e5195"/><rect x="360" y="508" width="55" height="232" fill="#1e5195"/><rect x="420" y="467" width="79" height="273" fill="#1e5195"/><rect x="503" y="501" width="88" height="239" fill="#1e5195"/><rect x="594" y="386" width="58" height="354" fill="#1e5195"/><rect x="658" y="536" width="60" height="204" fill="#1e5195"/><rect x="721" y="370" width="83" height="370" fill="#1e5195"/><rect x="807" y="460" width="51" height="280" fill="#1e5195"/><rect x="862" y="425" width="61" height="315" fill="#1e5195"/><rect x="924" y="520" width="40" height="220" fill="#1e5195"/><rect x="969" y="393" width="89" height="347" fill="#1e5195"/><rect x="1065" y="407" width="108" height="333" fill="#1e5195"/><rect x="1177" y="390" width="64" height="350" fill="#1e5195"/><rect x="1247" y="534" width="63" height="206" fill="#1e5195"/><rect x="-20" y="569" width="54" height="141" fill="#15386b"/><rect x="35" y="424" width="67" height="286" fill="#15386b"/><rect x="108" y="477" width="61" height="233" fill="#15386b"/><rect x="173" y="375" width="83" height="335" fill="#15386b"/><rect x="256" y="419" width="88" height="291" fill="#15386b"/><rect x="347" y="461" width="82" height="249" fill="#15386b"/><rect x="437" y="483" width="89" height="227" fill="#15386b"/><rect x="530" y="375" width="81" height="335" fill="#15386b"/><rect x="612" y="494" width="74" height="216" fill="#15386b"/><rect x="694" y="387" width="40" height="323" fill="#15386b"/><rect x="739" y="411" width="66" height="299" fill="#15386b"/><rect x="811" y="564" width="72" height="146" fill="#15386b"/><rect x="891" y="450" width="40" height="260" fill="#15386b"/><rect x="934" y="387" width="57" height="323" fill="#15386b"/><rect x="999" y="544" width="89" height="166" fill="#15386b"/><rect x="1091" y="480" width="51" height="230" fill="#15386b"/><rect x="1143" y="363" width="68" height="347" fill="#15386b"/><rect x="1211" y="558" width="52" height="152" fill="#15386b"/><rect x="1270" y="524" width="89" height="186" fill="#15386b"/><rect x="-20" y="564" width="61" height="116" fill="#0c1f42"/><rect x="10" y="587" width="6" height="8" fill="#a9c8ff" opacity=".85"/><rect x="5" y="592" width="6" height="8" fill="#a9c8ff" opacity=".85"/><rect x="1" y="608" width="6" height="8" fill="#a9c8ff" opacity=".85"/><rect x="4" y="575" width="6" height="8" fill="#a9c8ff" opacity=".85"/><rect x="-1" y="577" width="6" height="8" fill="#a9c8ff" opacity=".85"/><rect x="2" y="610" width="6" height="8" fill="#a9c8ff" opacity=".85"/><rect x="-12" y="607" width="6" height="8" fill="#a9c8ff" opacity=".85"/><rect x="46" y="446" width="62" height="234" fill="#0c1f42"/><rect x="69" y="469" width="6" height="8" fill="#a9c8ff" opacity=".85"/><rect x="78" y="482" width="6" height="8" fill="#a9c8ff" opacity=".85"/><rect x="80" y="548" width="6" height="8" fill="#a9c8ff" opacity=".85"/><rect x="94" y="573" width="6" height="8" fill="#a9c8ff" opacity=".85"/><rect x="78" y="486" width="6" height="8" fill="#a9c8ff" opacity=".85"/><rect x="78" y="511" width="6" height="8" fill="#a9c8ff" opacity=".85"/><rect x="83" y="479" width="6" height="8" fill="#a9c8ff" opacity=".85"/><rect x="82" y="573" width="6" height="8" fill="#a9c8ff" opacity=".85"/><rect x="114" y="443" width="85" height="237" fill="#0c1f42"/><rect x="169" y="559" width="6" height="8" fill="#a9c8ff" opacity=".85"/><rect x="182" y="520" width="6" height="8" fill="#a9c8ff" opacity=".85"/><rect x="142" y="567" width="6" height="8" fill="#a9c8ff" opacity=".85"/><rect x="138" y="539" width="6" height="8" fill="#a9c8ff" opacity=".85"/><rect x="155" y="490" width="6" height="8" fill="#a9c8ff" opacity=".85"/><rect x="185" y="457" width="6" height="8" fill="#a9c8ff" opacity=".85"/><rect x="158" y="567" width="6" height="8" fill="#a9c8ff" opacity=".85"/><rect x="168" y="578" width="6" height="8" fill="#a9c8ff" opacity=".85"/><rect x="200" y="387" width="65" height="293" fill="#0c1f42"/><rect x="221" y="450" width="6" height="8" fill="#a9c8ff" opacity=".85"/><rect x="229" y="466" width="6" height="8" fill="#a9c8ff" opacity=".85"/><rect x="207" y="585" width="6" height="8" fill="#a9c8ff" opacity=".85"/><rect x="267" y="509" width="59" height="171" fill="#0c1f42"/><rect x="284" y="538" width="6" height="8" fill="#a9c8ff" opacity=".85"/><rect x="274" y="577" width="6" height="8" fill="#a9c8ff" opacity=".85"/><rect x="305" y="537" width="6" height="8" fill="#a9c8ff" opacity=".85"/><rect x="303" y="578" width="6" height="8" fill="#a9c8ff" opacity=".85"/><rect x="283" y="543" width="6" height="8" fill="#a9c8ff" opacity=".85"/><rect x="304" y="560" width="6" height="8" fill="#a9c8ff" opacity=".85"/><rect x="296" y="523" width="6" height="8" fill="#a9c8ff" opacity=".85"/><rect x="332" y="559" width="81" height="121" fill="#0c1f42"/><rect x="374" y="602" width="6" height="8" fill="#a9c8ff" opacity=".85"/><rect x="368" y="581" width="6" height="8" fill="#a9c8ff" opacity=".85"/><rect x="374" y="588" width="6" height="8" fill="#a9c8ff" opacity=".85"/><rect x="352" y="572" width="6" height="8" fill="#a9c8ff" opacity=".85"/><rect x="370" y="575" width="6" height="8" fill="#a9c8ff" opacity=".85"/><rect x="420" y="549" width="78" height="131" fill="#0c1f42"/><rect x="472" y="564" width="6" height="8" fill="#a9c8ff" opacity=".85"/><rect x="482" y="559" width="6" height="8" fill="#a9c8ff" opacity=".85"/><rect x="465" y="579" width="6" height="8" fill="#a9c8ff" opacity=".85"/><rect x="428" y="607" width="6" height="8" fill="#a9c8ff" opacity=".85"/><rect x="505" y="552" width="71" height="128" fill="#0c1f42"/><rect x="525" y="592" width="6" height="8" fill="#a9c8ff" opacity=".85"/><rect x="517" y="597" width="6" height="8" fill="#a9c8ff" opacity=".85"/><rect x="514" y="606" width="6" height="8" fill="#a9c8ff" opacity=".85"/><rect x="543" y="606" width="6" height="8" fill="#a9c8ff" opacity=".85"/><rect x="533" y="593" width="6" height="8" fill="#a9c8ff" opacity=".85"/><rect x="551" y="586" width="6" height="8" fill="#a9c8ff" opacity=".85"/><rect x="514" y="586" width="6" height="8" fill="#a9c8ff" opacity=".85"/><rect x="516" y="563" width="6" height="8" fill="#a9c8ff" opacity=".85"/><rect x="525" y="583" width="6" height="8" fill="#a9c8ff" opacity=".85"/><rect x="580" y="505" width="56" height="175" fill="#0c1f42"/><rect x="587" y="524" width="6" height="8" fill="#a9c8ff" opacity=".85"/><rect x="608" y="549" width="6" height="8" fill="#a9c8ff" opacity=".85"/><rect x="619" y="539" width="6" height="8" fill="#a9c8ff" opacity=".85"/><rect x="613" y="558" width="6" height="8" fill="#a9c8ff" opacity=".85"/><rect x="587" y="532" width="6" height="8" fill="#a9c8ff" opacity=".85"/><rect x="590" y="579" width="6" height="8" fill="#a9c8ff" opacity=".85"/><rect x="636" y="536" width="103" height="144" fill="#0c1f42"/><rect x="669" y="574" width="6" height="8" fill="#a9c8ff" opacity=".85"/><rect x="705" y="549" width="6" height="8" fill="#a9c8ff" opacity=".85"/><rect x="672" y="562" width="6" height="8" fill="#a9c8ff" opacity=".85"/><rect x="700" y="588" width="6" height="8" fill="#a9c8ff" opacity=".85"/><rect x="664" y="589" width="6" height="8" fill="#a9c8ff" opacity=".85"/><rect x="708" y="596" width="6" height="8" fill="#a9c8ff" opacity=".85"/><rect x="681" y="580" width="6" height="8" fill="#a9c8ff" opacity=".85"/><rect x="676" y="595" width="6" height="8" fill="#a9c8ff" opacity=".85"/><rect x="717" y="556" width="6" height="8" fill="#a9c8ff" opacity=".85"/><rect x="740" y="505" width="56" height="175" fill="#0c1f42"/><rect x="772" y="576" width="6" height="8" fill="#a9c8ff" opacity=".85"/><rect x="768" y="559" width="6" height="8" fill="#a9c8ff" opacity=".85"/><rect x="782" y="524" width="6" height="8" fill="#a9c8ff" opacity=".85"/><rect x="768" y="539" width="6" height="8" fill="#a9c8ff" opacity=".85"/><rect x="769" y="526" width="6" height="8" fill="#a9c8ff" opacity=".85"/><rect x="779" y="561" width="6" height="8" fill="#a9c8ff" opacity=".85"/><rect x="798" y="442" width="89" height="238" fill="#0c1f42"/><rect x="864" y="505" width="6" height="8" fill="#a9c8ff" opacity=".85"/><rect x="825" y="491" width="6" height="8" fill="#a9c8ff" opacity=".85"/><rect x="832" y="503" width="6" height="8" fill="#a9c8ff" opacity=".85"/><rect x="838" y="474" width="6" height="8" fill="#a9c8ff" opacity=".85"/><rect x="888" y="574" width="107" height="106" fill="#0c1f42"/><rect x="959" y="598" width="6" height="8" fill="#a9c8ff" opacity=".85"/><rect x="950" y="598" width="6" height="8" fill="#a9c8ff" opacity=".85"/><rect x="946" y="602" width="6" height="8" fill="#a9c8ff" opacity=".85"/><rect x="996" y="374" width="69" height="306" fill="#0c1f42"/><rect x="1032" y="396" width="6" height="8" fill="#a9c8ff" opacity=".85"/><rect x="1027" y="595" width="6" height="8" fill="#a9c8ff" opacity=".85"/><rect x="1016" y="446" width="6" height="8" fill="#a9c8ff" opacity=".85"/><rect x="1073" y="372" width="44" height="308" fill="#0c1f42"/><rect x="1084" y="607" width="6" height="8" fill="#a9c8ff" opacity=".85"/><rect x="1085" y="409" width="6" height="8" fill="#a9c8ff" opacity=".85"/><rect x="1100" y="436" width="6" height="8" fill="#a9c8ff" opacity=".85"/><rect x="1080" y="601" width="6" height="8" fill="#a9c8ff" opacity=".85"/><rect x="1089" y="396" width="6" height="8" fill="#a9c8ff" opacity=".85"/><rect x="1096" y="555" width="6" height="8" fill="#a9c8ff" opacity=".85"/><rect x="1101" y="518" width="6" height="8" fill="#a9c8ff" opacity=".85"/><rect x="1082" y="395" width="6" height="8" fill="#a9c8ff" opacity=".85"/><rect x="1095" y="558" width="6" height="8" fill="#a9c8ff" opacity=".85"/><rect x="1117" y="394" width="86" height="286" fill="#0c1f42"/><rect x="1180" y="605" width="6" height="8" fill="#a9c8ff" opacity=".85"/><rect x="1161" y="596" width="6" height="8" fill="#a9c8ff" opacity=".85"/><rect x="1132" y="428" width="6" height="8" fill="#a9c8ff" opacity=".85"/><rect x="1140" y="435" width="6" height="8" fill="#a9c8ff" opacity=".85"/><rect x="1211" y="430" width="78" height="250" fill="#0c1f42"/><rect x="1247" y="464" width="6" height="8" fill="#a9c8ff" opacity=".85"/><rect x="1219" y="440" width="6" height="8" fill="#a9c8ff" opacity=".85"/><rect x="1272" y="497" width="6" height="8" fill="#a9c8ff" opacity=".85"/><rect width="1280" height="720" fill="url(#v)"/></svg>