<svg xmlns="http://www.w3.org/2000/svg" viewBox="0 0 1280 720" preserveAspectRatio="xMidYMid slice" xmlns:c2pa="http://c2pa.org/manifest"><metadata><c2pa:manifest>AAAWgmp1bWIAAAAeanVtZGMycGEAEQAQgAAAqgA4m3EDYzJwYQAAABZcanVtYgAAAEdqdW1kYzJtYQARABCAAACqADibcQN1cm46YzJwYTo1MmQ2YWI1ZS0xMDc2LTQ3ZTgtYTBmYS02M2FlMjMwM2UxZDkAAAADl2p1bWIAAAApanVtZGMyYXMAEQAQgAAAqgA4m3EDYzJwYS5hc3NlcnRpb25zAAAAALxqdW1iAAAARGp1bWRjYm9yABEAEIAAAKoAOJtxE2MycGEuaW5ncmVkaWVudC52MwAAAAAYYzJzaOBgYwMKSDkRtxxXTAw9iz0AAABwY2JvcqNpZGM6Zm9ybWF0bWltYWdlL3N2Zyt4bWxqaW5zdGFuY2VJRHgseG1wOmlpZDpjYzA4OGRkNS1mYzVkLTQ4Y2UtOWE1My04NmMyMzI0NWI1YzhscmVsYXRpb25zaGlwaHBhcmVudE9mAAAB4mp1bWIAAABBanVtZGNib3IAEQAQgAAAqgA4m3ETYzJwYS5hY3Rpb25zLnYyAAAAABhjMnNoIEPk+2+Oh1Zdp0XN6zdi6gAAAZljYm9yomdhY3Rpb25zgqJmYWN0aW9ua2MycGEub3BlbmVkanBhcmFtZXRlcnOha2luZ3JlZGllbnRzgaJjdXJseC1zZWxmI2p1bWJmPWMycGEuYXNzZXJ0aW9ucy9jMnBhLmluZ3JlZGllbnQudjNkaGFzaFggWh8SBSB5oJEhwTNVQjaRyCCM6h11NsdElI2Tww2aRj6kZmFjdGlvbngdY29tLmFudGhyb3BpYy5jbGF1ZGUucHJvdmlkZWRqcGFyYW1ldGVyc6F4H2NvbS5hbnRocm9waWMub3JpZ2luLWNvbmZpZGVuY2VndW5rbm93bmtkZXNjcmlwdGlvbnhmQ2xhdWRlIHByb3ZpZGVkIHRoaXMgZmlsZSBhdCB0aGUgcmVxdWVzdCBvZiBhIHVzZXIgYW5kIG1heSBoYXZlIGNyZWF0ZWQgb3IgbW9kaWZpZWQgdGhlIGZpbGUgY29udGVudHMubXNvZnR3YXJlQWdlbnShZG5hbWVmQ2xhdWRlcmFsbEFjdGlvbnNJbmNsdWRlZPUAAADIanVtYgAAAEBqdW1kY2JvcgARABCAAACqADibcRNjMnBhLmhhc2guZGF0YQAAAAAYYzJzaMC69JHx2XXhtqIt0WaVq5AAAACAY2JvcqVjYWxnZnNoYTI1NmNwYWRNAAAAAAAAAAAAAAAAAGRoYXNoWCCrSAG1NJmcXpXeqilnZytQJuq2825dkes5Yq9CFSZ4gWRuYW1lbmp1bWJmIG1hbmlmZXN0amV4Y2x1c2lvbnOBomVzdGFydBijZmxlbmd0aBkeBAAAAj5qdW1iAAAAJ2p1bWRjMmNsABEAEIAAAKoAOJtxA2MycGEuY2xhaW0udjIAAAACD2Nib3KlY2FsZ2ZzaGEyNTZpc2lnbmF0dXJleE1zZWxmI2p1bWJmPS9jMnBhL3VybjpjMnBhOjUyZDZhYjVlLTEwNzYtNDdlOC1hMGZhLTYzYWUyMzAzZTFkOS9jMnBhLnNpZ25hdHVyZWppbnN0YW5jZUlEeCx4bXA6aWlkOjlhNDM3MzE1LTZmMWQtNDEwYy05MjA0LTRkOGE0NTNiMWRiYnJjcmVhdGVkX2Fzc2VydGlvbnODomN1cmx4LXNlbGYjanVtYmY9YzJwYS5hc3NlcnRpb25zL2MycGEuaW5ncmVkaWVudC52M2RoYXNoWCBaHxIFIHmgkSHBM1VCNpHIIIzqHXU2x0SUjZPDDZpGPqJjdXJseCpzZWxmI2p1bWJmPWMycGEuYXNzZXJ0aW9ucy9jMnBhLmFjdGlvbnMudjJkaGFzaFggNgjIwwoQV3lJCaSkF/e3zKF0YRActvw3sYA4xEfl5Z+iY3VybHgpc2VsZiNqdW1iZj1jMnBhLmFzc2VydGlvbnMvYzJwYS5oYXNoLmRhdGFkaGFzaFggKMiY8D36FM4OMHiI1y+8FmqHDzhdPGMkr4m2Bdo3rOZ0Y2xhaW1fZ2VuZXJhdG9yX2luZm+jZG5hbWVvQW50aHJvcGljIEZpbGVzZ3ZlcnNpb25lMS4wLjBrc3BlY1ZlcnNpb25lMi40LjAAABA4anVtYgAAAChqdW1kYzJjcwARABCAAACqADibcQNjMnBhLnNpZ25hdHVyZQAAABAIY2JvctKEWQISogEmGCFZAgowggIGMIIBjaADAgECAhRA5aAK7sI50L64g/oGQgU9Z1UTADAKBggqhkjOPQQDAzBJMRcwFQYDVQQKEw5BbnRocm9waWMsIFBCQzEuMCwGA1UEAxMlQW50aHJvcGljIENvbnRlbnQgQ3JlZGVudGlhbHMgUm9vdCBDQTAeFw0yNjA4MDcxODQzNTZaFw0yODA4MDYxOTQzNTZaMEQxFzAVBgNVBAoTDkFudGhyb3BpYywgUEJDMSkwJwYDVQQDEyBBbnRocm9waWMgQ2xhdWRlIENvbnRlbnQgU2lnbmluZzBZMBMGByqGSM49AgEGCCqGSM49AwEHA0IABJh6CmvLUBgFFNU0vUKlOVtE6djd17L5SuwX0LemFisBM3dkd/3cyjxFA3Qo5S46fX0/ihY0VZ7mfb9KF703t5OjWDBWMA4GA1UdDwEB/wQEAwIHgDAVBgNVHSUEDjAMBgorBgEEAYPoXgIBMAwGA1UdEwEB/wQCMAAwHwYDVR0jBBgwFoAUzlHiBIFOZFsj+OPEz5o+nMHXXMIwCgYIKoZIzj0EAwMDZwAwZAIwMXMdFJ4BetLLVY7ORuE9noqbbAZOZn/aArXyTwFAZfKrPzxF2vPoJNf1+UCdg1XGAjBwX1zd9WGqYkqmL5SFqw1QySjr1zJfpJM9+1rdDwSPLMOPOjKuiXjoU/pUUeG9RwmhY3BhZFkNngAAAAAAAAAAAAAAAAAAAAAAAAAAAAAAAAAAAAAAAAAAAAAAAAAAAAAAAAAAAAAAAAAAAAAAAAAAAAAAAAAAAAAAAAAAAAAAAAAAAAAAAAAAAAAAAAAAAAAAAAAAAAAAAAAAAAAAAAAAAAAAAAAAAAAAAAAAAAAAAAAAAAAAAAAAAAAAAAAAAAAAAAAAAAAAAAAAAAAAAAAAAAAAAAAAAAAAAAAAAAAAAAAAAAAAAAAAAAAAAAAAAAAAAAAAAAAAAAAAAAAAAAAAAAAAAAAAAAAAAAAAAAAAAAAAAAAAAAAAAAAAAAAAAAAAAAAAAAAAAAAAAAAAAAAAAAAAAAAAAAAAAAAAAAAAAAAAAAAAAAAAAAAAAAAAAAAAAAAAAAAAAAAAAAAAAAAAAAAAAAAAAAAAAAAAAAAAAAAAAAAAAAAAAAAAAAAAAAAAAAAAAAAAAAAAAAAAAAAAAAAAAAAAAAAAAAAAAAAAAAAAAAAAAAAAAAAAAAAAAAAAAAAAAAAAAAAAAAAAAAAAAAAAAAAAAAAAAAAAAAAAAAAAAAAAAAAAAAAAAAAAAAAAAAAAAAAAAAAAAAAAAAAAAAAAAAAAAAAAAAAAAAAAAAAAAAAAAAAAAAAAAAAAAAAAAAAAAAAAAAAAAAAAAAAAAAAAAAAAAAAAAAAAAAAAAAAAAAAAAAAAAAAAAAAAAAAAAAAAAAAAAAAAAAAAAAAAAAAAAAAAAAAAAAAAAAAAAAAAAAAAAAAAAAAAAAAAAAAAAAAAAAAAAAAAAAAAAAAAAAAAAAAAAAAAAAAAAAAAAAAAAAAAAAAAAAAAAAAAAAAAAAAAAAAAAAAAAAAAAAAAAAAAAAAAAAAAAAAAAAAAAAAAAAAAAAAAAAAAAAAAAAAAAAAAAAAAAAAAAAAAAAAAAAAAAAAAAAAAAAAAAAAAAAAAAAAAAAAAAAAAAAAAAAAAAAAAAAAAAAAAAAAAAAAAAAAAAAAAAAAAAAAAAAAAAAAAAAAAAAAAAAAAAAAAAAAAAAAAAAAAAAAAAAAAAAAAAAAAAAAAAAAAAAAAAAAAAAAAAAAAAAAAAAAAAAAAAAAAAAAAAAAAAAAAAAAAAAAAAAAAAAAAAAAAAAAAAAAAAAAAAAAAAAAAAAAAAAAAAAAAAAAAAAAAAAAAAAAAAAAAAAAAAAAAAAAAAAAAAAAAAAAAAAAAAAAAAAAAAAAAAAAAAAAAAAAAAAAAAAAAAAAAAAAAAAAAAAAAAAAAAAAAAAAAAAAAAAAAAAAAAAAAAAAAAAAAAAAAAAAAAAAAAAAAAAAAAAAAAAAAAAAAAAAAAAAAAAAAAAAAAAAAAAAAAAAAAAAAAAAAAAAAAAAAAAAAAAAAAAAAAAAAAAAAAAAAAAAAAAAAAAAAAAAAAAAAAAAAAAAAAAAAAAAAAAAAAAAAAAAAAAAAAAAAAAAAAAAAAAAAAAAAAAAAAAAAAAAAAAAAAAAAAAAAAAAAAAAAAAAAAAAAAAAAAAAAAAAAAAAAAAAAAAAAAAAAAAAAAAAAAAAAAAAAAAAAAAAAAAAAAAAAAAAAAAAAAAAAAAAAAAAAAAAAAAAAAAAAAAAAAAAAAAAAAAAAAAAAAAAAAAAAAAAAAAAAAAAAAAAAAAAAAAAAAAAAAAAAAAAAAAAAAAAAAAAAAAAAAAAAAAAAAAAAAAAAAAAAAAAAAAAAAAAAAAAAAAAAAAAAAAAAAAAAAAAAAAAAAAAAAAAAAAAAAAAAAAAAAAAAAAAAAAAAAAAAAAAAAAAAAAAAAAAAAAAAAAAAAAAAAAAAAAAAAAAAAAAAAAAAAAAAAAAAAAAAAAAAAAAAAAAAAAAAAAAAAAAAAAAAAAAAAAAAAAAAAAAAAAAAAAAAAAAAAAAAAAAAAAAAAAAAAAAAAAAAAAAAAAAAAAAAAAAAAAAAAAAAAAAAAAAAAAAAAAAAAAAAAAAAAAAAAAAAAAAAAAAAAAAAAAAAAAAAAAAAAAAAAAAAAAAAAAAAAAAAAAAAAAAAAAAAAAAAAAAAAAAAAAAAAAAAAAAAAAAAAAAAAAAAAAAAAAAAAAAAAAAAAAAAAAAAAAAAAAAAAAAAAAAAAAAAAAAAAAAAAAAAAAAAAAAAAAAAAAAAAAAAAAAAAAAAAAAAAAAAAAAAAAAAAAAAAAAAAAAAAAAAAAAAAAAAAAAAAAAAAAAAAAAAAAAAAAAAAAAAAAAAAAAAAAAAAAAAAAAAAAAAAAAAAAAAAAAAAAAAAAAAAAAAAAAAAAAAAAAAAAAAAAAAAAAAAAAAAAAAAAAAAAAAAAAAAAAAAAAAAAAAAAAAAAAAAAAAAAAAAAAAAAAAAAAAAAAAAAAAAAAAAAAAAAAAAAAAAAAAAAAAAAAAAAAAAAAAAAAAAAAAAAAAAAAAAAAAAAAAAAAAAAAAAAAAAAAAAAAAAAAAAAAAAAAAAAAAAAAAAAAAAAAAAAAAAAAAAAAAAAAAAAAAAAAAAAAAAAAAAAAAAAAAAAAAAAAAAAAAAAAAAAAAAAAAAAAAAAAAAAAAAAAAAAAAAAAAAAAAAAAAAAAAAAAAAAAAAAAAAAAAAAAAAAAAAAAAAAAAAAAAAAAAAAAAAAAAAAAAAAAAAAAAAAAAAAAAAAAAAAAAAAAAAAAAAAAAAAAAAAAAAAAAAAAAAAAAAAAAAAAAAAAAAAAAAAAAAAAAAAAAAAAAAAAAAAAAAAAAAAAAAAAAAAAAAAAAAAAAAAAAAAAAAAAAAAAAAAAAAAAAAAAAAAAAAAAAAAAAAAAAAAAAAAAAAAAAAAAAAAAAAAAAAAAAAAAAAAAAAAAAAAAAAAAAAAAAAAAAAAAAAAAAAAAAAAAAAAAAAAAAAAAAAAAAAAAAAAAAAAAAAAAAAAAAAAAAAAAAAAAAAAAAAAAAAAAAAAAAAAAAAAAAAAAAAAAAAAAAAAAAAAAAAAAAAAAAAAAAAAAAAAAAAAAAAAAAAAAAAAAAAAAAAAAAAAAAAAAAAAAAAAAAAAAAAAAAAAAAAAAAAAAAAAAAAAAAAAAAAAAAAAAAAAAAAAAAAAAAAAAAAAAAAAAAAAAAAAAAAAAAAAAAAAAAAAAAAAAAAAAAAAAAAAAAAAAAAAAAAAAAAAAAAAAAAAAAAAAAAAAAAAAAAAAAAAAAAAAAAAAAAAAAAAAAAAAAAAAAAAAAAAAAAAAAAAAAAAAAAAAAAAAAAAAAAAAAAAAAAAAAAAAAAAAAAAAAAAAAAAAAAAAAAAAAAAAAAAAAAAAAAAAAAAAAAAAAAAAAAAAAAAAAAAAAAAAAAAAAAAAAAAAAAAAAAAAAAAAAAAAAAAAAAAAAAAAAAAAAAAAAAAAAAAAAAAAAAAAAAAAAAAAAAAAAAAAAAAAAAAAAAAAAAAAAAAAAAAAAAAAAAAAAAAAAAAAAAAAAAAAAAAAAAAAAAAAAAAAAAAAAAAAAAAAAAAAAAAAAAAAAAAAAAAAAAAAAAAAAAAAAAAAAAAAAAAAAAAAAAAAAAAAAAAAAAAAAAAAAAAAAAAAAAAAAAAAAAAAAAAAAAAAAAAAAAAAAAAAAAAAAAAAAAAAAAAAAAAAAAAAAAAAAAAAAAAAAAAAAAAAAAAAAAAAAAAAAAAAAAAAAAAAAAAAAAAAAAAAAAAAAAAAAAAAAAAAAAAAAAAAAAAAAAAAAAAAAAAAAAAAAAAAAAAAAAAAAAAAAAAAAAAAAAAAAAAAAAAAAAAAAAAAAAAAAAAAAAAAAAAAAAAAAAAAAAAAAAAAAAAAAAAAAAAAAAAAAAAAAAAAAAAAAAAAAAAAAAAAAAAAAAAAAAAAAAAAAAAAAAAAAAAAAAAAAAAAAAAAAAAAAAAAAAAAAAAAAAAAAAAAAAAAAAAAAAAAAAAAAAAAAAAAAAAAAAAAAAAAAAAAAAAAAAAAAAAAAAAAAAAAAAAAAAAAAAAAAAAAAAAAAAAAAAAAAAAAAAAAAAAAAAAAAAAAAAAAAAAAAAAAAAAAAAAAAAAAAAAAAAAAAAAAAAAAAAAAAAAAAAAAAAAAAAAAAAAAAAAAAAAAAAAAAAAAAAAAAAAAAAAAAAAAAAAAAAAAAAAAAAAAAAAAAAAAAAAAAAAAAAAAAAAAAAAAAAAAAAAAAAAAAAAAAAAAAAAAAAAAAAAAAAAAAAAAAAAAAAAAAAAAAAAAAAAAAAAAAAAAAAAAAAAAAAAAAAAAAAAAAAAAAAAAAAAAAAAAAAAAAAAAAAAAAAAAAAAAAAAAAAAAAAAAAAAAAAAAAAAAAAAAAAAAAAAAAAAAAAAAAAAAAAAAAAAAAAAAAAAAAAAAAAAAAAAAAAAAAAAAAAAAAAAAAAAAAAAAAAAAAAAAAAAAAAAAAAAAAAAAAAAAAAAAAAAAAAAAAAAAAAAAAAAAAAAAAAAAAAAAAAAAAAAAAAAAAAAAAAAAAAAAAAAAAAAAAAAAAAAAAAAAAAAAAAAAAAAAAAAAAAAAAAAAAAAAAAAAAAAAAAAAAAAAAAAAAAAAAAAAAAAAAAAAAAAAAAAAAAAAAAAAAAAAAAAAAAAAAAAAAAAAAAAAAAAAAAAAAAAAAAAAAAAAAAAAAAAAAAAAAAAAAAAAAAAAAAAAAAAAAAAAAAAAAAAAAAAAAAAAAAAAAAAAAAAAAAAAAAAAAAAAAAAAAAAAAAAAAAAAAAAAAAAAAAAAAAPZYQITHEUdBvrO21+d4pf5jUUH0YyyaHtsxHMsVHuJj6L6A13ZU5/cIfaL8ePdILkBDFpKllADPqxObFhGxNZQ2qBw=</c2pa:manifest></metadata><defs><linearGradient id="s" x1="0" y1="0" x2="0" y2="1"><stop offset="0" stop-color="#0b1a3a"/><stop offset=".75" stop-color="#2e7fe0"/><stop offset="1" stop-color="#6ba3ef"/></linearGradient><radialGradient id="g"><stop offset="0" stop-color="#a9c8ff" stop-opacity=".95"/><stop offset="1" stop-color="#a9c8ff" stop-opacity="0"/></radialGradient><radialGradient id="v" cx=".5" cy=".5" r=".75"><stop offset=".6" stop-color="#000" stop-opacity="0"/><stop offset="1" stop-color="#000" stop-opacity=".45"/></radialGradient></defs><rect width="1280" height="720" fill="url(#s)"/><circle cx="368" cy="310" r="2.0" fill="#fff" opacity="0.74"/><circle cx="483" cy="299" r="0.6" fill="#fff" opacity="0.49"/><circle cx="1236" cy="211" r="0.9" fill="#fff" opacity="0.63"/><circle cx="309" cy="71" r="0.7" fill="#fff" opacity="0.73"/><circle cx="872" cy="341" r="1.1" fill="#fff" opacity="0.62"/><circle cx="688" cy="190" r="0.7" fill="#fff" opacity="0.60"/><circle cx="1210" cy="189" r="1.4" fill="#fff" opacity="0.69"/><circle cx="1005" cy="149" r="0.7" fill="#fff" opacity="0.57"/><circle cx="610" cy="18" r="0.8" fill="#fff" opacity="0.84"/><circle cx="30" cy="80" r="2.2" fill="#fff" opacity="0.47"/><circle cx="1269" cy="214" r="0.4" fill="#fff" opacity="0.45"/><circle cx="202" cy="322" r="1.8" fill="#fff" opacity="0.48"/><circle cx="333" cy="98" r="0.7" fill="#fff" opacity="0.57"/><circle cx="1044" cy="269" r="1.0" fill="#fff" opacity="0.22"/><circle cx="453" cy="344" r="0.9" fill="#fff" opacity="0.87"/><circle cx="1097" cy="168" r="1.7" fill="#fff" opacity="0.21"/><circle cx="289" cy="236" r="1.1" fill="#fff" opacity="0.51"/><circle cx="209" cy="114" r="2.0" fill="#fff" opacity="0.71"/><circle cx="1131" cy="212" r="1.3" fill="#fff" opacity="0.52"/><circle cx="883" cy="306" r="1.9" fill="#fff" opacity="0.86"/><circle cx="697" cy="357" r="1.1" fill="#fff" opacity="0.74"/><circle cx="115" cy="257" r="1.5" fill="#fff" opacity="0.35"/><circle cx="658" cy="14" r="2.1" fill="#fff" opacity="0.55"/><circle cx="901" cy="333" r="2.2" fill="#fff" opacity="0.77"/><circle cx="245" cy="42" r="1.5" fill="#fff" opacity="0.22"/><circle cx="137" cy="185" r="2.0" fill="#fff" opacity="0.33"/><circle cx="924" cy="347" r="1.0" fill="#fff" opacity="0.80"/><circle cx="492" cy="27" r="1.7" fill="#fff" opacity="0.44"/><circle cx="619" cy="268" r="0.8" fill="#fff" opacity="0.36"/><circle cx="968" cy="117" r="2.0" fill="#fff" opacity="0.57"/><circle cx="205" cy="136" r="1.4" fill="#fff" opacity="0.89"/><circle cx="377" cy="83" r="1.0" fill="#fff" opacity="0.56"/><circle cx="1047" cy="297" r="1.0" fill="#fff" opacity="0.74"/><circle cx="1047" cy="156" r="1.4" fill="#fff" opacity="0.79"/><circle cx="622" cy="309" r="0.6" fill="#fff" opacity="0.47"/><circle cx="252" cy="226" r="1.9" fill="#fff" opacity="0.38"/><circle cx="613" cy="217" r="1.0" fill="#fff" opacity="0.77"/><circle cx="935" cy="110" r="1.4" fill="#fff" opacity="0.50"/><circle cx="929" cy="97" r="0.5" fill="#fff" opacity="0.52"/><circle cx="725" cy="156" r="2.0" fill="#fff" opacity="0.88"/><circle cx="946" cy="270" r="1.4" fill="#fff" opacity="0.25"/><circle cx="384" cy="156" r="1.8" fill="#fff" opacity="0.75"/><circle cx="59" cy="190" r="1.5" fill="#fff" opacity="0.71"/><circle cx="778" cy="198" r="0.6" fill="#fff" opacity="0.29"/><circle cx="1146" cy="164" r="1.5" fill="#fff" opacity="0.85"/><circle cx="142" cy="290" r="1.1" fill="#fff" opacity="0.55"/><circle cx="1251" cy="259" r="0.9" fill="#fff" opacity="0.75"/><circle cx="482" cy="223" r="1.7" fill="#fff" opacity="0.40"/><circle cx="970" cy="154" r="1.4" fill="#fff" opacity="0.25"/><circle cx="479" cy="354" r="1.2" fill="#fff" opacity="0.90"/><circle cx="731" cy="327" r="1.7" fill="#fff" opacity="0.65"/><circle cx="1268" cy="104" r="1.8" fill="#fff" opacity="0.73"/><circle cx="336" cy="192" r="0.8" fill="#fff" opacity="0.40"/><circle cx="893" cy="206" r="0.9" fill="#fff" opacity="0.54"/><circle cx="280" cy="249" r="0.8" fill="#fff" opacity="0.57"/><circle cx="626" cy="153" r="2.2" fill="#fff" opacity="0.31"/><circle cx="1171" cy="34" r="1.2" fill="#fff" opacity="0.25"/><circle cx="632" cy="162" r="0.8" fill="#fff" opacity="0.34"/><circle cx="806" cy="231" r="1.3" fill="#fff" opacity="0.47"/><circle cx="823" cy="237" r="0.9" fill="#fff" opacity="0.89"/><circle cx="665" cy="259" r="0.9" fill="#fff" opacity="0.58"/><circle cx="406" cy="85" r="0.9" fill="#fff" opacity="0.77"/><circle cx="1098" cy="94" r="1.9" fill="#fff" opacity="0.31"/><circle cx="401" cy="14" r="1.6" fill="#fff" opacity="0.22"/><circle cx="529" cy="169" r="1.7" fill="#fff" opacity="0.77"/><circle cx="295" cy="65" r="2.1" fill="#fff" opacity="0.28"/><circle cx="491" cy="22" r="0.8" fill="#fff" opacity="0.82"/><circle cx="816" cy="20" r="2.0" fill="#fff" opacity="0.51"/><circle cx="730" cy="184" r="2.1" fill="#fff" opacity="0.35"/><circle cx="809" cy="265" r="0.6" fill="#fff" opacity="0.39"/><circle cx="728" cy="215" r="225" fill="url(#g)"/><circle cx="728" cy="215" r="75" fill="#a9c8ff"/><rect x="-20" y="383" width="104" height="357" fill="#1e5195"/><rect x="86" y="387" width="82" height="353" fill="#1e5195"/><rect x="170" y="518" width="79" height="222" fill="#1e5195"/><rect x="257" y="519" width="74" height="221" fill="#1e5195"/><rect x="335" y="534" width="42" height="206" fill="#1e5195"/><rect x="385" y="352" width="100" height="388" fill="#1e5195"/><rect x="485" y="433" width="107" height="307" fill="#1e5195"/><rect x="598" y="422" width="96" height="318" fill="#1e5195"/><rect x="696" y="533" width="85" height="207" fill="#1e5195"/><rect x="788" y="434" width="75" height="306" fill="#1e5195"/><rect x="868" y="515" width="101" height="225" fill="#1e5195"/><rect x="972" y="546" width="45" height="194" fill="#1e5195"/><rect x="1018" y="372" width="58" height="368" fill="#1e5195"/><rect x="1080" y="479" width="62" height="261" fill="#1e5195"/><rect x="1149" y="500" width="45" height="240" fill="#1e5195"/><rect x="1197" y="503" width="65" height="237" fill="#1e5195"/><rect x="1266" y="488" width="72" height="252" fill="#1e5195"/><rect x="-20" y="396" width="60" height="314" fill="#15386b"/><rect x="44" y="511" width="60" height="199" fill="#15386b"/><rect x="112" y="547" width="47" height="163" fill="#15386b"/><rect x="167" y="382" width="58" height="328" fill="#15386b"/><rect x="233" y="448" width="107" height="262" fill="#15386b"/><rect x="348" y="436" width="101" height="274" fill="#15386b"/><rect x="451" y="528" width="109" height="182" fill="#15386b"/><rect x="566" y="413" width="90" height="297" fill="#15386b"/><rect x="656" y="388" width="40" height="322" fill="#15386b"/><rect x="703" y="483" width="69" height="227" fill="#15386b"/><rect x="776" y="420" width="101" height="290" fill="#15386b"/><rect x="877" y="396" width="99" height="314" fill="#15386b"/><rect x="984" y="555" width="68" height="155" fill="#15386b"/><rect x="1056" y="362" width="51" height="348" fill="#15386b"/><rect x="1107" y="478" width="96" height="232" fill="#15386b"/><rect x="1210" y="362" width="102" height="348" fill="#15386b"/><rect x="-20" y="381" width="68" height="299" fill="#0c1f42"/><rect x="-13" y="400" width="6" height="8" fill="#a9c8ff" opacity=".85"/><rect x="10" y="458" width="6" height="8" fill="#a9c8ff" opacity=".85"/><rect x="-9" y="505" width="6" height="8" fill="#a9c8ff" opacity=".85"/><rect x="33" y="460" width="6" height="8" fill="#a9c8ff" opacity=".85"/><rect x="-12" y="507" width="6" height="8" fill="#a9c8ff" opacity=".85"/><rect x="3" y="455" width="6" height="8" fill="#a9c8ff" opacity=".85"/><rect x="-2" y="452" width="6" height="8" fill="#a9c8ff" opacity=".85"/><rect x="48" y="500" width="76" height="180" fill="#0c1f42"/><rect x="102" y="530" width="6" height="8" fill="#a9c8ff" opacity=".85"/><rect x="62" y="523" width="6" height="8" fill="#a9c8ff" opacity=".85"/><rect x="85" y="564" width="6" height="8" fill="#a9c8ff" opacity=".85"/><rect x="103" y="516" width="6" height="8" fill="#a9c8ff" opacity=".85"/><rect x="86" y="539" width="6" height="8" fill="#a9c8ff" opacity=".85"/><rect x="62" y="586" width="6" height="8" fill="#a9c8ff" opacity=".85"/><rect x="70" y="582" width="6" height="8" fill="#a9c8ff" opacity=".85"/><rect x="73" y="583" width="6" height="8" fill="#a9c8ff" opacity=".85"/><rect x="132" y="452" width="85" height="228" fill="#0c1f42"/><rect x="160" y="605" width="6" height="8" fill="#a9c8ff" opacity=".85"/><rect x="164" y="466" width="6" height="8" fill="#a9c8ff" opacity=".85"/><rect x="160" y="514" width="6" height="8" fill="#a9c8ff" opacity=".85"/><rect x="194" y="538" width="6" height="8" fill="#a9c8ff" opacity=".85"/><rect x="147" y="599" width="6" height="8" fill="#a9c8ff" opacity=".85"/><rect x="171" y="538" width="6" height="8" fill="#a9c8ff" opacity=".85"/><rect x="152" y="579" width="6" height="8" fill="#a9c8ff" opacity=".85"/><rect x="163" y="579" width="6" height="8" fill="#a9c8ff" opacity=".85"/><rect x="219" y="418" width="45" height="262" fill="#0c1f42"/><rect x="248" y="529" width="6" height="8" fill="#a9c8ff" opacity=".85"/><rect x="234" y="572" width="6" height="8" fill="#a9c8ff" opacity=".85"/><rect x="225" y="449" width="6" height="8" fill="#a9c8ff" opacity=".85"/><rect x="250" y="535" width="6" height="8" fill="#a9c8ff" opacity=".85"/><rect x="267" y="434" width="101" height="246" fill="#0c1f42"/><rect x="326" y="537" width="6" height="8" fill="#a9c8ff" opacity=".85"/><rect x="314" y="575" width="6" height="8" fill="#a9c8ff" opacity=".85"/><rect x="285" y="498" width="6" height="8" fill="#a9c8ff" opacity=".85"/><rect x="376" y="419" width="87" height="261" fill="#0c1f42"/><rect x="410" y="434" width="6" height="8" fill="#a9c8ff" opacity=".85"/><rect x="432" y="505" width="6" height="8" fill="#a9c8ff" opacity=".85"/><rect x="399" y="562" width="6" height="8" fill="#a9c8ff" opacity=".85"/><rect x="423" y="602" width="6" height="8" fill="#a9c8ff" opacity=".85"/><rect x="424" y="564" width="6" height="8" fill="#a9c8ff" opacity=".85"/><rect x="448" y="557" width="6" height="8" fill="#a9c8ff" opacity=".85"/><rect x="424" y="504" width="6" height="8" fill="#a9c8ff" opacity=".85"/><rect x="402" y="466" width="6" height="8" fill="#a9c8ff" opacity=".85"/><rect x="471" y="458" width="45" height="222" fill="#0c1f42"/><rect x="477" y="592" width="6" height="8" fill="#a9c8ff" opacity=".85"/><rect x="481" y="534" width="6" height="8" fill="#a9c8ff" opacity=".85"/><rect x="486" y="538" width="6" height="8" fill="#a9c8ff" opacity=".85"/><rect x="522" y="422" width="106" height="258" fill="#0c1f42"/><rect x="549" y="555" width="6" height="8" fill="#a9c8ff" opacity=".85"/><rect x="539" y="521" width="6" height="8" fill="#a9c8ff" opacity=".85"/><rect x="546" y="493" width="6" height="8" fill="#a9c8ff" opacity=".85"/><rect x="629" y="371" width="50" height="309" fill="#0c1f42"/><rect x="657" y="427" width="6" height="8" fill="#a9c8ff" opacity=".85"/><rect x="654" y="608" width="6" height="8" fill="#a9c8ff" opacity=".85"/><rect x="656" y="595" width="6" height="8" fill="#a9c8ff" opacity=".85"/><rect x="657" y="609" width="6" height="8" fill="#a9c8ff" opacity=".85"/><rect x="658" y="496" width="6" height="8" fill="#a9c8ff" opacity=".85"/><rect x="638" y="430" width="6" height="8" fill="#a9c8ff" opacity=".85"/><rect x="659" y="470" width="6" height="8" fill="#a9c8ff" opacity=".85"/><rect x="638" y="541" width="6" height="8" fill="#a9c8ff" opacity=".85"/><rect x="659" y="391" width="6" height="8" fill="#a9c8ff" opacity=".85"/><rect x="683" y="525" width="74" height="155" fill="#0c1f42"/><rect x="693" y="590" width="6" height="8" fill="#a9c8ff" opacity=".85"/><rect x="722" y="550" width="6" height="8" fill="#a9c8ff" opacity=".85"/><rect x="738" y="609" width="6" height="8" fill="#a9c8ff" opacity=".85"/><rect x="718" y="608" width="6" height="8" fill="#a9c8ff" opacity=".85"/><rect x="739" y="604" width="6" height="8" fill="#a9c8ff" opacity=".85"/><rect x="712" y="564" width="6" height="8" fill="#a9c8ff" opacity=".85"/><rect x="738" y="560" width="6" height="8" fill="#a9c8ff" opacity=".85"/><rect x="710" y="535" width="6" height="8" fill="#a9c8ff" opacity=".85"/><rect x="738" y="610" width="6" height="8" fill="#a9c8ff" opacity=".85"/><rect x="758" y="412" width="44" height="268" fill="#0c1f42"/><rect x="768" y="544" width="6" height="8" fill="#a9c8ff" opacity=".85"/><rect x="764" y="514" width="6" height="8" fill="#a9c8ff" opacity=".85"/><rect x="773" y="527" width="6" height="8" fill="#a9c8ff" opacity=".85"/><rect x="773" y="431" width="6" height="8" fill="#a9c8ff" opacity=".85"/><rect x="770" y="448" width="6" height="8" fill="#a9c8ff" opacity=".85"/><rect x="767" y="542" width="6" height="8" fill="#a9c8ff" opacity=".85"/><rect x="810" y="480" width="50" height="200" fill="#0c1f42"/><rect x="818" y="579" width="6" height="8" fill="#a9c8ff" opacity=".85"/><rect x="833" y="530" width="6" height="8" fill="#a9c8ff" opacity=".85"/><rect x="828" y="580" width="6" height="8" fill="#a9c8ff" opacity=".85"/><rect x="817" y="501" width="6" height="8" fill="#a9c8ff" opacity=".85"/><rect x="825" y="548" width="6" height="8" fill="#a9c8ff" opacity=".85"/><rect x="866" y="555" width="53" height="125" fill="#0c1f42"/><rect x="892" y="607" width="6" height="8" fill="#a9c8ff" opacity=".85"/><rect x="877" y="592" width="6" height="8" fill="#a9c8ff" opacity=".85"/><rect x="875" y="574" width="6" height="8" fill="#a9c8ff" opacity=".85"/><rect x="899" y="586" width="6" height="8" fill="#a9c8ff" opacity=".85"/><rect x="880" y="584" width="6" height="8" fill="#a9c8ff" opacity=".85"/><rect x="885" y="601" width="6" height="8" fill="#a9c8ff" opacity=".85"/><rect x="898" y="567" width="6" height="8" fill="#a9c8ff" opacity=".85"/><rect x="886" y="603" width="6" height="8" fill="#a9c8ff" opacity=".85"/><rect x="919" y="516" width="81" height="164" fill="#0c1f42"/><rect x="931" y="606" width="6" height="8" fill="#a9c8ff" opacity=".85"/><rect x="962" y="532" width="6" height="8" fill="#a9c8ff" opacity=".85"/><rect x="983" y="581" width="6" height="8" fill="#a9c8ff" opacity=".85"/><rect x="985" y="594" width="6" height="8" fill="#a9c8ff" opacity=".85"/><rect x="984" y="536" width="6" height="8" fill="#a9c8ff" opacity=".85"/><rect x="1004" y="473" width="50" height="207" fill="#0c1f42"/><rect x="1025" y="575" width="6" height="8" fill="#a9c8ff" opacity=".85"/><rect x="1011" y="572" width="6" height="8" fill="#a9c8ff" opacity=".85"/><rect x="1014" y="498" width="6" height="8" fill="#a9c8ff" opacity=".85"/><rect x="1026" y="499" width="6" height="8" fill="#a9c8ff" opacity=".85"/><rect x="1021" y="570" width="6" height="8" fill="#a9c8ff" opacity=".85"/><rect x="1026" y="546" width="6" height="8" fill="#a9c8ff" opacity=".85"/><rect x="1010" y="565" width="6" height="8" fill="#a9c8ff" opacity=".85"/><rect x="1059" y="560" width="48" height="120" fill="#0c1f42"/><rect x="1073" y="572" width="6" height="8" fill="#a9c8ff" opacity=".85"/><rect x="1079" y="589" width="6" height="8" fill="#a9c8ff" opacity=".85"/><rect x="1067" y="592" width="6" height="8" fill="#a9c8ff" opacity=".85"/><rect x="1065" y="592" width="6" height="8" fill="#a9c8ff" opacity=".85"/><rect x="1070" y="608" width="6" height="8" fill="#a9c8ff" opacity=".85"/><rect x="1111" y="429" width="40" height="251" fill="#0c1f42"/><rect x="1123" y="524" width="6" height="8" fill="#a9c8ff" opacity=".85"/><rect x="1123" y="557" width="6" height="8" fill="#a9c8ff" opacity=".85"/><rect x="1123" y="530" width="6" height="8" fill="#a9c8ff" opacity=".85"/><rect x="1123" y="476" width="6" height="8" fill="#a9c8ff" opacity=".85"/><rect x="1123" y="480" width="6" height="8" fill="#a9c8ff" opacity=".85"/><rect x="1120" y="563" width="6" height="8" fill="#a9c8ff" opacity=".85"/><rect x="1159" y="423" width="50" height="257" fill="#0c1f42"/><rect x="1165" y="610" width="6" height="8" fill="#a9c8ff" opacity=".85"/><rect x="1182" y="501" width="6" height="8" fill="#a9c8ff" opacity=".85"/><rect x="1176" y="572" width="6" height="8" fill="#a9c8ff" opacity=".85"/><rect x="1173" y="491" width="6" height="8" fill="#a9c8ff" opacity=".85"/><rect x="1182" y="543" width="6" height="8" fill="#a9c8ff" opacity=".85"/><rect x="1171" y="606" width="6" height="8" fill="#a9c8ff" opacity=".85"/><rect x="1195" y="463" width="6" height="8" fill="#a9c8ff" opacity=".85"/><rect x="1169" y="464" width="6" height="8" fill="#a9c8ff" opacity=".85"/><rect x="1212" y="456" width="87" height="224" fill="#0c1f42"/><rect x="1239" y="595" width="6" height="8" fill="#a9c8ff" opacity=".85"/><rect x="1284" y="592" width="6" height="8" fill="#a9c8ff" opacity=".85"/><rect x="1247" y="467" width="6" height="8" fill="#a9c8ff" opacity=".85"/><rect x="1274" y="571" width="6" height="8" fill="#a9c8ff" opacity=".85"/><rect x="1259" y="550" width="6" height="8" fill="#a9c8ff" opacity=".85"/><rect x="1244" y="520" width="6" height="8" fill="#a9c8ff" opacity=".85"/><rect x="1263" y="480" width="6" height="8" fill="#a9c8ff" opacity=".85"/><rect x="1257" y="571" width="6" height="8" fill="#a9c8ff" opacity=".85"/><rect width="1280" height="720" fill="url(#v)"/></svg>