<svg xmlns="http://www.w3.org/2000/svg" viewBox="0 0 1280 720" preserveAspectRatio="xMidYMid slice" xmlns:c2pa="http://c2pa.org/manifest"><metadata><c2pa:manifest>AAAWgmp1bWIAAAAeanVtZGMycGEAEQAQgAAAqgA4m3EDYzJwYQAAABZcanVtYgAAAEdqdW1kYzJtYQARABCAAACqADibcQN1cm46YzJwYToyM2FhMWFjZC03ZmMzLTQzZTAtODNmOS0zNzIzMDVlZWRhM2MAAAADl2p1bWIAAAApanVtZGMyYXMAEQAQgAAAqgA4m3EDYzJwYS5hc3NlcnRpb25zAAAAALxqdW1iAAAARGp1bWRjYm9yABEAEIAAAKoAOJtxE2MycGEuaW5ncmVkaWVudC52MwAAAAAYYzJzaHLokpTzoZvrwlrD8AWlfsQAAABwY2JvcqNpZGM6Zm9ybWF0bWltYWdlL3N2Zyt4bWxqaW5zdGFuY2VJRHgseG1wOmlpZDo0N2M1ZmNhOC1hNmQwLTQwNjQtOTYzYS1hMzYxNjY1ZDQ5NmRscmVsYXRpb25zaGlwaHBhcmVudE9mAAAB4mp1bWIAAABBanVtZGNib3IAEQAQgAAAqgA4m3ETYzJwYS5hY3Rpb25zLnYyAAAAABhjMnNoP+UtpzTn5v6KHlYDdQQooQAAAZljYm9yomdhY3Rpb25zgqJmYWN0aW9ua2MycGEub3BlbmVkanBhcmFtZXRlcnOha2luZ3JlZGllbnRzgaJjdXJseC1zZWxmI2p1bWJmPWMycGEuYXNzZXJ0aW9ucy9jMnBhLmluZ3JlZGllbnQudjNkaGFzaFggdwTRXU823xOa/RMH4qoWpHq8/jv5dKkcfklN4NweBpOkZmFjdGlvbngdY29tLmFudGhyb3BpYy5jbGF1ZGUucHJvdmlkZWRqcGFyYW1ldGVyc6F4H2NvbS5hbnRocm9waWMub3JpZ2luLWNvbmZpZGVuY2VndW5rbm93bmtkZXNjcmlwdGlvbnhmQ2xhdWRlIHByb3ZpZGVkIHRoaXMgZmlsZSBhdCB0aGUgcmVxdWVzdCBvZiBhIHVzZXIgYW5kIG1heSBoYXZlIGNyZWF0ZWQgb3IgbW9kaWZpZWQgdGhlIGZpbGUgY29udGVudHMubXNvZnR3YXJlQWdlbnShZG5hbWVmQ2xhdWRlcmFsbEFjdGlvbnNJbmNsdWRlZPUAAADIanVtYgAAAEBqdW1kY2JvcgARABCAAACqADibcRNjMnBhLmhhc2guZGF0YQAAAAAYYzJzaPrl+Edg355JssEFO02BbfsAAACAY2JvcqVjYWxnZnNoYTI1NmNwYWRNAAAAAAAAAAAAAAAAAGRoYXNoWCCcMfM+gZ7NLCPzyiePp7Pgl7unLwm+ONwn9tWKlVKXFGRuYW1lbmp1bWJmIG1hbmlmZXN0amV4Y2x1c2lvbnOBomVzdGFydBijZmxlbmd0aBkeBAAAAj5qdW1iAAAAJ2p1bWRjMmNsABEAEIAAAKoAOJtxA2MycGEuY2xhaW0udjIAAAACD2Nib3KlY2FsZ2ZzaGEyNTZpc2lnbmF0dXJleE1zZWxmI2p1bWJmPS9jMnBhL3VybjpjMnBhOjIzYWExYWNkLTdmYzMtNDNlMC04M2Y5LTM3MjMwNWVlZGEzYy9jMnBhLnNpZ25hdHVyZWppbnN0YW5jZUlEeCx4bXA6aWlkOjc3MjA2M2E1LTBjMTItNDNmMy1iM2RhLTM5ZjA0YjE4YjdjMXJjcmVhdGVkX2Fzc2VydGlvbnODomN1cmx4LXNlbGYjanVtYmY9YzJwYS5hc3NlcnRpb25zL2MycGEuaW5ncmVkaWVudC52M2RoYXNoWCB3BNFdTzbfE5r9Ewfiqhakerz+O/l0qRx+SU3g3B4Gk6JjdXJseCpzZWxmI2p1bWJmPWMycGEuYXNzZXJ0aW9ucy9jMnBhLmFjdGlvbnMudjJkaGFzaFggCa8vJg8F9A/QcWKVsjpIiPjYYVdC2/4R9RWBtm0o5XeiY3VybHgpc2VsZiNqdW1iZj1jMnBhLmFzc2VydGlvbnMvYzJwYS5oYXNoLmRhdGFkaGFzaFggWtQgTcjs1+m4sdx3pLsoSYZq8tXy8P/XpYbp5XX4P3R0Y2xhaW1fZ2VuZXJhdG9yX2luZm+jZG5hbWVvQW50aHJvcGljIEZpbGVzZ3ZlcnNpb25lMS4wLjBrc3BlY1ZlcnNpb25lMi40LjAAABA4anVtYgAAAChqdW1kYzJjcwARABCAAACqADibcQNjMnBhLnNpZ25hdHVyZQAAABAIY2JvctKEWQISogEmGCFZAgowggIGMIIBjaADAgECAhRA5aAK7sI50L64g/oGQgU9Z1UTADAKBggqhkjOPQQDAzBJMRcwFQYDVQQKEw5BbnRocm9waWMsIFBCQzEuMCwGA1UEAxMlQW50aHJvcGljIENvbnRlbnQgQ3JlZGVudGlhbHMgUm9vdCBDQTAeFw0yNjA4MDcxODQzNTZaFw0yODA4MDYxOTQzNTZaMEQxFzAVBgNVBAoTDkFudGhyb3BpYywgUEJDMSkwJwYDVQQDEyBBbnRocm9waWMgQ2xhdWRlIENvbnRlbnQgU2lnbmluZzBZMBMGByqGSM49AgEGCCqGSM49AwEHA0IABJh6CmvLUBgFFNU0vUKlOVtE6djd17L5SuwX0LemFisBM3dkd/3cyjxFA3Qo5S46fX0/ihY0VZ7mfb9KF703t5OjWDBWMA4GA1UdDwEB/wQEAwIHgDAVBgNVHSUEDjAMBgorBgEEAYPoXgIBMAwGA1UdEwEB/wQCMAAwHwYDVR0jBBgwFoAUzlHiBIFOZFsj+OPEz5o+nMHXXMIwCgYIKoZIzj0EAwMDZwAwZAIwMXMdFJ4BetLLVY7ORuE9noqbbAZOZn/aArXyTwFAZfKrPzxF2vPoJNf1+UCdg1XGAjBwX1zd9WGqYkqmL5SFqw1QySjr1zJfpJM9+1rdDwSPLMOPOjKuiXjoU/pUUeG9RwmhY3BhZFkNngAAAAAAAAAAAAAAAAAAAAAAAAAAAAAAAAAAAAAAAAAAAAAAAAAAAAAAAAAAAAAAAAAAAAAAAAAAAAAAAAAAAAAAAAAAAAAAAAAAAAAAAAAAAAAAAAAAAAAAAAAAAAAAAAAAAAAAAAAAAAAAAAAAAAAAAAAAAAAAAAAAAAAAAAAAAAAAAAAAAAAAAAAAAAAAAAAAAAAAAAAAAAAAAAAAAAAAAAAAAAAAAAAAAAAAAAAAAAAAAAAAAAAAAAAAAAAAAAAAAAAAAAAAAAAAAAAAAAAAAAAAAAAAAAAAAAAAAAAAAAAAAAAAAAAAAAAAAAAAAAAAAAAAAAAAAAAAAAAAAAAAAAAAAAAAAAAAAAAAAAAAAAAAAAAAAAAAAAAAAAAAAAAAAAAAAAAAAAAAAAAAAAAAAAAAAAAAAAAAAAAAAAAAAAAAAAAAAAAAAAAAAAAAAAAAAAAAAAAAAAAAAAAAAAAAAAAAAAAAAAAAAAAAAAAAAAAAAAAAAAAAAAAAAAAAAAAAAAAAAAAAAAAAAAAAAAAAAAAAAAAAAAAAAAAAAAAAAAAAAAAAAAAAAAAAAAAAAAAAAAAAAAAAAAAAAAAAAAAAAAAAAAAAAAAAAAAAAAAAAAAAAAAAAAAAAAAAAAAAAAAAAAAAAAAAAAAAAAAAAAAAAAAAAAAAAAAAAAAAAAAAAAAAAAAAAAAAAAAAAAAAAAAAAAAAAAAAAAAAAAAAAAAAAAAAAAAAAAAAAAAAAAAAAAAAAAAAAAAAAAAAAAAAAAAAAAAAAAAAAAAAAAAAAAAAAAAAAAAAAAAAAAAAAAAAAAAAAAAAAAAAAAAAAAAAAAAAAAAAAAAAAAAAAAAAAAAAAAAAAAAAAAAAAAAAAAAAAAAAAAAAAAAAAAAAAAAAAAAAAAAAAAAAAAAAAAAAAAAAAAAAAAAAAAAAAAAAAAAAAAAAAAAAAAAAAAAAAAAAAAAAAAAAAAAAAAAAAAAAAAAAAAAAAAAAAAAAAAAAAAAAAAAAAAAAAAAAAAAAAAAAAAAAAAAAAAAAAAAAAAAAAAAAAAAAAAAAAAAAAAAAAAAAAAAAAAAAAAAAAAAAAAAAAAAAAAAAAAAAAAAAAAAAAAAAAAAAAAAAAAAAAAAAAAAAAAAAAAAAAAAAAAAAAAAAAAAAAAAAAAAAAAAAAAAAAAAAAAAAAAAAAAAAAAAAAAAAAAAAAAAAAAAAAAAAAAAAAAAAAAAAAAAAAAAAAAAAAAAAAAAAAAAAAAAAAAAAAAAAAAAAAAAAAAAAAAAAAAAAAAAAAAAAAAAAAAAAAAAAAAAAAAAAAAAAAAAAAAAAAAAAAAAAAAAAAAAAAAAAAAAAAAAAAAAAAAAAAAAAAAAAAAAAAAAAAAAAAAAAAAAAAAAAAAAAAAAAAAAAAAAAAAAAAAAAAAAAAAAAAAAAAAAAAAAAAAAAAAAAAAAAAAAAAAAAAAAAAAAAAAAAAAAAAAAAAAAAAAAAAAAAAAAAAAAAAAAAAAAAAAAAAAAAAAAAAAAAAAAAAAAAAAAAAAAAAAAAAAAAAAAAAAAAAAAAAAAAAAAAAAAAAAAAAAAAAAAAAAAAAAAAAAAAAAAAAAAAAAAAAAAAAAAAAAAAAAAAAAAAAAAAAAAAAAAAAAAAAAAAAAAAAAAAAAAAAAAAAAAAAAAAAAAAAAAAAAAAAAAAAAAAAAAAAAAAAAAAAAAAAAAAAAAAAAAAAAAAAAAAAAAAAAAAAAAAAAAAAAAAAAAAAAAAAAAAAAAAAAAAAAAAAAAAAAAAAAAAAAAAAAAAAAAAAAAAAAAAAAAAAAAAAAAAAAAAAAAAAAAAAAAAAAAAAAAAAAAAAAAAAAAAAAAAAAAAAAAAAAAAAAAAAAAAAAAAAAAAAAAAAAAAAAAAAAAAAAAAAAAAAAAAAAAAAAAAAAAAAAAAAAAAAAAAAAAAAAAAAAAAAAAAAAAAAAAAAAAAAAAAAAAAAAAAAAAAAAAAAAAAAAAAAAAAAAAAAAAAAAAAAAAAAAAAAAAAAAAAAAAAAAAAAAAAAAAAAAAAAAAAAAAAAAAAAAAAAAAAAAAAAAAAAAAAAAAAAAAAAAAAAAAAAAAAAAAAAAAAAAAAAAAAAAAAAAAAAAAAAAAAAAAAAAAAAAAAAAAAAAAAAAAAAAAAAAAAAAAAAAAAAAAAAAAAAAAAAAAAAAAAAAAAAAAAAAAAAAAAAAAAAAAAAAAAAAAAAAAAAAAAAAAAAAAAAAAAAAAAAAAAAAAAAAAAAAAAAAAAAAAAAAAAAAAAAAAAAAAAAAAAAAAAAAAAAAAAAAAAAAAAAAAAAAAAAAAAAAAAAAAAAAAAAAAAAAAAAAAAAAAAAAAAAAAAAAAAAAAAAAAAAAAAAAAAAAAAAAAAAAAAAAAAAAAAAAAAAAAAAAAAAAAAAAAAAAAAAAAAAAAAAAAAAAAAAAAAAAAAAAAAAAAAAAAAAAAAAAAAAAAAAAAAAAAAAAAAAAAAAAAAAAAAAAAAAAAAAAAAAAAAAAAAAAAAAAAAAAAAAAAAAAAAAAAAAAAAAAAAAAAAAAAAAAAAAAAAAAAAAAAAAAAAAAAAAAAAAAAAAAAAAAAAAAAAAAAAAAAAAAAAAAAAAAAAAAAAAAAAAAAAAAAAAAAAAAAAAAAAAAAAAAAAAAAAAAAAAAAAAAAAAAAAAAAAAAAAAAAAAAAAAAAAAAAAAAAAAAAAAAAAAAAAAAAAAAAAAAAAAAAAAAAAAAAAAAAAAAAAAAAAAAAAAAAAAAAAAAAAAAAAAAAAAAAAAAAAAAAAAAAAAAAAAAAAAAAAAAAAAAAAAAAAAAAAAAAAAAAAAAAAAAAAAAAAAAAAAAAAAAAAAAAAAAAAAAAAAAAAAAAAAAAAAAAAAAAAAAAAAAAAAAAAAAAAAAAAAAAAAAAAAAAAAAAAAAAAAAAAAAAAAAAAAAAAAAAAAAAAAAAAAAAAAAAAAAAAAAAAAAAAAAAAAAAAAAAAAAAAAAAAAAAAAAAAAAAAAAAAAAAAAAAAAAAAAAAAAAAAAAAAAAAAAAAAAAAAAAAAAAAAAAAAAAAAAAAAAAAAAAAAAAAAAAAAAAAAAAAAAAAAAAAAAAAAAAAAAAAAAAAAAAAAAAAAAAAAAAAAAAAAAAAAAAAAAAAAAAAAAAAAAAAAAAAAAAAAAAAAAAAAAAAAAAAAAAAAAAAAAAAAAAAAAAAAAAAAAAAAAAAAAAAAAAAAAAAAAAAAAAAAAAAAAAAAAAAAAAAAAAAAAAAAAAAAAAAAAAAAAAAAAAAAAAAAAAAAAAAAAAAAAAAAAAAAAAAAAAAAAAAAAAAAAAAAAAAAAAAAAAAAAAAAAAAAAAAAAAAAAAAAAAAAAAAAAAAAAAAAAAAAAAAAAAAAAAAAAAAAAAAAAAAAAAAAAAAAAAAAAAAAAAAAAAAAAAAAAAAAAAAAAAAAAAAAAAAAAAAAAAAAAAAAAAAAAAAAAAAAAAAAAAAAAAAAAAAAAAAAAAAAAAAAAAAAAAAAAAAAAAAAAAAAAAAAAAAAAAAAAAAAAAAAAAAAAAAAAAAAAAAAAAAAAAAAAAAAAAAAAAAAAAAAAAAAAAAAAAAAAAAAAAAAAAAAAAAAAAAAAAAAAAAAAAAAAAAAAAAAAAAAAAAAAAAAAAAAAAAAAAAAAAAAAAAAAAAAAAAAAAAAAAAAAAAAAAAAAAAAAAAAAAAAAAAAAAAAAAAAAAAAAAAAAAAAAAAAAAAAAAAAAAAAAAAAAAAAAAAAAAAAAAAAAAAAAAAAAAAAAAAAAAAAAAAAAAAAAAAAAAAAAAAAAAAAAAAAAAAAAAAAAAAAAAAAAAAAAAAAAAAAAAAAAAAAAAAAAAAAAAAAAAAAAAAAAAAAAAAAAAAAAAAAAAAAAAAAAAAAAAAAAAAAAAAAAAAAAAAAAAAAAAAAAAAAAAAAAAAAAAAAAAAAAAAAAAAAAAAAAAAAAAAAAAAAAAAAAAAAAAAAAAAAAAAAAAAAAAAAAAAAAAAAAAAAAAAAAAAAAAAAAAAAAAAAAAAAAAAAAAAAAAAAAAAAAAAAAAAAAAAAAAAAAAAAAAAAAAAAAAAAAAAAAAAAAAAAAAAAAAAAAAAAAAAAAAAAAAAAAAAAAAAAAAAAAAAAAAAAAAAAAAAAAAAAAAAAAAAAAAAAAAAAAAAAAAAAAAAAAAAAAAAAAAAAAAAAAAAAAAAAAAAAAAAAAAAAAAAAAAAAAAAAAAAAAAAAAAAAAAAAAAAAAAAAAAAAAAAAAAAAAAAAAAAAAAAAAAAAAAAAAAAAAAAAAAAAAAAAAAAAAAAAAAAAAAAAAAAAAAAAAAAAAAAAAAAAAAAAAAAAAAAAAAAAAAAAAAAAAAAAAAAAAAAAAAAAAAAAAAAAAAAAAAAAAAAAAAAAAAAAAAAAAAAAAAAAAAAAAAAAAAAAAAAAAAAAAAAAAAAAAAAAAAAAAAAAAAAAAAAAAAAAAAAAAAAAAAAAAAAAAAAAAAAAAAAAAAAAAAAAAAAAAAAAAAAAAAAAAAAAAAAAAAAAAAAAAAAAAAAAAAAAAAAAAAAAAAAAAAAAAAAAAAAAAAAAAAAAAAAAAAAAAAAAAAAAAAAAAAAAAAAAAAAAAAAAAAAAAAAAAAAAAAAAAAAAAAAAAAAAAAAAAAAAAAAAAAAAAAAAAAAAAAAAAPZYQHwRJIw7pmdExLnvjFRXqqJr36wWyWaEVaXQE1THZ811GK1FJw2j7x6ILQeB3XVi0X6klPCCKPv5lX/FCHIXkcA=</c2pa:manifest></metadata><defs><linearGradient id="s" x1="0" y1="0" x2="0" y2="1"><stop offset="0" stop-color="#1d0a33"/><stop offset=".75" stop-color="#8f5bff"/><stop offset="1" stop-color="#c796bc"/></linearGradient><radialGradient id="g"><stop offset="0" stop-color="#ffd27a" stop-opacity=".95"/><stop offset="1" stop-color="#ffd27a" stop-opacity="0"/></radialGradient><radialGradient id="v" cx=".5" cy=".5" r=".75"><stop offset=".6" stop-color="#000" stop-opacity="0"/><stop offset="1" stop-color="#000" stop-opacity=".45"/></radialGradient></defs><rect width="1280" height="720" fill="url(#s)"/><circle cx="461" cy="198" r="0.8" fill="#fff" opacity="0.68"/><circle cx="352" cy="192" r="1.6" fill="#fff" opacity="0.31"/><circle cx="556" cy="154" r="1.3" fill="#fff" opacity="0.36"/><circle cx="56" cy="55" r="0.9" fill="#fff" opacity="0.21"/><circle cx="820" cy="136" r="1.9" fill="#fff" opacity="0.84"/><circle cx="341" cy="193" r="0.9" fill="#fff" opacity="0.51"/><circle cx="676" cy="67" r="1.0" fill="#fff" opacity="0.88"/><circle cx="540" cy="23" r="0.8" fill="#fff" opacity="0.41"/><circle cx="627" cy="294" r="1.8" fill="#fff" opacity="0.27"/><circle cx="423" cy="355" r="1.6" fill="#fff" opacity="0.79"/><circle cx="245" cy="202" r="0.4" fill="#fff" opacity="0.46"/><circle cx="1202" cy="43" r="1.3" fill="#fff" opacity="0.82"/><circle cx="456" cy="352" r="0.8" fill="#fff" opacity="0.33"/><circle cx="802" cy="131" r="0.7" fill="#fff" opacity="0.74"/><circle cx="392" cy="49" r="1.4" fill="#fff" opacity="0.42"/><circle cx="358" cy="129" r="0.7" fill="#fff" opacity="0.41"/><circle cx="1049" cy="189" r="0.4" fill="#fff" opacity="0.50"/><circle cx="382" cy="107" r="0.8" fill="#fff" opacity="0.24"/><circle cx="616" cy="34" r="0.5" fill="#fff" opacity="0.79"/><circle cx="1198" cy="26" r="1.5" fill="#fff" opacity="0.41"/><circle cx="89" cy="297" r="0.5" fill="#fff" opacity="0.79"/><circle cx="520" cy="353" r="1.0" fill="#fff" opacity="0.62"/><circle cx="678" cy="328" r="1.0" fill="#fff" opacity="0.50"/><circle cx="65" cy="133" r="1.4" fill="#fff" opacity="0.45"/><circle cx="73" cy="11" r="0.4" fill="#fff" opacity="0.53"/><circle cx="197" cy="206" r="1.6" fill="#fff" opacity="0.65"/><circle cx="482" cy="112" r="1.3" fill="#fff" opacity="0.82"/><circle cx="1144" cy="89" r="1.7" fill="#fff" opacity="0.56"/><circle cx="755" cy="203" r="1.7" fill="#fff" opacity="0.64"/><circle cx="199" cy="323" r="1.7" fill="#fff" opacity="0.89"/><circle cx="1010" cy="332" r="1.8" fill="#fff" opacity="0.73"/><circle cx="1108" cy="304" r="0.8" fill="#fff" opacity="0.26"/><circle cx="1197" cy="201" r="1.8" fill="#fff" opacity="0.80"/><circle cx="363" cy="146" r="0.4" fill="#fff" opacity="0.38"/><circle cx="85" cy="52" r="1.0" fill="#fff" opacity="0.54"/><circle cx="32" cy="239" r="1.5" fill="#fff" opacity="0.59"/><circle cx="609" cy="189" r="0.8" fill="#fff" opacity="0.89"/><circle cx="165" cy="218" r="1.4" fill="#fff" opacity="0.40"/><circle cx="811" cy="207" r="0.5" fill="#fff" opacity="0.50"/><circle cx="1035" cy="165" r="0.9" fill="#fff" opacity="0.29"/><circle cx="761" cy="243" r="1.1" fill="#fff" opacity="0.21"/><circle cx="1037" cy="296" r="2.1" fill="#fff" opacity="0.41"/><circle cx="117" cy="7" r="1.7" fill="#fff" opacity="0.84"/><circle cx="1263" cy="75" r="2.1" fill="#fff" opacity="0.63"/><circle cx="827" cy="189" r="0.8" fill="#fff" opacity="0.43"/><circle cx="804" cy="124" r="0.8" fill="#fff" opacity="0.34"/><circle cx="527" cy="60" r="1.5" fill="#fff" opacity="0.64"/><circle cx="743" cy="293" r="1.1" fill="#fff" opacity="0.48"/><circle cx="787" cy="41" r="1.9" fill="#fff" opacity="0.20"/><circle cx="1256" cy="35" r="1.3" fill="#fff" opacity="0.37"/><circle cx="174" cy="32" r="0.7" fill="#fff" opacity="0.42"/><circle cx="977" cy="265" r="1.9" fill="#fff" opacity="0.43"/><circle cx="1264" cy="103" r="1.2" fill="#fff" opacity="0.65"/><circle cx="539" cy="114" r="1.6" fill="#fff" opacity="0.65"/><circle cx="349" cy="210" r="2.2" fill="#fff" opacity="0.45"/><circle cx="900" cy="307" r="1.5" fill="#fff" opacity="0.41"/><circle cx="429" cy="144" r="1.9" fill="#fff" opacity="0.43"/><circle cx="658" cy="71" r="0.7" fill="#fff" opacity="0.50"/><circle cx="835" cy="48" r="1.4" fill="#fff" opacity="0.23"/><circle cx="671" cy="321" r="2.1" fill="#fff" opacity="0.77"/><circle cx="449" cy="27" r="1.2" fill="#fff" opacity="0.80"/><circle cx="332" cy="197" r="0.7" fill="#fff" opacity="0.72"/><circle cx="286" cy="88" r="0.4" fill="#fff" opacity="0.39"/><circle cx="961" cy="122" r="2.0" fill="#fff" opacity="0.27"/><circle cx="1139" cy="54" r="1.3" fill="#fff" opacity="0.23"/><circle cx="970" cy="54" r="2.0" fill="#fff" opacity="0.89"/><circle cx="22" cy="50" r="2.2" fill="#fff" opacity="0.65"/><circle cx="1006" cy="331" r="0.7" fill="#fff" opacity="0.36"/><circle cx="194" cy="350" r="0.9" fill="#fff" opacity="0.25"/><circle cx="188" cy="189" r="1.0" fill="#fff" opacity="0.30"/><circle cx="966" cy="256" r="201" fill="url(#g)"/><circle cx="966" cy="256" r="67" fill="#ffd27a"/><polygon points="0,720 0,195 81,311 168,275 273,321 347,289 421,216 535,312 617,276 749,327 846,202 992,211 1079,234 1177,215 1265,284 1280,720" fill="#673eb7"/><polygon points="0,720 0,404 81,368 194,370 274,389 361,377 487,365 591,364 687,389 758,314 876,423 1015,340 1110,406 1195,327 1280,720" fill="#502e8e"/><polygon points="0,720 0,484 89,433 213,465 329,485 429,430 544,453 649,474 759,441 894,471 980,475 1074,493 1167,519 1283,442 1280,720" fill="#391e66"/><polygon points="0,720 0,566 64,589 154,620 264,577 363,601 442,584 504,589 582,595 656,576 759,601 833,577 926,572 1015,567 1119,576 1224,561 1280,720" fill="#220e3d"/><rect width="1280" height="720" fill="url(#v)"/></svg>