<svg xmlns="http://www.w3.org/2000/svg" viewBox="0 0 1280 720" preserveAspectRatio="xMidYMid slice" xmlns:c2pa="http://c2pa.org/manifest"><metadata><c2pa:manifest>AAAWgmp1bWIAAAAeanVtZGMycGEAEQAQgAAAqgA4m3EDYzJwYQAAABZcanVtYgAAAEdqdW1kYzJtYQARABCAAACqADibcQN1cm46YzJwYTo5OGIzMmVjNS01MmQzLTRjNTQtOTU0Ny1mMjZiN2FkODNjOTgAAAADl2p1bWIAAAApanVtZGMyYXMAEQAQgAAAqgA4m3EDYzJwYS5hc3NlcnRpb25zAAAAALxqdW1iAAAARGp1bWRjYm9yABEAEIAAAKoAOJtxE2MycGEuaW5ncmVkaWVudC52MwAAAAAYYzJzaBhuYdLB+uEjGqLsfbPgPJ0AAABwY2JvcqNpZGM6Zm9ybWF0bWltYWdlL3N2Zyt4bWxqaW5zdGFuY2VJRHgseG1wOmlpZDo4MmUyZDVlYy1iNWExLTQyNDgtYmY3MS1lMGJkN2FmMjEzOWRscmVsYXRpb25zaGlwaHBhcmVudE9mAAAB4mp1bWIAAABBanVtZGNib3IAEQAQgAAAqgA4m3ETYzJwYS5hY3Rpb25zLnYyAAAAABhjMnNoUdTeIazUjPzJ0pt17CdC8QAAAZljYm9yomdhY3Rpb25zgqJmYWN0aW9ua2MycGEub3BlbmVkanBhcmFtZXRlcnOha2luZ3JlZGllbnRzgaJjdXJseC1zZWxmI2p1bWJmPWMycGEuYXNzZXJ0aW9ucy9jMnBhLmluZ3JlZGllbnQudjNkaGFzaFggqDLN6nR/AMQPQlLcd+iWcK30qLyPPjObKwalooqsRf2kZmFjdGlvbngdY29tLmFudGhyb3BpYy5jbGF1ZGUucHJvdmlkZWRqcGFyYW1ldGVyc6F4H2NvbS5hbnRocm9waWMub3JpZ2luLWNvbmZpZGVuY2VndW5rbm93bmtkZXNjcmlwdGlvbnhmQ2xhdWRlIHByb3ZpZGVkIHRoaXMgZmlsZSBhdCB0aGUgcmVxdWVzdCBvZiBhIHVzZXIgYW5kIG1heSBoYXZlIGNyZWF0ZWQgb3IgbW9kaWZpZWQgdGhlIGZpbGUgY29udGVudHMubXNvZnR3YXJlQWdlbnShZG5hbWVmQ2xhdWRlcmFsbEFjdGlvbnNJbmNsdWRlZPUAAADIanVtYgAAAEBqdW1kY2JvcgARABCAAACqADibcRNjMnBhLmhhc2guZGF0YQAAAAAYYzJzaPShgMXoA8mT2rF2Bdq6tnYAAACAY2JvcqVjYWxnZnNoYTI1NmNwYWRNAAAAAAAAAAAAAAAAAGRoYXNoWCC+oii+fK3p0XORpbfGtjKRwTREeW5dqNoCa0RXlH5+bGRuYW1lbmp1bWJmIG1hbmlmZXN0amV4Y2x1c2lvbnOBomVzdGFydBijZmxlbmd0aBkeBAAAAj5qdW1iAAAAJ2p1bWRjMmNsABEAEIAAAKoAOJtxA2MycGEuY2xhaW0udjIAAAACD2Nib3KlY2FsZ2ZzaGEyNTZpc2lnbmF0dXJleE1zZWxmI2p1bWJmPS9jMnBhL3VybjpjMnBhOjk4YjMyZWM1LTUyZDMtNGM1NC05NTQ3LWYyNmI3YWQ4M2M5OC9jMnBhLnNpZ25hdHVyZWppbnN0YW5jZUlEeCx4bXA6aWlkOjEzY2IzYmJjLTI1NjItNDY1Mi1hNTljLWEzMmY1MmMxMGFjOXJjcmVhdGVkX2Fzc2VydGlvbnODomN1cmx4LXNlbGYjanVtYmY9YzJwYS5hc3NlcnRpb25zL2MycGEuaW5ncmVkaWVudC52M2RoYXNoWCCoMs3qdH8AxA9CUtx36JZwrfSovI8+M5srBqWiiqxF/aJjdXJseCpzZWxmI2p1bWJmPWMycGEuYXNzZXJ0aW9ucy9jMnBhLmFjdGlvbnMudjJkaGFzaFggJcXzaQghtxG11rk4Up8jizKFJ1b8GAzbBi8PnUwkdKWiY3VybHgpc2VsZiNqdW1iZj1jMnBhLmFzc2VydGlvbnMvYzJwYS5oYXNoLmRhdGFkaGFzaFggEVBCcnmY0EghOuVAfYXTA4o4DPdbAmU+4ZbvJsjD2R50Y2xhaW1fZ2VuZXJhdG9yX2luZm+jZG5hbWVvQW50aHJvcGljIEZpbGVzZ3ZlcnNpb25lMS4wLjBrc3BlY1ZlcnNpb25lMi40LjAAABA4anVtYgAAAChqdW1kYzJjcwARABCAAACqADibcQNjMnBhLnNpZ25hdHVyZQAAABAIY2JvctKEWQISogEmGCFZAgowggIGMIIBjaADAgECAhRA5aAK7sI50L64g/oGQgU9Z1UTADAKBggqhkjOPQQDAzBJMRcwFQYDVQQKEw5BbnRocm9waWMsIFBCQzEuMCwGA1UEAxMlQW50aHJvcGljIENvbnRlbnQgQ3JlZGVudGlhbHMgUm9vdCBDQTAeFw0yNjA4MDcxODQzNTZaFw0yODA4MDYxOTQzNTZaMEQxFzAVBgNVBAoTDkFudGhyb3BpYywgUEJDMSkwJwYDVQQDEyBBbnRocm9waWMgQ2xhdWRlIENvbnRlbnQgU2lnbmluZzBZMBMGByqGSM49AgEGCCqGSM49AwEHA0IABJh6CmvLUBgFFNU0vUKlOVtE6djd17L5SuwX0LemFisBM3dkd/3cyjxFA3Qo5S46fX0/ihY0VZ7mfb9KF703t5OjWDBWMA4GA1UdDwEB/wQEAwIHgDAVBgNVHSUEDjAMBgorBgEEAYPoXgIBMAwGA1UdEwEB/wQCMAAwHwYDVR0jBBgwFoAUzlHiBIFOZFsj+OPEz5o+nMHXXMIwCgYIKoZIzj0EAwMDZwAwZAIwMXMdFJ4BetLLVY7ORuE9noqbbAZOZn/aArXyTwFAZfKrPzxF2vPoJNf1+UCdg1XGAjBwX1zd9WGqYkqmL5SFqw1QySjr1zJfpJM9+1rdDwSPLMOPOjKuiXjoU/pUUeG9RwmhY3BhZFkNngAAAAAAAAAAAAAAAAAAAAAAAAAAAAAAAAAAAAAAAAAAAAAAAAAAAAAAAAAAAAAAAAAAAAAAAAAAAAAAAAAAAAAAAAAAAAAAAAAAAAAAAAAAAAAAAAAAAAAAAAAAAAAAAAAAAAAAAAAAAAAAAAAAAAAAAAAAAAAAAAAAAAAAAAAAAAAAAAAAAAAAAAAAAAAAAAAAAAAAAAAAAAAAAAAAAAAAAAAAAAAAAAAAAAAAAAAAAAAAAAAAAAAAAAAAAAAAAAAAAAAAAAAAAAAAAAAAAAAAAAAAAAAAAAAAAAAAAAAAAAAAAAAAAAAAAAAAAAAAAAAAAAAAAAAAAAAAAAAAAAAAAAAAAAAAAAAAAAAAAAAAAAAAAAAAAAAAAAAAAAAAAAAAAAAAAAAAAAAAAAAAAAAAAAAAAAAAAAAAAAAAAAAAAAAAAAAAAAAAAAAAAAAAAAAAAAAAAAAAAAAAAAAAAAAAAAAAAAAAAAAAAAAAAAAAAAAAAAAAAAAAAAAAAAAAAAAAAAAAAAAAAAAAAAAAAAAAAAAAAAAAAAAAAAAAAAAAAAAAAAAAAAAAAAAAAAAAAAAAAAAAAAAAAAAAAAAAAAAAAAAAAAAAAAAAAAAAAAAAAAAAAAAAAAAAAAAAAAAAAAAAAAAAAAAAAAAAAAAAAAAAAAAAAAAAAAAAAAAAAAAAAAAAAAAAAAAAAAAAAAAAAAAAAAAAAAAAAAAAAAAAAAAAAAAAAAAAAAAAAAAAAAAAAAAAAAAAAAAAAAAAAAAAAAAAAAAAAAAAAAAAAAAAAAAAAAAAAAAAAAAAAAAAAAAAAAAAAAAAAAAAAAAAAAAAAAAAAAAAAAAAAAAAAAAAAAAAAAAAAAAAAAAAAAAAAAAAAAAAAAAAAAAAAAAAAAAAAAAAAAAAAAAAAAAAAAAAAAAAAAAAAAAAAAAAAAAAAAAAAAAAAAAAAAAAAAAAAAAAAAAAAAAAAAAAAAAAAAAAAAAAAAAAAAAAAAAAAAAAAAAAAAAAAAAAAAAAAAAAAAAAAAAAAAAAAAAAAAAAAAAAAAAAAAAAAAAAAAAAAAAAAAAAAAAAAAAAAAAAAAAAAAAAAAAAAAAAAAAAAAAAAAAAAAAAAAAAAAAAAAAAAAAAAAAAAAAAAAAAAAAAAAAAAAAAAAAAAAAAAAAAAAAAAAAAAAAAAAAAAAAAAAAAAAAAAAAAAAAAAAAAAAAAAAAAAAAAAAAAAAAAAAAAAAAAAAAAAAAAAAAAAAAAAAAAAAAAAAAAAAAAAAAAAAAAAAAAAAAAAAAAAAAAAAAAAAAAAAAAAAAAAAAAAAAAAAAAAAAAAAAAAAAAAAAAAAAAAAAAAAAAAAAAAAAAAAAAAAAAAAAAAAAAAAAAAAAAAAAAAAAAAAAAAAAAAAAAAAAAAAAAAAAAAAAAAAAAAAAAAAAAAAAAAAAAAAAAAAAAAAAAAAAAAAAAAAAAAAAAAAAAAAAAAAAAAAAAAAAAAAAAAAAAAAAAAAAAAAAAAAAAAAAAAAAAAAAAAAAAAAAAAAAAAAAAAAAAAAAAAAAAAAAAAAAAAAAAAAAAAAAAAAAAAAAAAAAAAAAAAAAAAAAAAAAAAAAAAAAAAAAAAAAAAAAAAAAAAAAAAAAAAAAAAAAAAAAAAAAAAAAAAAAAAAAAAAAAAAAAAAAAAAAAAAAAAAAAAAAAAAAAAAAAAAAAAAAAAAAAAAAAAAAAAAAAAAAAAAAAAAAAAAAAAAAAAAAAAAAAAAAAAAAAAAAAAAAAAAAAAAAAAAAAAAAAAAAAAAAAAAAAAAAAAAAAAAAAAAAAAAAAAAAAAAAAAAAAAAAAAAAAAAAAAAAAAAAAAAAAAAAAAAAAAAAAAAAAAAAAAAAAAAAAAAAAAAAAAAAAAAAAAAAAAAAAAAAAAAAAAAAAAAAAAAAAAAAAAAAAAAAAAAAAAAAAAAAAAAAAAAAAAAAAAAAAAAAAAAAAAAAAAAAAAAAAAAAAAAAAAAAAAAAAAAAAAAAAAAAAAAAAAAAAAAAAAAAAAAAAAAAAAAAAAAAAAAAAAAAAAAAAAAAAAAAAAAAAAAAAAAAAAAAAAAAAAAAAAAAAAAAAAAAAAAAAAAAAAAAAAAAAAAAAAAAAAAAAAAAAAAAAAAAAAAAAAAAAAAAAAAAAAAAAAAAAAAAAAAAAAAAAAAAAAAAAAAAAAAAAAAAAAAAAAAAAAAAAAAAAAAAAAAAAAAAAAAAAAAAAAAAAAAAAAAAAAAAAAAAAAAAAAAAAAAAAAAAAAAAAAAAAAAAAAAAAAAAAAAAAAAAAAAAAAAAAAAAAAAAAAAAAAAAAAAAAAAAAAAAAAAAAAAAAAAAAAAAAAAAAAAAAAAAAAAAAAAAAAAAAAAAAAAAAAAAAAAAAAAAAAAAAAAAAAAAAAAAAAAAAAAAAAAAAAAAAAAAAAAAAAAAAAAAAAAAAAAAAAAAAAAAAAAAAAAAAAAAAAAAAAAAAAAAAAAAAAAAAAAAAAAAAAAAAAAAAAAAAAAAAAAAAAAAAAAAAAAAAAAAAAAAAAAAAAAAAAAAAAAAAAAAAAAAAAAAAAAAAAAAAAAAAAAAAAAAAAAAAAAAAAAAAAAAAAAAAAAAAAAAAAAAAAAAAAAAAAAAAAAAAAAAAAAAAAAAAAAAAAAAAAAAAAAAAAAAAAAAAAAAAAAAAAAAAAAAAAAAAAAAAAAAAAAAAAAAAAAAAAAAAAAAAAAAAAAAAAAAAAAAAAAAAAAAAAAAAAAAAAAAAAAAAAAAAAAAAAAAAAAAAAAAAAAAAAAAAAAAAAAAAAAAAAAAAAAAAAAAAAAAAAAAAAAAAAAAAAAAAAAAAAAAAAAAAAAAAAAAAAAAAAAAAAAAAAAAAAAAAAAAAAAAAAAAAAAAAAAAAAAAAAAAAAAAAAAAAAAAAAAAAAAAAAAAAAAAAAAAAAAAAAAAAAAAAAAAAAAAAAAAAAAAAAAAAAAAAAAAAAAAAAAAAAAAAAAAAAAAAAAAAAAAAAAAAAAAAAAAAAAAAAAAAAAAAAAAAAAAAAAAAAAAAAAAAAAAAAAAAAAAAAAAAAAAAAAAAAAAAAAAAAAAAAAAAAAAAAAAAAAAAAAAAAAAAAAAAAAAAAAAAAAAAAAAAAAAAAAAAAAAAAAAAAAAAAAAAAAAAAAAAAAAAAAAAAAAAAAAAAAAAAAAAAAAAAAAAAAAAAAAAAAAAAAAAAAAAAAAAAAAAAAAAAAAAAAAAAAAAAAAAAAAAAAAAAAAAAAAAAAAAAAAAAAAAAAAAAAAAAAAAAAAAAAAAAAAAAAAAAAAAAAAAAAAAAAAAAAAAAAAAAAAAAAAAAAAAAAAAAAAAAAAAAAAAAAAAAAAAAAAAAAAAAAAAAAAAAAAAAAAAAAAAAAAAAAAAAAAAAAAAAAAAAAAAAAAAAAAAAAAAAAAAAAAAAAAAAAAAAAAAAAAAAAAAAAAAAAAAAAAAAAAAAAAAAAAAAAAAAAAAAAAAAAAAAAAAAAAAAAAAAAAAAAAAAAAAAAAAAAAAAAAAAAAAAAAAAAAAAAAAAAAAAAAAAAAAAAAAAAAAAAAAAAAAAAAAAAAAAAAAAAAAAAAAAAAAAAAAAAAAAAAAAAAAAAAAAAAAAAAAAAAAAAAAAAAAAAAAAAAAAAAAAAAAAAAAAAAAAAAAAAAAAAAAAAAAAAAAAAAAAAAAAAAAAAAAAAAAAAAAAAAAAAAAAAAAAAAAAAAAAAAAAAAAAAAAAAAAAAAAAAAAAAAAAAAAAAAAAAAAAAAAAAAAAAAAAAAAAAAAAAAAAAAAAAAAAAAAAAAAAAAAAAAAAAAAAAAAAAAAAAAAAAAAAAAAAAAAAAAAAAAAAAAAAAAAAAAAAAAAAAAAAAAAAAAAAAAAAAAAAAAAAAAAAAAAAAAAAAAAAAAAAAAAAAAAAAAAAAAAAAAAAAAAAAAAAAAAAAAAAAAAAAAAAAAAAAAAAAAAAAAAAAAAAAAAAAAAAAAAAAAAAAAAAAAAAAAAAAAAAAAAAAAAAAAAAAAAAAAAAAAAAAAAAAAAAAAAAAAAAAAAAAAAAAAAAAAAAAAAAAAAAAAAAAAAAAAAAAAAAAAAAAAAAAAAAAAAAAAAAAAAAAAAAAAAAAAAAAAAAAAAAAAAAAAAAAAAAAAAAAAAAAAAAAAAAAAAAAAAAAAAAAAAAAAAAAAAAAAAAAAAAAAAAAAAAAAAAAAAAAAAAAAAAAAAAAAAAAAAAAAAAAAAAAAAAAAAAAAAAAAAAAAAAAAAAAAAAAAAAAAAAAAAAAAAAAAAAAAAAAAAAAAAAAAAAAAAAAAAAAAAAAAAAAAAAAAAAAAAAAAAAAAAAAAAAAAAAAAAAAAAAAAAAAAAAAAAAAAAAAAAAAAAAAAAAAAAAAAAAAAAAAAAAAAAAAAAAAAAAAAAAAAAAAAAAAAAAAAAAAAAAAAAAAAAAAAAAAAAAAAAAAAAAAAAAAAAAAAAAAAAAAAAAAAAAAAAAAAAAAAAAAAAAAAAAAAAAAAAAAAAAAAAAAAAAAAAAAAAAAAAAAAAAAAAAAAAAAAAAAAAAAAAAAAAAAAAAAAAAAAAAAAAAAAAAAAAAAAAAAAAAAAAAAAAAAAAAAAAAAAAAAAAAAAAAAAAAAAAAAAAAAAAAAAAAAAAAAAAAAAAAAAAAAAAAAAAAAAAAAAAAAAAAPZYQF1nK2l68Sp6aeI5jAlNex+LVcDAjECQME3cLOhS6kSb2LkgCxIEiy7rwSUYTqzEinLo+ZLKwhAA309SJhzUUl0=</c2pa:manifest></metadata><defs><linearGradient id="s" x1="0" y1="0" x2="0" y2="1"><stop offset="0" stop-color="#10252a"/><stop offset=".75" stop-color="#12afa0"/><stop offset="1" stop-color="#88c08d"/></linearGradient><radialGradient id="g"><stop offset="0" stop-color="#ffd27a" stop-opacity=".95"/><stop offset="1" stop-color="#ffd27a" stop-opacity="0"/></radialGradient><radialGradient id="v" cx=".5" cy=".5" r=".75"><stop offset=".6" stop-color="#000" stop-opacity="0"/><stop offset="1" stop-color="#000" stop-opacity=".45"/></radialGradient></defs><rect width="1280" height="720" fill="url(#s)"/><circle cx="315" cy="244" r="0.9" fill="#fff" opacity="0.32"/><circle cx="160" cy="330" r="0.8" fill="#fff" opacity="0.38"/><circle cx="571" cy="298" r="1.5" fill="#fff" opacity="0.53"/><circle cx="205" cy="193" r="1.6" fill="#fff" opacity="0.67"/><circle cx="24" cy="194" r="2.1" fill="#fff" opacity="0.56"/><circle cx="796" cy="178" r="0.9" fill="#fff" opacity="0.83"/><circle cx="195" cy="73" r="0.9" fill="#fff" opacity="0.61"/><circle cx="532" cy="167" r="1.1" fill="#fff" opacity="0.88"/><circle cx="1206" cy="97" r="1.6" fill="#fff" opacity="0.47"/><circle cx="320" cy="256" r="2.1" fill="#fff" opacity="0.89"/><circle cx="870" cy="174" r="1.3" fill="#fff" opacity="0.74"/><circle cx="70" cy="209" r="1.3" fill="#fff" opacity="0.67"/><circle cx="965" cy="23" r="0.5" fill="#fff" opacity="0.66"/><circle cx="1204" cy="316" r="1.9" fill="#fff" opacity="0.54"/><circle cx="961" cy="14" r="2.1" fill="#fff" opacity="0.77"/><circle cx="193" cy="333" r="0.6" fill="#fff" opacity="0.74"/><circle cx="413" cy="347" r="1.2" fill="#fff" opacity="0.89"/><circle cx="20" cy="66" r="0.4" fill="#fff" opacity="0.22"/><circle cx="569" cy="48" r="0.6" fill="#fff" opacity="0.86"/><circle cx="1062" cy="83" r="1.3" fill="#fff" opacity="0.50"/><circle cx="944" cy="184" r="1.6" fill="#fff" opacity="0.39"/><circle cx="360" cy="44" r="2.0" fill="#fff" opacity="0.73"/><circle cx="431" cy="180" r="1.9" fill="#fff" opacity="0.38"/><circle cx="2" cy="96" r="0.7" fill="#fff" opacity="0.38"/><circle cx="443" cy="182" r="0.9" fill="#fff" opacity="0.55"/><circle cx="526" cy="252" r="0.5" fill="#fff" opacity="0.86"/><circle cx="725" cy="157" r="0.7" fill="#fff" opacity="0.57"/><circle cx="695" cy="126" r="2.1" fill="#fff" opacity="0.74"/><circle cx="1230" cy="155" r="0.5" fill="#fff" opacity="0.54"/><circle cx="937" cy="161" r="1.4" fill="#fff" opacity="0.23"/><circle cx="49" cy="286" r="0.4" fill="#fff" opacity="0.29"/><circle cx="324" cy="340" r="0.7" fill="#fff" opacity="0.23"/><circle cx="1090" cy="206" r="1.9" fill="#fff" opacity="0.67"/><circle cx="503" cy="232" r="2.0" fill="#fff" opacity="0.25"/><circle cx="1114" cy="304" r="2.2" fill="#fff" opacity="0.74"/><circle cx="236" cy="222" r="1.2" fill="#fff" opacity="0.77"/><circle cx="407" cy="167" r="0.5" fill="#fff" opacity="0.61"/><circle cx="1167" cy="240" r="1.2" fill="#fff" opacity="0.52"/><circle cx="458" cy="8" r="1.7" fill="#fff" opacity="0.79"/><circle cx="187" cy="13" r="0.9" fill="#fff" opacity="0.35"/><circle cx="1082" cy="214" r="2.0" fill="#fff" opacity="0.52"/><circle cx="581" cy="280" r="1.9" fill="#fff" opacity="0.74"/><circle cx="877" cy="197" r="1.8" fill="#fff" opacity="0.22"/><circle cx="113" cy="69" r="1.5" fill="#fff" opacity="0.49"/><circle cx="1114" cy="261" r="1.0" fill="#fff" opacity="0.31"/><circle cx="994" cy="212" r="1.2" fill="#fff" opacity="0.78"/><circle cx="1273" cy="32" r="0.5" fill="#fff" opacity="0.65"/><circle cx="133" cy="7" r="2.0" fill="#fff" opacity="0.51"/><circle cx="230" cy="346" r="1.7" fill="#fff" opacity="0.89"/><circle cx="204" cy="200" r="1.6" fill="#fff" opacity="0.70"/><circle cx="69" cy="292" r="1.2" fill="#fff" opacity="0.86"/><circle cx="113" cy="279" r="1.4" fill="#fff" opacity="0.50"/><circle cx="255" cy="139" r="2.0" fill="#fff" opacity="0.80"/><circle cx="667" cy="170" r="1.5" fill="#fff" opacity="0.48"/><circle cx="1206" cy="318" r="0.9" fill="#fff" opacity="0.35"/><circle cx="563" cy="158" r="1.4" fill="#fff" opacity="0.55"/><circle cx="486" cy="199" r="1.4" fill="#fff" opacity="0.59"/><circle cx="805" cy="294" r="0.8" fill="#fff" opacity="0.46"/><circle cx="422" cy="166" r="0.9" fill="#fff" opacity="0.66"/><circle cx="1079" cy="277" r="0.9" fill="#fff" opacity="0.85"/><circle cx="849" cy="77" r="1.2" fill="#fff" opacity="0.73"/><circle cx="505" cy="196" r="2.2" fill="#fff" opacity="0.34"/><circle cx="376" cy="311" r="0.6" fill="#fff" opacity="0.66"/><circle cx="89" cy="337" r="1.0" fill="#fff" opacity="0.35"/><circle cx="287" cy="43" r="1.9" fill="#fff" opacity="0.28"/><circle cx="188" cy="280" r="0.9" fill="#fff" opacity="0.68"/><circle cx="314" cy="264" r="1.1" fill="#fff" opacity="0.77"/><circle cx="30" cy="328" r="1.9" fill="#fff" opacity="0.54"/><circle cx="1079" cy="307" r="2.0" fill="#fff" opacity="0.38"/><circle cx="894" cy="217" r="1.4" fill="#fff" opacity="0.51"/><circle cx="965" cy="179" r="264" fill="url(#g)"/><circle cx="965" cy="179" r="88" fill="#ffd27a"/><rect x="8" y="388" width="94" height="94" rx="18" fill="#9f8c5a" opacity="0.72"/><rect x="8" y="498" width="94" height="94" rx="18" fill="#9f8c5a" opacity="0.78"/><rect x="8" y="718" width="94" height="94" rx="18" fill="#ffd27a" opacity="0.85"/><rect x="118" y="388" width="94" height="94" rx="18" fill="#88d7cf" opacity="0.78"/><rect x="118" y="498" width="94" height="94" rx="18" fill="#ffd27a" opacity="0.72"/><rect x="118" y="608" width="94" height="94" rx="18" fill="#ffd27a" opacity="0.59"/><rect x="118" y="718" width="94" height="94" rx="18" fill="#ffd27a" opacity="0.60"/><rect x="228" y="388" width="94" height="94" rx="18" fill="#9f8c5a" opacity="0.49"/><rect x="228" y="498" width="94" height="94" rx="18" fill="#ffd27a" opacity="0.67"/><rect x="228" y="718" width="94" height="94" rx="18" fill="#9f8c5a" opacity="0.41"/><rect x="338" y="498" width="94" height="94" rx="18" fill="#ffd27a" opacity="0.83"/><rect x="338" y="608" width="94" height="94" rx="18" fill="#88d7cf" opacity="0.69"/><rect x="338" y="718" width="94" height="94" rx="18" fill="#ffd27a" opacity="0.84"/><rect x="448" y="388" width="94" height="94" rx="18" fill="#12afa0" opacity="0.69"/><rect x="448" y="498" width="94" height="94" rx="18" fill="#12afa0" opacity="0.85"/><rect x="448" y="608" width="94" height="94" rx="18" fill="#ffd27a" opacity="0.37"/><rect x="448" y="718" width="94" height="94" rx="18" fill="#12afa0" opacity="0.71"/><rect x="558" y="388" width="94" height="94" rx="18" fill="#88d7cf" opacity="0.36"/><rect x="558" y="498" width="94" height="94" rx="18" fill="#ffd27a" opacity="0.43"/><rect x="558" y="608" width="94" height="94" rx="18" fill="#ffd27a" opacity="0.80"/><rect x="558" y="718" width="94" height="94" rx="18" fill="#88d7cf" opacity="0.52"/><rect x="668" y="388" width="94" height="94" rx="18" fill="#88d7cf" opacity="0.48"/><rect x="668" y="498" width="94" height="94" rx="18" fill="#ffd27a" opacity="0.75"/><rect x="668" y="718" width="94" height="94" rx="18" fill="#88d7cf" opacity="0.62"/><rect x="778" y="388" width="94" height="94" rx="18" fill="#12afa0" opacity="0.55"/><rect x="778" y="498" width="94" height="94" rx="18" fill="#ffd27a" opacity="0.45"/><rect x="778" y="608" width="94" height="94" rx="18" fill="#12afa0" opacity="0.46"/><rect x="778" y="718" width="94" height="94" rx="18" fill="#12afa0" opacity="0.53"/><rect x="888" y="498" width="94" height="94" rx="18" fill="#12afa0" opacity="0.44"/><rect x="888" y="718" width="94" height="94" rx="18" fill="#88d7cf" opacity="0.37"/><rect x="998" y="388" width="94" height="94" rx="18" fill="#12afa0" opacity="0.80"/><rect x="998" y="498" width="94" height="94" rx="18" fill="#88d7cf" opacity="0.63"/><rect x="998" y="608" width="94" height="94" rx="18" fill="#88d7cf" opacity="0.50"/><rect x="998" y="718" width="94" height="94" rx="18" fill="#88d7cf" opacity="0.68"/><rect x="1108" y="388" width="94" height="94" rx="18" fill="#12afa0" opacity="0.61"/><rect x="1108" y="498" width="94" height="94" rx="18" fill="#ffd27a" opacity="0.39"/><rect x="1108" y="608" width="94" height="94" rx="18" fill="#12afa0" opacity="0.41"/><rect x="1108" y="718" width="94" height="94" rx="18" fill="#ffd27a" opacity="0.41"/><rect x="1218" y="388" width="94" height="94" rx="18" fill="#12afa0" opacity="0.46"/><rect x="1218" y="498" width="94" height="94" rx="18" fill="#ffd27a" opacity="0.38"/><rect x="1218" y="608" width="94" height="94" rx="18" fill="#12afa0" opacity="0.95"/><rect x="1218" y="718" width="94" height="94" rx="18" fill="#88d7cf" opacity="0.82"/><rect width="1280" height="720" fill="url(#v)"/></svg>