<svg xmlns="http://www.w3.org/2000/svg" viewBox="0 0 1280 720" preserveAspectRatio="xMidYMid slice"><defs><linearGradient id="s" x1="0" y1="0" x2="0" y2="1"><stop offset="0" stop-color="#2a1030"/><stop offset=".75" stop-color="#d46bcf"/><stop offset="1" stop-color="#e9a6b4"/></linearGradient><radialGradient id="g"><stop offset="0" stop-color="#ffe29a" stop-opacity=".95"/><stop offset="1" stop-color="#ffe29a" stop-opacity="0"/></radialGradient><radialGradient id="v" cx=".5" cy=".5" r=".75"><stop offset=".6" stop-color="#000" stop-opacity="0"/><stop offset="1" stop-color="#000" stop-opacity=".45"/></radialGradient></defs><rect width="1280" height="720" fill="url(#s)"/><circle cx="232" cy="357" r="2.0" fill="#fff" opacity="0.24"/><circle cx="584" cy="320" r="1.4" fill="#fff" opacity="0.42"/><circle cx="652" cy="43" r="1.6" fill="#fff" opacity="0.23"/><circle cx="784" cy="95" r="0.4" fill="#fff" opacity="0.37"/><circle cx="28" cy="336" r="0.5" fill="#fff" opacity="0.67"/><circle cx="399" cy="66" r="1.2" fill="#fff" opacity="0.64"/><circle cx="379" cy="38" r="0.8" fill="#fff" opacity="0.37"/><circle cx="298" cy="300" r="1.1" fill="#fff" opacity="0.44"/><circle cx="520" cy="119" r="1.6" fill="#fff" opacity="0.84"/><circle cx="188" cy="213" r="0.5" fill="#fff" opacity="0.68"/><circle cx="1171" cy="11" r="1.8" fill="#fff" opacity="0.50"/><circle cx="915" cy="357" r="1.6" fill="#fff" opacity="0.40"/><circle cx="451" cy="221" r="1.3" fill="#fff" opacity="0.26"/><circle cx="511" cy="344" r="0.8" fill="#fff" opacity="0.63"/><circle cx="740" cy="110" r="1.4" fill="#fff" opacity="0.48"/><circle cx="771" cy="29" r="1.6" fill="#fff" opacity="0.31"/><circle cx="220" cy="90" r="0.6" fill="#fff" opacity="0.33"/><circle cx="14" cy="330" r="0.9" fill="#fff" opacity="0.82"/><circle cx="388" cy="297" r="0.7" fill="#fff" opacity="0.67"/><circle cx="705" cy="258" r="1.1" fill="#fff" opacity="0.25"/><circle cx="108" cy="46" r="0.8" fill="#fff" opacity="0.24"/><circle cx="301" cy="330" r="0.9" fill="#fff" opacity="0.82"/><circle cx="208" cy="270" r="2.0" fill="#fff" opacity="0.60"/><circle cx="731" cy="297" r="1.1" fill="#fff" opacity="0.67"/><circle cx="35" cy="287" r="0.4" fill="#fff" opacity="0.57"/><circle cx="562" cy="274" r="2.1" fill="#fff" opacity="0.28"/><circle cx="709" cy="110" r="1.4" fill="#fff" opacity="0.53"/><circle cx="202" cy="281" r="1.5" fill="#fff" opacity="0.24"/><circle cx="492" cy="252" r="1.7" fill="#fff" opacity="0.63"/><circle cx="247" cy="331" r="0.9" fill="#fff" opacity="0.42"/><circle cx="1061" cy="152" r="1.1" fill="#fff" opacity="0.52"/><circle cx="706" cy="39" r="0.4" fill="#fff" opacity="0.72"/><circle cx="1027" cy="91" r="1.7" fill="#fff" opacity="0.79"/><circle cx="1069" cy="287" r="0.9" fill="#fff" opacity="0.23"/><circle cx="724" cy="199" r="1.1" fill="#fff" opacity="0.43"/><circle cx="985" cy="98" r="0.7" fill="#fff" opacity="0.59"/><circle cx="988" cy="308" r="1.6" fill="#fff" opacity="0.89"/><circle cx="694" cy="348" r="0.7" fill="#fff" opacity="0.53"/><circle cx="1071" cy="341" r="0.7" fill="#fff" opacity="0.35"/><circle cx="604" cy="202" r="1.1" fill="#fff" opacity="0.82"/><circle cx="193" cy="99" r="1.4" fill="#fff" opacity="0.23"/><circle cx="445" cy="10" r="0.5" fill="#fff" opacity="0.82"/><circle cx="425" cy="106" r="1.7" fill="#fff" opacity="0.83"/><circle cx="796" cy="103" r="0.9" fill="#fff" opacity="0.23"/><circle cx="1007" cy="25" r="1.9" fill="#fff" opacity="0.46"/><circle cx="474" cy="41" r="2.2" fill="#fff" opacity="0.40"/><circle cx="1021" cy="263" r="0.8" fill="#fff" opacity="0.67"/><circle cx="230" cy="200" r="2.0" fill="#fff" opacity="0.34"/><circle cx="41" cy="222" r="1.1" fill="#fff" opacity="0.42"/><circle cx="841" cy="164" r="0.5" fill="#fff" opacity="0.28"/><circle cx="1274" cy="155" r="1.4" fill="#fff" opacity="0.74"/><circle cx="65" cy="195" r="0.8" fill="#fff" opacity="0.67"/><circle cx="246" cy="122" r="1.7" fill="#fff" opacity="0.39"/><circle cx="1102" cy="311" r="1.6" fill="#fff" opacity="0.25"/><circle cx="242" cy="8" r="1.5" fill="#fff" opacity="0.89"/><circle cx="699" cy="289" r="1.3" fill="#fff" opacity="0.52"/><circle cx="796" cy="331" r="0.7" fill="#fff" opacity="0.86"/><circle cx="993" cy="300" r="0.9" fill="#fff" opacity="0.57"/><circle cx="165" cy="164" r="1.2" fill="#fff" opacity="0.29"/><circle cx="869" cy="212" r="0.8" fill="#fff" opacity="0.82"/><circle cx="921" cy="315" r="1.2" fill="#fff" opacity="0.90"/><circle cx="894" cy="95" r="1.0" fill="#fff" opacity="0.30"/><circle cx="971" cy="319" r="1.3" fill="#fff" opacity="0.71"/><circle cx="1082" cy="119" r="1.4" fill="#fff" opacity="0.61"/><circle cx="807" cy="164" r="1.4" fill="#fff" opacity="0.51"/><circle cx="1065" cy="329" r="1.5" fill="#fff" opacity="0.65"/><circle cx="1086" cy="357" r="1.7" fill="#fff" opacity="0.42"/><circle cx="213" cy="346" r="1.5" fill="#fff" opacity="0.41"/><circle cx="495" cy="199" r="1.7" fill="#fff" opacity="0.76"/><circle cx="15" cy="250" r="1.9" fill="#fff" opacity="0.80"/><circle cx="385" cy="305" r="222" fill="url(#g)"/><circle cx="385" cy="305" r="74" fill="#ffe29a"/><rect x="8" y="608" width="94" height="94" rx="18" fill="#ffe29a" opacity="0.76"/><rect x="8" y="718" width="94" height="94" rx="18" fill="#a98e6f" opacity="0.74"/><rect x="118" y="498" width="94" height="94" rx="18" fill="#ffe29a" opacity="0.95"/><rect x="118" y="608" width="94" height="94" rx="18" fill="#a98e6f" opacity="0.82"/><rect x="228" y="388" width="94" height="94" rx="18" fill="#d46bcf" opacity="0.39"/><rect x="228" y="608" width="94" height="94" rx="18" fill="#d46bcf" opacity="0.68"/><rect x="228" y="718" width="94" height="94" rx="18" fill="#a98e6f" opacity="0.62"/><rect x="338" y="388" width="94" height="94" rx="18" fill="#a98e6f" opacity="0.76"/><rect x="338" y="498" width="94" height="94" rx="18" fill="#d46bcf" opacity="0.88"/><rect x="338" y="718" width="94" height="94" rx="18" fill="#d46bcf" opacity="0.72"/><rect x="448" y="498" width="94" height="94" rx="18" fill="#d46bcf" opacity="0.43"/><rect x="448" y="608" width="94" height="94" rx="18" fill="#e9b5e7" opacity="0.94"/><rect x="558" y="388" width="94" height="94" rx="18" fill="#ffe29a" opacity="0.88"/><rect x="558" y="498" width="94" height="94" rx="18" fill="#e9b5e7" opacity="0.71"/><rect x="558" y="608" width="94" height="94" rx="18" fill="#a98e6f" opacity="0.49"/><rect x="558" y="718" width="94" height="94" rx="18" fill="#e9b5e7" opacity="0.91"/><rect x="668" y="498" width="94" height="94" rx="18" fill="#ffe29a" opacity="0.94"/><rect x="668" y="608" width="94" height="94" rx="18" fill="#ffe29a" opacity="0.66"/><rect x="778" y="388" width="94" height="94" rx="18" fill="#e9b5e7" opacity="0.39"/><rect x="778" y="498" width="94" height="94" rx="18" fill="#d46bcf" opacity="0.85"/><rect x="778" y="608" width="94" height="94" rx="18" fill="#ffe29a" opacity="0.50"/><rect x="778" y="718" width="94" height="94" rx="18" fill="#ffe29a" opacity="0.48"/><rect x="888" y="388" width="94" height="94" rx="18" fill="#a98e6f" opacity="0.45"/><rect x="888" y="498" width="94" height="94" rx="18" fill="#e9b5e7" opacity="0.78"/><rect x="888" y="718" width="94" height="94" rx="18" fill="#e9b5e7" opacity="0.48"/><rect x="998" y="388" width="94" height="94" rx="18" fill="#e9b5e7" opacity="0.66"/><rect x="998" y="498" width="94" height="94" rx="18" fill="#d46bcf" opacity="0.94"/><rect x="998" y="608" width="94" height="94" rx="18" fill="#ffe29a" opacity="0.45"/><rect x="998" y="718" width="94" height="94" rx="18" fill="#a98e6f" opacity="0.61"/><rect x="1108" y="498" width="94" height="94" rx="18" fill="#ffe29a" opacity="0.43"/><rect x="1108" y="608" width="94" height="94" rx="18" fill="#ffe29a" opacity="0.87"/><rect x="1108" y="718" width="94" height="94" rx="18" fill="#d46bcf" opacity="0.83"/><rect x="1218" y="388" width="94" height="94" rx="18" fill="#a98e6f" opacity="0.59"/><rect x="1218" y="498" width="94" height="94" rx="18" fill="#d46bcf" opacity="0.74"/><rect x="1218" y="608" width="94" height="94" rx="18" fill="#d46bcf" opacity="0.60"/><rect x="1218" y="718" width="94" height="94" rx="18" fill="#ffe29a" opacity="0.46"/><rect width="1280" height="720" fill="url(#v)"/></svg>