<svg xmlns="http://www.w3.org/2000/svg" viewBox="0 0 1280 720" preserveAspectRatio="xMidYMid slice" xmlns:c2pa="http://c2pa.org/manifest"><metadata><c2pa:manifest>AAAWgmp1bWIAAAAeanVtZGMycGEAEQAQgAAAqgA4m3EDYzJwYQAAABZcanVtYgAAAEdqdW1kYzJtYQARABCAAACqADibcQN1cm46YzJwYTpmNDY1NjNjOC0wNjdlLTQwY2QtODU5Yi1jMjBmYmY1NzBkNTUAAAADl2p1bWIAAAApanVtZGMyYXMAEQAQgAAAqgA4m3EDYzJwYS5hc3NlcnRpb25zAAAAALxqdW1iAAAARGp1bWRjYm9yABEAEIAAAKoAOJtxE2MycGEuaW5ncmVkaWVudC52MwAAAAAYYzJzaG4l0zyP9ijEh6aBIV94bLsAAABwY2JvcqNpZGM6Zm9ybWF0bWltYWdlL3N2Zyt4bWxqaW5zdGFuY2VJRHgseG1wOmlpZDowMDdkY2NiYy1mNDhmLTRiM2YtODQzYi04ZGZkNTY3MDY2ZDBscmVsYXRpb25zaGlwaHBhcmVudE9mAAAB4mp1bWIAAABBanVtZGNib3IAEQAQgAAAqgA4m3ETYzJwYS5hY3Rpb25zLnYyAAAAABhjMnNodnRmfETl0Io57DJomxBiMwAAAZljYm9yomdhY3Rpb25zgqJmYWN0aW9ua2MycGEub3BlbmVkanBhcmFtZXRlcnOha2luZ3JlZGllbnRzgaJjdXJseC1zZWxmI2p1bWJmPWMycGEuYXNzZXJ0aW9ucy9jMnBhLmluZ3JlZGllbnQudjNkaGFzaFgg5oi/YmcKAvLp3c0B2RKvqLOFrbXMRoAEYLuMqtubs6qkZmFjdGlvbngdY29tLmFudGhyb3BpYy5jbGF1ZGUucHJvdmlkZWRqcGFyYW1ldGVyc6F4H2NvbS5hbnRocm9waWMub3JpZ2luLWNvbmZpZGVuY2VndW5rbm93bmtkZXNjcmlwdGlvbnhmQ2xhdWRlIHByb3ZpZGVkIHRoaXMgZmlsZSBhdCB0aGUgcmVxdWVzdCBvZiBhIHVzZXIgYW5kIG1heSBoYXZlIGNyZWF0ZWQgb3IgbW9kaWZpZWQgdGhlIGZpbGUgY29udGVudHMubXNvZnR3YXJlQWdlbnShZG5hbWVmQ2xhdWRlcmFsbEFjdGlvbnNJbmNsdWRlZPUAAADIanVtYgAAAEBqdW1kY2JvcgARABCAAACqADibcRNjMnBhLmhhc2guZGF0YQAAAAAYYzJzaAExThUhJ/+dxFSD6OX5QagAAACAY2JvcqVjYWxnZnNoYTI1NmNwYWRNAAAAAAAAAAAAAAAAAGRoYXNoWCDSY8xoERE6ETwYXjRbifMKH4/Uh3hPH0eJq/olqXpqE2RuYW1lbmp1bWJmIG1hbmlmZXN0amV4Y2x1c2lvbnOBomVzdGFydBijZmxlbmd0aBkeBAAAAj5qdW1iAAAAJ2p1bWRjMmNsABEAEIAAAKoAOJtxA2MycGEuY2xhaW0udjIAAAACD2Nib3KlY2FsZ2ZzaGEyNTZpc2lnbmF0dXJleE1zZWxmI2p1bWJmPS9jMnBhL3VybjpjMnBhOmY0NjU2M2M4LTA2N2UtNDBjZC04NTliLWMyMGZiZjU3MGQ1NS9jMnBhLnNpZ25hdHVyZWppbnN0YW5jZUlEeCx4bXA6aWlkOjQxZjU5ZTJlLTY3MWMtNGExNC05ZTg5LWIyZDM0MDg1ZTg1N3JjcmVhdGVkX2Fzc2VydGlvbnODomN1cmx4LXNlbGYjanVtYmY9YzJwYS5hc3NlcnRpb25zL2MycGEuaW5ncmVkaWVudC52M2RoYXNoWCDmiL9iZwoC8undzQHZEq+os4WttcxGgARgu4yq25uzqqJjdXJseCpzZWxmI2p1bWJmPWMycGEuYXNzZXJ0aW9ucy9jMnBhLmFjdGlvbnMudjJkaGFzaFggzrwltLThZyCLI+JxEshBLnMNbnLr7T1hxnErVg5SGN6iY3VybHgpc2VsZiNqdW1iZj1jMnBhLmFzc2VydGlvbnMvYzJwYS5oYXNoLmRhdGFkaGFzaFgglbH/RA4jr1ktcSy1szlJJAF8Se378bA3Rx9+iGyT27d0Y2xhaW1fZ2VuZXJhdG9yX2luZm+jZG5hbWVvQW50aHJvcGljIEZpbGVzZ3ZlcnNpb25lMS4wLjBrc3BlY1ZlcnNpb25lMi40LjAAABA4anVtYgAAAChqdW1kYzJjcwARABCAAACqADibcQNjMnBhLnNpZ25hdHVyZQAAABAIY2JvctKEWQISogEmGCFZAgowggIGMIIBjaADAgECAhRA5aAK7sI50L64g/oGQgU9Z1UTADAKBggqhkjOPQQDAzBJMRcwFQYDVQQKEw5BbnRocm9waWMsIFBCQzEuMCwGA1UEAxMlQW50aHJvcGljIENvbnRlbnQgQ3JlZGVudGlhbHMgUm9vdCBDQTAeFw0yNjA4MDcxODQzNTZaFw0yODA4MDYxOTQzNTZaMEQxFzAVBgNVBAoTDkFudGhyb3BpYywgUEJDMSkwJwYDVQQDEyBBbnRocm9waWMgQ2xhdWRlIENvbnRlbnQgU2lnbmluZzBZMBMGByqGSM49AgEGCCqGSM49AwEHA0IABJh6CmvLUBgFFNU0vUKlOVtE6djd17L5SuwX0LemFisBM3dkd/3cyjxFA3Qo5S46fX0/ihY0VZ7mfb9KF703t5OjWDBWMA4GA1UdDwEB/wQEAwIHgDAVBgNVHSUEDjAMBgorBgEEAYPoXgIBMAwGA1UdEwEB/wQCMAAwHwYDVR0jBBgwFoAUzlHiBIFOZFsj+OPEz5o+nMHXXMIwCgYIKoZIzj0EAwMDZwAwZAIwMXMdFJ4BetLLVY7ORuE9noqbbAZOZn/aArXyTwFAZfKrPzxF2vPoJNf1+UCdg1XGAjBwX1zd9WGqYkqmL5SFqw1QySjr1zJfpJM9+1rdDwSPLMOPOjKuiXjoU/pUUeG9RwmhY3BhZFkNngAAAAAAAAAAAAAAAAAAAAAAAAAAAAAAAAAAAAAAAAAAAAAAAAAAAAAAAAAAAAAAAAAAAAAAAAAAAAAAAAAAAAAAAAAAAAAAAAAAAAAAAAAAAAAAAAAAAAAAAAAAAAAAAAAAAAAAAAAAAAAAAAAAAAAAAAAAAAAAAAAAAAAAAAAAAAAAAAAAAAAAAAAAAAAAAAAAAAAAAAAAAAAAAAAAAAAAAAAAAAAAAAAAAAAAAAAAAAAAAAAAAAAAAAAAAAAAAAAAAAAAAAAAAAAAAAAAAAAAAAAAAAAAAAAAAAAAAAAAAAAAAAAAAAAAAAAAAAAAAAAAAAAAAAAAAAAAAAAAAAAAAAAAAAAAAAAAAAAAAAAAAAAAAAAAAAAAAAAAAAAAAAAAAAAAAAAAAAAAAAAAAAAAAAAAAAAAAAAAAAAAAAAAAAAAAAAAAAAAAAAAAAAAAAAAAAAAAAAAAAAAAAAAAAAAAAAAAAAAAAAAAAAAAAAAAAAAAAAAAAAAAAAAAAAAAAAAAAAAAAAAAAAAAAAAAAAAAAAAAAAAAAAAAAAAAAAAAAAAAAAAAAAAAAAAAAAAAAAAAAAAAAAAAAAAAAAAAAAAAAAAAAAAAAAAAAAAAAAAAAAAAAAAAAAAAAAAAAAAAAAAAAAAAAAAAAAAAAAAAAAAAAAAAAAAAAAAAAAAAAAAAAAAAAAAAAAAAAAAAAAAAAAAAAAAAAAAAAAAAAAAAAAAAAAAAAAAAAAAAAAAAAAAAAAAAAAAAAAAAAAAAAAAAAAAAAAAAAAAAAAAAAAAAAAAAAAAAAAAAAAAAAAAAAAAAAAAAAAAAAAAAAAAAAAAAAAAAAAAAAAAAAAAAAAAAAAAAAAAAAAAAAAAAAAAAAAAAAAAAAAAAAAAAAAAAAAAAAAAAAAAAAAAAAAAAAAAAAAAAAAAAAAAAAAAAAAAAAAAAAAAAAAAAAAAAAAAAAAAAAAAAAAAAAAAAAAAAAAAAAAAAAAAAAAAAAAAAAAAAAAAAAAAAAAAAAAAAAAAAAAAAAAAAAAAAAAAAAAAAAAAAAAAAAAAAAAAAAAAAAAAAAAAAAAAAAAAAAAAAAAAAAAAAAAAAAAAAAAAAAAAAAAAAAAAAAAAAAAAAAAAAAAAAAAAAAAAAAAAAAAAAAAAAAAAAAAAAAAAAAAAAAAAAAAAAAAAAAAAAAAAAAAAAAAAAAAAAAAAAAAAAAAAAAAAAAAAAAAAAAAAAAAAAAAAAAAAAAAAAAAAAAAAAAAAAAAAAAAAAAAAAAAAAAAAAAAAAAAAAAAAAAAAAAAAAAAAAAAAAAAAAAAAAAAAAAAAAAAAAAAAAAAAAAAAAAAAAAAAAAAAAAAAAAAAAAAAAAAAAAAAAAAAAAAAAAAAAAAAAAAAAAAAAAAAAAAAAAAAAAAAAAAAAAAAAAAAAAAAAAAAAAAAAAAAAAAAAAAAAAAAAAAAAAAAAAAAAAAAAAAAAAAAAAAAAAAAAAAAAAAAAAAAAAAAAAAAAAAAAAAAAAAAAAAAAAAAAAAAAAAAAAAAAAAAAAAAAAAAAAAAAAAAAAAAAAAAAAAAAAAAAAAAAAAAAAAAAAAAAAAAAAAAAAAAAAAAAAAAAAAAAAAAAAAAAAAAAAAAAAAAAAAAAAAAAAAAAAAAAAAAAAAAAAAAAAAAAAAAAAAAAAAAAAAAAAAAAAAAAAAAAAAAAAAAAAAAAAAAAAAAAAAAAAAAAAAAAAAAAAAAAAAAAAAAAAAAAAAAAAAAAAAAAAAAAAAAAAAAAAAAAAAAAAAAAAAAAAAAAAAAAAAAAAAAAAAAAAAAAAAAAAAAAAAAAAAAAAAAAAAAAAAAAAAAAAAAAAAAAAAAAAAAAAAAAAAAAAAAAAAAAAAAAAAAAAAAAAAAAAAAAAAAAAAAAAAAAAAAAAAAAAAAAAAAAAAAAAAAAAAAAAAAAAAAAAAAAAAAAAAAAAAAAAAAAAAAAAAAAAAAAAAAAAAAAAAAAAAAAAAAAAAAAAAAAAAAAAAAAAAAAAAAAAAAAAAAAAAAAAAAAAAAAAAAAAAAAAAAAAAAAAAAAAAAAAAAAAAAAAAAAAAAAAAAAAAAAAAAAAAAAAAAAAAAAAAAAAAAAAAAAAAAAAAAAAAAAAAAAAAAAAAAAAAAAAAAAAAAAAAAAAAAAAAAAAAAAAAAAAAAAAAAAAAAAAAAAAAAAAAAAAAAAAAAAAAAAAAAAAAAAAAAAAAAAAAAAAAAAAAAAAAAAAAAAAAAAAAAAAAAAAAAAAAAAAAAAAAAAAAAAAAAAAAAAAAAAAAAAAAAAAAAAAAAAAAAAAAAAAAAAAAAAAAAAAAAAAAAAAAAAAAAAAAAAAAAAAAAAAAAAAAAAAAAAAAAAAAAAAAAAAAAAAAAAAAAAAAAAAAAAAAAAAAAAAAAAAAAAAAAAAAAAAAAAAAAAAAAAAAAAAAAAAAAAAAAAAAAAAAAAAAAAAAAAAAAAAAAAAAAAAAAAAAAAAAAAAAAAAAAAAAAAAAAAAAAAAAAAAAAAAAAAAAAAAAAAAAAAAAAAAAAAAAAAAAAAAAAAAAAAAAAAAAAAAAAAAAAAAAAAAAAAAAAAAAAAAAAAAAAAAAAAAAAAAAAAAAAAAAAAAAAAAAAAAAAAAAAAAAAAAAAAAAAAAAAAAAAAAAAAAAAAAAAAAAAAAAAAAAAAAAAAAAAAAAAAAAAAAAAAAAAAAAAAAAAAAAAAAAAAAAAAAAAAAAAAAAAAAAAAAAAAAAAAAAAAAAAAAAAAAAAAAAAAAAAAAAAAAAAAAAAAAAAAAAAAAAAAAAAAAAAAAAAAAAAAAAAAAAAAAAAAAAAAAAAAAAAAAAAAAAAAAAAAAAAAAAAAAAAAAAAAAAAAAAAAAAAAAAAAAAAAAAAAAAAAAAAAAAAAAAAAAAAAAAAAAAAAAAAAAAAAAAAAAAAAAAAAAAAAAAAAAAAAAAAAAAAAAAAAAAAAAAAAAAAAAAAAAAAAAAAAAAAAAAAAAAAAAAAAAAAAAAAAAAAAAAAAAAAAAAAAAAAAAAAAAAAAAAAAAAAAAAAAAAAAAAAAAAAAAAAAAAAAAAAAAAAAAAAAAAAAAAAAAAAAAAAAAAAAAAAAAAAAAAAAAAAAAAAAAAAAAAAAAAAAAAAAAAAAAAAAAAAAAAAAAAAAAAAAAAAAAAAAAAAAAAAAAAAAAAAAAAAAAAAAAAAAAAAAAAAAAAAAAAAAAAAAAAAAAAAAAAAAAAAAAAAAAAAAAAAAAAAAAAAAAAAAAAAAAAAAAAAAAAAAAAAAAAAAAAAAAAAAAAAAAAAAAAAAAAAAAAAAAAAAAAAAAAAAAAAAAAAAAAAAAAAAAAAAAAAAAAAAAAAAAAAAAAAAAAAAAAAAAAAAAAAAAAAAAAAAAAAAAAAAAAAAAAAAAAAAAAAAAAAAAAAAAAAAAAAAAAAAAAAAAAAAAAAAAAAAAAAAAAAAAAAAAAAAAAAAAAAAAAAAAAAAAAAAAAAAAAAAAAAAAAAAAAAAAAAAAAAAAAAAAAAAAAAAAAAAAAAAAAAAAAAAAAAAAAAAAAAAAAAAAAAAAAAAAAAAAAAAAAAAAAAAAAAAAAAAAAAAAAAAAAAAAAAAAAAAAAAAAAAAAAAAAAAAAAAAAAAAAAAAAAAAAAAAAAAAAAAAAAAAAAAAAAAAAAAAAAAAAAAAAAAAAAAAAAAAAAAAAAAAAAAAAAAAAAAAAAAAAAAAAAAAAAAAAAAAAAAAAAAAAAAAAAAAAAAAAAAAAAAAAAAAAAAAAAAAAAAAAAAAAAAAAAAAAAAAAAAAAAAAAAAAAAAAAAAAAAAAAAAAAAAAAAAAAAAAAAAAAAAAAAAAAAAAAAAAAAAAAAAAAAAAAAAAAAAAAAAAAAAAAAAAAAAAAAAAAAAAAAAAAAAAAAAAAAAAAAAAAAAAAAAAAAAAAAAAAAAAAAAAAAAAAAAAAAAAAAAAAAAAAAAAAAAAAAAAAAAAAAAAAAAAAAAAAAAAAAAAAAAAAAAAAAAAAAAAAAAAAAAAAAAAAAAAAAAAAAAAAAAAAAAAAAAAAAAAAAAAAAAAAAAAAAAAAAAAAAAAAAAAAAAAAAAAAAAAAAAAAAAAAAAAAAAAAAAAAAAAAAAAAAAAAAAAAAAAAAAAAAAAAAAAAAAAAAAAAAAAAAAAAAAAAAAAAAAAAAAAAAAAAAAAAAAAAAAAAAAAAAAAAAAAAAAAAAAAAAAAAAAAAAAAAAAAAAAAAAAAAAAAAAAAAAAAAAAAAAAAAAAAAAAAAAAAAAAAAAAAAAAAAAAAAAAAAAAAAAAAAAAAAAAAAAAAAAAAAAAAAAAAAAAAAAAAAAAAAAAAAAAAAAAAAAAAAAAAAAAAAAAAAAAAAAAAAAAAAAAAAAAAAAAAAAAAAAAAAAAAAAAAAAAAAAAAAAAAAAAAAAAAAAAAAAAAAAAAAAAAAAAAAAAAAAAAAAAAAAAAAAAAAAAAAAAAAAAAAAAAAAAAAAAAAAAAAAAAAAAAAAAAAAAAAAAAAAAAAAAAAAAAAAAAAAAAAAAAAAAAAAAAAAAAAAAAAAAAAAAAAAAAAAAAAAAAAAAAAAAAAAAAAAAAAAAAAAAAAAAAAAAAAAAAAAAAAAAAAAAAAAAAAAAAAAAAAAAAAAAAAAAAAAAAAAAAAAAAAAAAAAAAAAAAAAAAAAAAPZYQOHmP5GABBRJMcTrmGqyEY6Fyyx9l/gTnsHK9ldrKXqJC/CAw6h3c/3fu5sYRRQFPuM4XDYfBycarXoS5p76JGs=</c2pa:manifest></metadata><defs><linearGradient id="s" x1="0" y1="0" x2="0" y2="1"><stop offset="0" stop-color="#0b1a3a"/><stop offset=".75" stop-color="#2e7fe0"/><stop offset="1" stop-color="#6ba3ef"/></linearGradient><radialGradient id="g"><stop offset="0" stop-color="#a9c8ff" stop-opacity=".95"/><stop offset="1" stop-color="#a9c8ff" stop-opacity="0"/></radialGradient><radialGradient id="v" cx=".5" cy=".5" r=".75"><stop offset=".6" stop-color="#000" stop-opacity="0"/><stop offset="1" stop-color="#000" stop-opacity=".45"/></radialGradient></defs><rect width="1280" height="720" fill="url(#s)"/><circle cx="576" cy="323" r="0.8" fill="#fff" opacity="0.34"/><circle cx="112" cy="19" r="1.9" fill="#fff" opacity="0.72"/><circle cx="1217" cy="172" r="0.4" fill="#fff" opacity="0.66"/><circle cx="751" cy="75" r="2.1" fill="#fff" opacity="0.64"/><circle cx="198" cy="318" r="2.2" fill="#fff" opacity="0.35"/><circle cx="541" cy="167" r="0.5" fill="#fff" opacity="0.55"/><circle cx="444" cy="241" r="1.5" fill="#fff" opacity="0.62"/><circle cx="634" cy="231" r="1.4" fill="#fff" opacity="0.26"/><circle cx="830" cy="54" r="0.5" fill="#fff" opacity="0.36"/><circle cx="778" cy="329" r="1.3" fill="#fff" opacity="0.22"/><circle cx="601" cy="309" r="1.5" fill="#fff" opacity="0.52"/><circle cx="1151" cy="351" r="1.8" fill="#fff" opacity="0.21"/><circle cx="155" cy="239" r="1.4" fill="#fff" opacity="0.68"/><circle cx="193" cy="33" r="1.9" fill="#fff" opacity="0.30"/><circle cx="677" cy="334" r="1.9" fill="#fff" opacity="0.82"/><circle cx="1217" cy="90" r="1.7" fill="#fff" opacity="0.30"/><circle cx="973" cy="312" r="2.0" fill="#fff" opacity="0.90"/><circle cx="1189" cy="232" r="1.1" fill="#fff" opacity="0.56"/><circle cx="397" cy="201" r="1.8" fill="#fff" opacity="0.37"/><circle cx="37" cy="188" r="1.6" fill="#fff" opacity="0.60"/><circle cx="29" cy="41" r="1.3" fill="#fff" opacity="0.37"/><circle cx="291" cy="293" r="1.1" fill="#fff" opacity="0.72"/><circle cx="755" cy="263" r="0.9" fill="#fff" opacity="0.90"/><circle cx="709" cy="230" r="0.6" fill="#fff" opacity="0.20"/><circle cx="1154" cy="332" r="1.9" fill="#fff" opacity="0.87"/><circle cx="788" cy="70" r="1.0" fill="#fff" opacity="0.56"/><circle cx="157" cy="126" r="1.0" fill="#fff" opacity="0.63"/><circle cx="367" cy="108" r="1.0" fill="#fff" opacity="0.23"/><circle cx="279" cy="68" r="1.3" fill="#fff" opacity="0.86"/><circle cx="644" cy="192" r="1.6" fill="#fff" opacity="0.56"/><circle cx="1266" cy="197" r="2.0" fill="#fff" opacity="0.61"/><circle cx="1027" cy="233" r="1.0" fill="#fff" opacity="0.46"/><circle cx="426" cy="172" r="2.1" fill="#fff" opacity="0.82"/><circle cx="594" cy="181" r="1.0" fill="#fff" opacity="0.39"/><circle cx="481" cy="102" r="2.1" fill="#fff" opacity="0.25"/><circle cx="544" cy="13" r="2.1" fill="#fff" opacity="0.81"/><circle cx="325" cy="147" r="0.7" fill="#fff" opacity="0.85"/><circle cx="579" cy="260" r="1.3" fill="#fff" opacity="0.25"/><circle cx="187" cy="101" r="1.9" fill="#fff" opacity="0.48"/><circle cx="353" cy="217" r="1.3" fill="#fff" opacity="0.21"/><circle cx="567" cy="161" r="1.3" fill="#fff" opacity="0.25"/><circle cx="1204" cy="116" r="0.7" fill="#fff" opacity="0.60"/><circle cx="631" cy="108" r="1.6" fill="#fff" opacity="0.77"/><circle cx="959" cy="321" r="1.7" fill="#fff" opacity="0.35"/><circle cx="938" cy="332" r="0.7" fill="#fff" opacity="0.58"/><circle cx="1049" cy="326" r="0.4" fill="#fff" opacity="0.74"/><circle cx="200" cy="169" r="1.6" fill="#fff" opacity="0.21"/><circle cx="257" cy="146" r="0.6" fill="#fff" opacity="0.35"/><circle cx="936" cy="292" r="0.5" fill="#fff" opacity="0.25"/><circle cx="50" cy="108" r="1.2" fill="#fff" opacity="0.31"/><circle cx="188" cy="125" r="0.7" fill="#fff" opacity="0.47"/><circle cx="983" cy="345" r="1.3" fill="#fff" opacity="0.43"/><circle cx="485" cy="52" r="2.2" fill="#fff" opacity="0.40"/><circle cx="636" cy="112" r="0.9" fill="#fff" opacity="0.41"/><circle cx="495" cy="68" r="1.8" fill="#fff" opacity="0.43"/><circle cx="250" cy="297" r="0.6" fill="#fff" opacity="0.79"/><circle cx="438" cy="123" r="1.8" fill="#fff" opacity="0.26"/><circle cx="1086" cy="265" r="1.2" fill="#fff" opacity="0.64"/><circle cx="819" cy="119" r="0.6" fill="#fff" opacity="0.37"/><circle cx="571" cy="12" r="1.1" fill="#fff" opacity="0.44"/><circle cx="77" cy="303" r="2.2" fill="#fff" opacity="0.88"/><circle cx="859" cy="226" r="1.5" fill="#fff" opacity="0.81"/><circle cx="575" cy="13" r="1.2" fill="#fff" opacity="0.63"/><circle cx="494" cy="62" r="1.3" fill="#fff" opacity="0.53"/><circle cx="919" cy="49" r="0.6" fill="#fff" opacity="0.71"/><circle cx="93" cy="72" r="0.9" fill="#fff" opacity="0.69"/><circle cx="170" cy="294" r="0.6" fill="#fff" opacity="0.71"/><circle cx="699" cy="60" r="2.1" fill="#fff" opacity="0.37"/><circle cx="542" cy="311" r="0.6" fill="#fff" opacity="0.41"/><circle cx="161" cy="312" r="1.4" fill="#fff" opacity="0.85"/><circle cx="989" cy="171" r="216" fill="url(#g)"/><circle cx="989" cy="171" r="72" fill="#a9c8ff"/><rect x="-20" y="533" width="62" height="207" fill="#1e5195"/><rect x="50" y="533" width="49" height="207" fill="#1e5195"/><rect x="102" y="374" width="106" height="366" fill="#1e5195"/><rect x="215" y="552" width="84" height="188" fill="#1e5195"/><rect x="303" y="430" width="47" height="310" fill="#1e5195"/><rect x="358" y="386" width="67" height="354" fill="#1e5195"/><rect x="432" y="510" width="92" height="230" fill="#1e5195"/><rect x="530" y="413" width="94" height="327" fill="#1e5195"/><rect x="626" y="467" width="57" height="273" fill="#1e5195"/><rect x="687" y="479" width="65" height="261" fill="#1e5195"/><rect x="753" y="484" width="90" height="256" fill="#1e5195"/><rect x="846" y="510" width="49" height="230" fill="#1e5195"/><rect x="896" y="415" width="45" height="325" fill="#1e5195"/><rect x="941" y="400" width="87" height="340" fill="#1e5195"/><rect x="1033" y="395" width="92" height="345" fill="#1e5195"/><rect x="1130" y="396" width="72" height="344" fill="#1e5195"/><rect x="1202" y="414" width="68" height="326" fill="#1e5195"/><rect x="1271" y="451" width="52" height="289" fill="#1e5195"/><rect x="-20" y="453" width="75" height="257" fill="#15386b"/><rect x="62" y="565" width="109" height="145" fill="#15386b"/><rect x="173" y="368" width="51" height="342" fill="#15386b"/><rect x="228" y="379" width="60" height="331" fill="#15386b"/><rect x="291" y="502" width="42" height="208" fill="#15386b"/><rect x="338" y="570" width="53" height="140" fill="#15386b"/><rect x="392" y="386" width="93" height="324" fill="#15386b"/><rect x="485" y="570" width="109" height="140" fill="#15386b"/><rect x="594" y="372" width="88" height="338" fill="#15386b"/><rect x="686" y="555" width="94" height="155" fill="#15386b"/><rect x="786" y="482" width="83" height="228" fill="#15386b"/><rect x="869" y="439" width="67" height="271" fill="#15386b"/><rect x="944" y="467" width="101" height="243" fill="#15386b"/><rect x="1045" y="363" width="53" height="347" fill="#15386b"/><rect x="1098" y="396" width="107" height="314" fill="#15386b"/><rect x="1211" y="530" width="52" height="180" fill="#15386b"/><rect x="1264" y="466" width="79" height="244" fill="#15386b"/><rect x="-20" y="496" width="93" height="184" fill="#0c1f42"/><rect x="52" y="600" width="6" height="8" fill="#a9c8ff" opacity=".85"/><rect x="29" y="565" width="6" height="8" fill="#a9c8ff" opacity=".85"/><rect x="8" y="606" width="6" height="8" fill="#a9c8ff" opacity=".85"/><rect x="42" y="530" width="6" height="8" fill="#a9c8ff" opacity=".85"/><rect x="44" y="594" width="6" height="8" fill="#a9c8ff" opacity=".85"/><rect x="10" y="591" width="6" height="8" fill="#a9c8ff" opacity=".85"/><rect x="48" y="591" width="6" height="8" fill="#a9c8ff" opacity=".85"/><rect x="75" y="518" width="71" height="162" fill="#0c1f42"/><rect x="106" y="570" width="6" height="8" fill="#a9c8ff" opacity=".85"/><rect x="99" y="597" width="6" height="8" fill="#a9c8ff" opacity=".85"/><rect x="116" y="537" width="6" height="8" fill="#a9c8ff" opacity=".85"/><rect x="108" y="561" width="6" height="8" fill="#a9c8ff" opacity=".85"/><rect x="151" y="381" width="75" height="299" fill="#0c1f42"/><rect x="184" y="552" width="6" height="8" fill="#a9c8ff" opacity=".85"/><rect x="187" y="555" width="6" height="8" fill="#a9c8ff" opacity=".85"/><rect x="174" y="422" width="6" height="8" fill="#a9c8ff" opacity=".85"/><rect x="193" y="507" width="6" height="8" fill="#a9c8ff" opacity=".85"/><rect x="228" y="459" width="109" height="221" fill="#0c1f42"/><rect x="261" y="561" width="6" height="8" fill="#a9c8ff" opacity=".85"/><rect x="245" y="490" width="6" height="8" fill="#a9c8ff" opacity=".85"/><rect x="238" y="500" width="6" height="8" fill="#a9c8ff" opacity=".85"/><rect x="287" y="588" width="6" height="8" fill="#a9c8ff" opacity=".85"/><rect x="252" y="474" width="6" height="8" fill="#a9c8ff" opacity=".85"/><rect x="337" y="383" width="92" height="297" fill="#0c1f42"/><rect x="367" y="566" width="6" height="8" fill="#a9c8ff" opacity=".85"/><rect x="371" y="569" width="6" height="8" fill="#a9c8ff" opacity=".85"/><rect x="390" y="595" width="6" height="8" fill="#a9c8ff" opacity=".85"/><rect x="363" y="509" width="6" height="8" fill="#a9c8ff" opacity=".85"/><rect x="358" y="570" width="6" height="8" fill="#a9c8ff" opacity=".85"/><rect x="363" y="395" width="6" height="8" fill="#a9c8ff" opacity=".85"/><rect x="429" y="578" width="45" height="102" fill="#0c1f42"/><rect x="443" y="602" width="6" height="8" fill="#a9c8ff" opacity=".85"/><rect x="456" y="594" width="6" height="8" fill="#a9c8ff" opacity=".85"/><rect x="454" y="590" width="6" height="8" fill="#a9c8ff" opacity=".85"/><rect x="449" y="590" width="6" height="8" fill="#a9c8ff" opacity=".85"/><rect x="439" y="598" width="6" height="8" fill="#a9c8ff" opacity=".85"/><rect x="457" y="593" width="6" height="8" fill="#a9c8ff" opacity=".85"/><rect x="474" y="448" width="46" height="232" fill="#0c1f42"/><rect x="501" y="502" width="6" height="8" fill="#a9c8ff" opacity=".85"/><rect x="505" y="545" width="6" height="8" fill="#a9c8ff" opacity=".85"/><rect x="480" y="473" width="6" height="8" fill="#a9c8ff" opacity=".85"/><rect x="506" y="595" width="6" height="8" fill="#a9c8ff" opacity=".85"/><rect x="482" y="521" width="6" height="8" fill="#a9c8ff" opacity=".85"/><rect x="520" y="386" width="63" height="294" fill="#0c1f42"/><rect x="537" y="479" width="6" height="8" fill="#a9c8ff" opacity=".85"/><rect x="557" y="535" width="6" height="8" fill="#a9c8ff" opacity=".85"/><rect x="536" y="485" width="6" height="8" fill="#a9c8ff" opacity=".85"/><rect x="529" y="464" width="6" height="8" fill="#a9c8ff" opacity=".85"/><rect x="591" y="379" width="94" height="301" fill="#0c1f42"/><rect x="604" y="434" width="6" height="8" fill="#a9c8ff" opacity=".85"/><rect x="636" y="599" width="6" height="8" fill="#a9c8ff" opacity=".85"/><rect x="623" y="495" width="6" height="8" fill="#a9c8ff" opacity=".85"/><rect x="619" y="548" width="6" height="8" fill="#a9c8ff" opacity=".85"/><rect x="621" y="536" width="6" height="8" fill="#a9c8ff" opacity=".85"/><rect x="653" y="446" width="6" height="8" fill="#a9c8ff" opacity=".85"/><rect x="687" y="458" width="60" height="222" fill="#0c1f42"/><rect x="720" y="483" width="6" height="8" fill="#a9c8ff" opacity=".85"/><rect x="706" y="508" width="6" height="8" fill="#a9c8ff" opacity=".85"/><rect x="722" y="492" width="6" height="8" fill="#a9c8ff" opacity=".85"/><rect x="752" y="498" width="79" height="182" fill="#0c1f42"/><rect x="758" y="510" width="6" height="8" fill="#a9c8ff" opacity=".85"/><rect x="778" y="571" width="6" height="8" fill="#a9c8ff" opacity=".85"/><rect x="791" y="578" width="6" height="8" fill="#a9c8ff" opacity=".85"/><rect x="815" y="562" width="6" height="8" fill="#a9c8ff" opacity=".85"/><rect x="839" y="372" width="85" height="308" fill="#0c1f42"/><rect x="910" y="601" width="6" height="8" fill="#a9c8ff" opacity=".85"/><rect x="899" y="426" width="6" height="8" fill="#a9c8ff" opacity=".85"/><rect x="848" y="453" width="6" height="8" fill="#a9c8ff" opacity=".85"/><rect x="932" y="376" width="98" height="304" fill="#0c1f42"/><rect x="973" y="514" width="6" height="8" fill="#a9c8ff" opacity=".85"/><rect x="947" y="484" width="6" height="8" fill="#a9c8ff" opacity=".85"/><rect x="1000" y="555" width="6" height="8" fill="#a9c8ff" opacity=".85"/><rect x="953" y="560" width="6" height="8" fill="#a9c8ff" opacity=".85"/><rect x="948" y="469" width="6" height="8" fill="#a9c8ff" opacity=".85"/><rect x="948" y="432" width="6" height="8" fill="#a9c8ff" opacity=".85"/><rect x="971" y="443" width="6" height="8" fill="#a9c8ff" opacity=".85"/><rect x="959" y="413" width="6" height="8" fill="#a9c8ff" opacity=".85"/><rect x="945" y="582" width="6" height="8" fill="#a9c8ff" opacity=".85"/><rect x="1035" y="415" width="64" height="265" fill="#0c1f42"/><rect x="1043" y="518" width="6" height="8" fill="#a9c8ff" opacity=".85"/><rect x="1081" y="522" width="6" height="8" fill="#a9c8ff" opacity=".85"/><rect x="1077" y="488" width="6" height="8" fill="#a9c8ff" opacity=".85"/><rect x="1065" y="517" width="6" height="8" fill="#a9c8ff" opacity=".85"/><rect x="1106" y="458" width="62" height="222" fill="#0c1f42"/><rect x="1149" y="603" width="6" height="8" fill="#a9c8ff" opacity=".85"/><rect x="1148" y="504" width="6" height="8" fill="#a9c8ff" opacity=".85"/><rect x="1153" y="565" width="6" height="8" fill="#a9c8ff" opacity=".85"/><rect x="1135" y="517" width="6" height="8" fill="#a9c8ff" opacity=".85"/><rect x="1141" y="588" width="6" height="8" fill="#a9c8ff" opacity=".85"/><rect x="1170" y="519" width="82" height="161" fill="#0c1f42"/><rect x="1238" y="539" width="6" height="8" fill="#a9c8ff" opacity=".85"/><rect x="1236" y="535" width="6" height="8" fill="#a9c8ff" opacity=".85"/><rect x="1234" y="598" width="6" height="8" fill="#a9c8ff" opacity=".85"/><rect x="1191" y="566" width="6" height="8" fill="#a9c8ff" opacity=".85"/><rect x="1231" y="559" width="6" height="8" fill="#a9c8ff" opacity=".85"/><rect x="1198" y="541" width="6" height="8" fill="#a9c8ff" opacity=".85"/><rect x="1206" y="597" width="6" height="8" fill="#a9c8ff" opacity=".85"/><rect x="1201" y="538" width="6" height="8" fill="#a9c8ff" opacity=".85"/><rect x="1257" y="510" width="110" height="170" fill="#0c1f42"/><rect x="1277" y="600" width="6" height="8" fill="#a9c8ff" opacity=".85"/><rect x="1336" y="596" width="6" height="8" fill="#a9c8ff" opacity=".85"/><rect x="1335" y="545" width="6" height="8" fill="#a9c8ff" opacity=".85"/><rect x="1333" y="572" width="6" height="8" fill="#a9c8ff" opacity=".85"/><rect x="1318" y="521" width="6" height="8" fill="#a9c8ff" opacity=".85"/><rect x="1263" y="525" width="6" height="8" fill="#a9c8ff" opacity=".85"/><rect x="1342" y="561" width="6" height="8" fill="#a9c8ff" opacity=".85"/><rect width="1280" height="720" fill="url(#v)"/></svg>