<svg xmlns="http://www.w3.org/2000/svg" viewBox="0 0 1280 720" preserveAspectRatio="xMidYMid slice"><defs><linearGradient id="s" x1="0" y1="0" x2="0" y2="1"><stop offset="0" stop-color="#062a3a"/><stop offset=".75" stop-color="#1c86a8"/><stop offset="1" stop-color="#5bb6c0"/></linearGradient><radialGradient id="g"><stop offset="0" stop-color="#9be7d8" stop-opacity=".95"/><stop offset="1" stop-color="#9be7d8" stop-opacity="0"/></radialGradient><radialGradient id="v" cx=".5" cy=".5" r=".75"><stop offset=".6" stop-color="#000" stop-opacity="0"/><stop offset="1" stop-color="#000" stop-opacity=".45"/></radialGradient></defs><rect width="1280" height="720" fill="url(#s)"/><circle cx="678" cy="354" r="1.1" fill="#fff" opacity="0.73"/><circle cx="1135" cy="131" r="0.8" fill="#fff" opacity="0.45"/><circle cx="1236" cy="318" r="0.9" fill="#fff" opacity="0.70"/><circle cx="1036" cy="27" r="1.5" fill="#fff" opacity="0.52"/><circle cx="429" cy="270" r="1.5" fill="#fff" opacity="0.82"/><circle cx="589" cy="113" r="1.2" fill="#fff" opacity="0.35"/><circle cx="124" cy="297" r="2.0" fill="#fff" opacity="0.74"/><circle cx="263" cy="3" r="2.0" fill="#fff" opacity="0.72"/><circle cx="41" cy="190" r="1.4" fill="#fff" opacity="0.83"/><circle cx="468" cy="299" r="1.6" fill="#fff" opacity="0.55"/><circle cx="993" cy="123" r="0.4" fill="#fff" opacity="0.89"/><circle cx="54" cy="157" r="1.1" fill="#fff" opacity="0.81"/><circle cx="1098" cy="289" r="1.9" fill="#fff" opacity="0.32"/><circle cx="104" cy="343" r="2.0" fill="#fff" opacity="0.59"/><circle cx="300" cy="15" r="2.0" fill="#fff" opacity="0.63"/><circle cx="211" cy="340" r="1.3" fill="#fff" opacity="0.65"/><circle cx="647" cy="244" r="1.4" fill="#fff" opacity="0.58"/><circle cx="709" cy="73" r="2.1" fill="#fff" opacity="0.34"/><circle cx="1271" cy="243" r="1.7" fill="#fff" opacity="0.66"/><circle cx="454" cy="316" r="0.7" fill="#fff" opacity="0.50"/><circle cx="877" cy="71" r="0.7" fill="#fff" opacity="0.59"/><circle cx="1184" cy="282" r="0.6" fill="#fff" opacity="0.40"/><circle cx="1180" cy="83" r="1.3" fill="#fff" opacity="0.81"/><circle cx="1277" cy="311" r="1.7" fill="#fff" opacity="0.54"/><circle cx="363" cy="201" r="0.4" fill="#fff" opacity="0.71"/><circle cx="1" cy="293" r="2.1" fill="#fff" opacity="0.70"/><circle cx="26" cy="10" r="1.5" fill="#fff" opacity="0.34"/><circle cx="876" cy="212" r="1.7" fill="#fff" opacity="0.27"/><circle cx="959" cy="151" r="1.2" fill="#fff" opacity="0.52"/><circle cx="1235" cy="345" r="2.0" fill="#fff" opacity="0.39"/><circle cx="1164" cy="193" r="2.0" fill="#fff" opacity="0.55"/><circle cx="1222" cy="8" r="1.7" fill="#fff" opacity="0.21"/><circle cx="1085" cy="161" r="1.2" fill="#fff" opacity="0.31"/><circle cx="687" cy="170" r="0.8" fill="#fff" opacity="0.40"/><circle cx="1213" cy="147" r="1.2" fill="#fff" opacity="0.58"/><circle cx="53" cy="52" r="1.5" fill="#fff" opacity="0.87"/><circle cx="1243" cy="138" r="0.5" fill="#fff" opacity="0.46"/><circle cx="1057" cy="90" r="1.4" fill="#fff" opacity="0.69"/><circle cx="347" cy="9" r="0.9" fill="#fff" opacity="0.27"/><circle cx="135" cy="305" r="1.8" fill="#fff" opacity="0.32"/><circle cx="45" cy="194" r="0.5" fill="#fff" opacity="0.30"/><circle cx="239" cy="149" r="1.1" fill="#fff" opacity="0.53"/><circle cx="679" cy="317" r="0.4" fill="#fff" opacity="0.68"/><circle cx="187" cy="182" r="0.8" fill="#fff" opacity="0.35"/><circle cx="822" cy="25" r="2.2" fill="#fff" opacity="0.90"/><circle cx="994" cy="122" r="1.0" fill="#fff" opacity="0.49"/><circle cx="827" cy="190" r="1.5" fill="#fff" opacity="0.54"/><circle cx="647" cy="206" r="2.2" fill="#fff" opacity="0.44"/><circle cx="394" cy="12" r="1.2" fill="#fff" opacity="0.81"/><circle cx="292" cy="293" r="0.5" fill="#fff" opacity="0.68"/><circle cx="1033" cy="302" r="1.1" fill="#fff" opacity="0.68"/><circle cx="309" cy="168" r="1.3" fill="#fff" opacity="0.64"/><circle cx="947" cy="357" r="1.1" fill="#fff" opacity="0.63"/><circle cx="862" cy="146" r="0.5" fill="#fff" opacity="0.30"/><circle cx="673" cy="269" r="0.8" fill="#fff" opacity="0.36"/><circle cx="1204" cy="304" r="1.7" fill="#fff" opacity="0.85"/><circle cx="27" cy="127" r="1.0" fill="#fff" opacity="0.29"/><circle cx="175" cy="133" r="1.0" fill="#fff" opacity="0.87"/><circle cx="929" cy="350" r="1.8" fill="#fff" opacity="0.27"/><circle cx="128" cy="134" r="1.2" fill="#fff" opacity="0.34"/><circle cx="832" cy="74" r="1.8" fill="#fff" opacity="0.84"/><circle cx="1086" cy="109" r="1.3" fill="#fff" opacity="0.61"/><circle cx="526" cy="208" r="0.5" fill="#fff" opacity="0.83"/><circle cx="858" cy="309" r="1.7" fill="#fff" opacity="0.43"/><circle cx="622" cy="187" r="1.2" fill="#fff" opacity="0.40"/><circle cx="108" cy="163" r="0.5" fill="#fff" opacity="0.39"/><circle cx="477" cy="291" r="1.8" fill="#fff" opacity="0.42"/><circle cx="277" cy="118" r="1.1" fill="#fff" opacity="0.52"/><circle cx="292" cy="347" r="1.3" fill="#fff" opacity="0.72"/><circle cx="131" cy="258" r="1.5" fill="#fff" opacity="0.38"/><circle cx="469" cy="200" r="270" fill="url(#g)"/><circle cx="469" cy="200" r="90" fill="#9be7d8"/><polygon points="0,720 0,273 75,319 157,236 252,267 335,220 413,290 528,226 602,327 746,231 876,196 949,188 1089,319 1157,279 1230,275 1309,245 1280,720" fill="#146581"/><polygon points="0,720 0,396 89,345 164,414 273,306 339,362 428,328 546,421 629,418 721,358 790,343 877,380 957,368 1057,423 1184,387 1317,341 1280,720" fill="#0f536b"/><polygon points="0,720 0,528 73,449 222,450 344,451 458,502 556,496 631,500 773,493 835,486 901,521 980,510 1096,435 1190,437 1261,507 1280,720" fill="#0b4155"/><polygon points="0,720 0,613 68,566 165,587 304,624 381,626 460,567 568,622 642,607 716,556 846,586 968,595 1103,610 1182,627 1270,562 1280,720" fill="#072e3f"/><rect width="1280" height="720" fill="url(#v)"/></svg>